<svg width="14" height="15" viewBox="0 0 14 15" fill="none" xmlns="http://www.w3.org/2000/svg">
<path d="M6.78125 3.09375C8.23047 3.09375 9.40625 4.26953 9.40625 5.71875C9.40625 7.16797 8.23047 8.34375 6.78125 8.34375C5.33203 8.34375 4.15625 7.16797 4.15625 5.71875C4.15625 4.26953 5.33203 3.09375 6.78125 3.09375ZM6.78125 7.03125C7.49219 7.03125 8.09375 6.45703 8.09375 5.71875C8.09375 5.00781 7.49219 4.40625 6.78125 4.40625C6.04297 4.40625 5.46875 5.00781 5.46875 5.71875C5.46875 6.45703 6.04297 7.03125 6.78125 7.03125ZM6.78125 0.46875C10.5273 0.46875 13.5625 3.50391 13.5625 7.25C13.5625 10.9961 10.5273 14.0312 6.78125 14.0312C3.03516 14.0312 0 10.9961 0 7.25C0 3.50391 3.03516 0.46875 6.78125 0.46875ZM6.78125 12.7188C8.12109 12.7188 9.37891 12.2266 10.3359 11.4062C9.92578 10.7773 9.21484 10.3672 8.42188 10.3398C7.84766 10.5039 7.30078 10.5859 6.78125 10.5859C6.23438 10.5859 5.6875 10.5039 5.11328 10.3398C4.32031 10.3398 3.60938 10.7773 3.19922 11.4062C4.15625 12.2266 5.41406 12.7188 6.78125 12.7188ZM11.2109 10.4219C11.8672 9.54688 12.25 8.45312 12.25 7.25C12.25 4.24219 9.78906 1.78125 6.78125 1.78125C3.74609 1.78125 1.3125 4.24219 1.3125 7.25C1.3125 8.45312 1.66797 9.54688 2.32422 10.4219C2.98047 9.57422 4.01953 9 5.19531 9C5.46875 9 5.90625 9.27344 6.78125 9.27344C7.62891 9.27344 8.06641 9 8.33984 9C9.51562 9 10.5547 9.57422 11.2109 10.4219Z" fill="#FF5E14"/>
</svg>
