<svg xmlns="http://www.w3.org/2000/svg" xmlns:xlink="http://www.w3.org/1999/xlink" width="640" height="360" viewBox="0 0 640 360" fill="none">
  <path d="M639.972 240.81C634.047 239.084 629.069 237.575 624.054 236.191C617.933 234.496 611.766 232.987 605.674 231.137C604.857 230.889 604.411 229.133 603.315 227.231C599.925 225.971 595.569 224.131 591.093 222.757C586.709 221.413 582.205 220.556 577.06 219.316C578.49 217.9 579.465 216.918 581.155 215.244C577.403 214.851 573.698 215.027 570.057 215.11C570.429 212.609 570.15 210.697 569.277 209.313C569.305 209.313 569.333 209.313 569.36 209.323C569.788 209.385 570.401 209.251 570.679 208.93C576.911 201.903 584.796 205.654 591.427 206.44C595.829 206.967 598.978 206.378 602.488 204.466C602.461 201.883 602.442 199.289 602.405 195.899C600.222 195.238 597.027 194.267 593.833 193.285C593.888 192.665 593.953 192.045 594.009 191.415C598.588 190.546 603.176 189.678 607.754 188.81C607.736 188.542 607.708 188.273 607.689 188.004C603.529 187.023 599.359 186.031 595.365 185.09C596.721 182.476 598.876 180.182 598.504 178.673C597.826 175.955 596.34 173.785 593.322 173.186C594.919 172.803 596.526 172.431 598.142 172.049C598.161 171.78 598.188 171.512 598.207 171.243C593.628 170.375 589.04 169.507 584.462 168.639C584.406 168.019 584.341 167.399 584.285 166.769C587.48 165.797 590.675 164.826 592.857 164.154C592.885 160.765 592.913 158.171 592.941 155.587C589.43 153.676 586.282 153.097 581.88 153.614C579.252 153.924 576.428 154.699 573.586 155.091C573.373 155.05 573.15 155.009 572.936 154.967C572.843 154.544 572.75 154.12 572.657 153.707C578.081 153.283 580.645 150.514 579.53 144.365C577.923 144.706 576.484 145.006 575.054 145.316L574.32 144.324C576.428 142.133 578.527 139.942 580.635 137.751V137.772C580.645 137.7 580.635 137.638 580.635 137.576C580.942 137.483 581.239 137.4 581.545 137.307C586.022 135.933 590.378 134.093 593.768 132.832C594.864 130.941 595.309 129.174 596.127 128.926C602.21 127.077 608.377 125.578 614.506 123.873C619.512 122.488 624.49 120.98 630.425 119.254C623.487 116.598 617.172 121.207 611.349 118.675C611.265 117.952 611.181 117.239 611.098 116.515C612.807 116.081 614.516 115.637 616.224 115.203C616.104 114.624 615.992 114.046 615.871 113.457C609.25 113.632 602.628 113.808 596.006 113.994C595.904 113.477 595.792 112.961 595.69 112.444C597.51 111.369 599.275 110.181 601.16 109.261C603.334 108.197 604.114 106.698 601.94 105.086C600.241 103.826 598.068 102.617 596.108 102.637C592.189 102.679 588.288 103.578 583.449 104.249C585.26 102.503 586.403 101.387 588.288 99.5681C586.031 99.5165 584.824 99.4855 583.626 99.4648V98.7414C590.211 96.8917 596.795 95.042 603.389 93.1922C603.157 92.7892 602.925 92.3965 602.693 91.9935C603.436 91.2908 604.095 90.2058 604.95 89.9474C607.801 89.1 610.736 88.542 613.754 87.8497C612.788 86.1033 612.119 84.9046 611.423 83.6542C609.008 86.0309 603.529 86.4443 603.324 84.4395C602.869 80.0374 599.953 79.624 597.306 78.2599C596.61 77.8983 596.517 76.0899 596.247 75.2735C591.882 74.1264 587.499 72.9794 583.514 71.946C584.731 69.7656 585.66 68.0812 586.598 66.3968C584.731 66.7998 582.864 67.4922 580.988 67.5232C578.685 67.5645 578.109 72.039 574.886 69.8483C569.797 66.3761 564.243 64.5471 557.761 67.2855C558.717 61.2919 556.572 60.0829 552.281 61.3849C550.684 61.8706 548.845 61.4263 547.127 61.4056C547.117 61.0749 547.108 60.7442 547.099 60.4032C552.578 59.9279 558.067 59.4422 565.181 58.8222C562.33 55.8047 560.408 52.0846 558.216 51.8675C554.984 51.5575 551.566 53.7483 547.396 55.1537C547.377 52.9526 547.359 50.3485 547.331 47.6927C549.569 47.6617 551.176 47.641 553.08 47.6204C552.151 42.0298 547.777 42.8772 544.842 41.3581C546.151 42.6498 547.47 43.9416 548.798 45.2539C547.368 46.4113 546.207 47.3517 544.888 48.4057C543.718 46.773 542.734 45.3883 541.647 43.8796C539.576 50.4518 540.3 52.3429 546.068 54.513C545.074 56.1767 544.173 57.6751 543.272 59.1838C543.077 58.5948 542.882 58.0058 542.687 57.4168C539.585 57.6028 536.483 57.7991 533.288 57.9955C533.372 63.896 530.762 64.3197 526.834 62.408C527.549 61.4159 528.19 60.5272 529.23 59.0908C521.391 61.7363 514.621 67.0788 506.708 64.9501C512.633 63.2863 518.559 61.6226 524.493 59.9589C524.261 59.5559 524.029 59.1632 523.797 58.7602C524.54 58.0575 525.199 56.9724 526.054 56.7141C528.905 55.8667 531.84 55.3087 534.858 54.6163C534.524 54.017 534.245 53.5003 533.966 53.0146C534.059 52.9836 534.152 52.9526 534.245 52.9216C534.821 54.0686 535.378 55.195 535.945 56.3214L537.366 54.7713C536.325 53.7483 535.397 52.5289 534.226 51.7849C533.883 51.5679 533.474 51.4542 533.056 51.3819C532.88 51.0615 532.703 50.7412 532.527 50.4208C532.239 50.6998 531.914 50.9478 531.561 51.1752C531.459 51.1649 531.347 51.1545 531.245 51.1338C530.942 46.2494 527.28 44.3136 520.258 45.3263C518.679 42.0195 517.101 38.32 515.15 34.8789C514.602 33.9178 512.94 33.1221 511.872 33.2358C510.377 33.3908 508.881 33.5665 507.386 33.7421C507.497 33.5458 507.6 33.3495 507.711 33.1635C505.844 33.5665 503.978 34.2588 502.102 34.2898C501.86 34.2898 501.637 34.3518 501.433 34.4448C498.962 34.7445 496.492 35.0545 494.022 35.3645C489.471 32.7501 484.53 31.6547 478.883 34.0522C479.84 28.0586 477.694 26.8495 473.404 28.1516C471.806 28.6373 469.967 28.1929 468.249 28.1723C468.24 27.8416 468.231 27.5109 468.221 27.1699C473.701 26.6945 479.19 26.2088 486.304 25.5888C483.453 22.5714 481.53 18.8512 479.338 18.6342C476.106 18.3242 472.689 20.5149 468.519 21.9203C468.5 19.7192 468.481 17.1151 468.453 14.4594C470.692 14.4284 472.298 14.4077 474.202 14.387C473.274 8.79647 468.899 9.64384 465.964 8.12478C467.274 9.41649 468.593 10.7082 469.921 12.0206C468.491 13.178 467.33 14.1184 466.011 15.1724C464.841 13.5397 463.856 12.1549 462.77 10.6462C460.699 17.2185 461.423 19.1096 467.19 21.2796C466.197 22.9434 465.296 24.4418 464.395 25.9505C464.2 25.3615 464.005 24.7724 463.81 24.1834C460.708 24.3694 457.606 24.5658 454.411 24.7621C454.495 30.6627 451.885 31.0864 447.956 29.1746C448.671 28.1826 449.312 27.2939 450.352 25.8575C441.725 28.7716 434.378 34.9615 425.388 30.828C433.71 21.3003 445.384 23.3154 455.368 19.6882C455.943 20.8353 456.501 21.9617 457.067 23.088L458.488 21.538C457.448 20.5149 456.519 19.2956 455.349 18.5515C454.504 18.0142 453.334 18.0865 452.368 17.9005C452.064 13.0161 448.402 11.0802 441.381 12.0929C439.802 8.78614 438.223 5.08665 436.273 1.64551C435.725 0.684475 434.062 -0.111224 432.994 0.0127811C424.097 0.963486 415.218 2.1312 406.34 3.25758C400.108 4.04294 393.718 6.15103 387.681 5.28299C380.902 4.30129 374.493 0.14712 367.361 3.31958C366.831 3.55726 366.144 3.31958 365.522 3.34025C357.052 3.48492 348.795 4.68364 341.031 8.86881C338.524 10.2225 335.83 11.6073 333.109 11.9379C311.135 14.6454 289.106 16.8981 267.15 19.7916C262.144 20.4529 257.213 22.1373 252.346 23.8527C247.071 24.4934 241.805 25.1755 236.53 25.8368C230.298 26.6222 223.909 28.7303 217.872 27.8622C211.092 26.8805 204.684 22.7264 197.551 25.8988C197.022 26.1365 196.334 25.8988 195.712 25.9195C187.242 26.0642 178.986 27.2629 171.221 31.4481C168.714 32.8018 166.021 34.1865 163.299 34.5172C141.325 37.2246 119.296 39.4774 97.3406 42.3708C91.406 43.1459 85.5828 45.378 79.834 47.3724C75.2739 48.9534 70.946 51.3715 66.4231 53.0973C63.7112 54.1306 59.4761 53.5519 58.2966 55.4844C56.0398 59.1942 53.2072 58.3468 50.4303 58.9048C46.7989 59.6282 43.1583 60.3102 39.5269 61.0129C42.9447 63.2347 46.576 63.6997 49.4922 65.5391C52.78 67.6162 55.6126 59.2768 58.4917 65.5391C60.925 63.152 77.1685 62.7697 79.9733 65.1981C78.2459 65.3944 76.7134 65.5701 75.1903 65.7354C75.1903 66.2728 75.1717 66.7998 75.1717 67.3372C86.1865 67.8022 97.192 68.2672 108.207 68.7322C108.225 69.3109 108.235 69.8896 108.253 70.4683C96.059 73.0207 83.8183 75.0255 71.2525 74.3745C71.3825 75.2838 71.5775 76.5859 71.7819 77.9603C68.327 78.818 65.1228 79.8513 61.8537 80.3474C59.6526 80.6884 57.275 79.7893 55.1389 80.2957C49.8823 81.5461 44.765 83.4992 39.5176 84.7805C33.8802 86.1549 28.1499 87.0126 22.4754 88.2113C21.138 88.4904 19.3455 88.79 18.6676 89.8234C15.6585 94.3703 12.9558 91.3218 10.1789 89.7304C9.19447 89.1621 8.31217 88.356 7.49488 87.7463C6.21323 91.6422 5.08018 95.104 3.75209 99.1135C5.47024 99.1341 7.57847 99.1548 9.69598 99.1755C9.72385 99.5371 9.75171 99.8885 9.78886 100.25C6.529 101.242 3.25986 102.224 0 103.216L0.0650114 104.022C2.80478 104.508 5.54454 104.993 9.18518 105.644C6.38969 106.884 4.4765 107.732 2.56331 108.59C2.49829 109.055 2.43328 109.52 2.36827 109.995C4.01213 110.553 5.71171 111.721 7.29056 111.555C11.2005 111.142 15.0269 109.861 18.9369 109.509C20.135 109.406 21.463 111.194 23.1255 112.403C20.5993 114.17 19.039 115.265 17.1351 116.588C20.0885 118.593 24.0635 115.782 25.438 120.153C23.4691 125.268 19.2898 124.297 15.1291 124.183C15.5749 125.899 15.8814 127.097 16.3179 128.802C13.4295 129.908 10.7362 130.931 8.48863 131.789C6.76118 135.344 8.99015 136.594 11.1634 137.576C12.3986 138.134 13.8753 138.01 15.2405 138.268C17.358 138.681 19.4663 139.157 21.5838 139.611C21.5188 140.18 21.4538 140.748 21.3887 141.316C21.3609 141.327 21.333 141.337 21.2959 141.347C20.4229 141.399 19.587 141.678 18.8162 142.35C16.4665 143.29 14.126 144.241 11.8135 145.171C13.3645 150.999 16.7915 147.785 19.4384 147.61C20.0142 149.273 20.5343 150.762 20.6086 150.979C25.5402 151.433 29.7288 152.25 33.8802 152.064C35.0319 152.012 36.1835 151.888 37.3351 151.723C39.4062 152.518 41.4958 153.324 43.6134 154.141C43.1025 154.616 42.5917 155.091 42.0717 155.577C42.7218 155.639 43.3626 155.67 43.9941 155.68C42.8425 157.241 42.1088 158.254 41.2915 159.37C44.4306 160.331 48.9536 160.351 49.6687 162.191C50.4488 164.206 51.5726 165.353 52.845 166.107C48.1084 165.952 43.7155 168.246 39.2762 165.89C38.8118 165.642 37.8273 165.735 37.5209 166.107C35.4962 168.567 33.5923 171.15 31.2519 174.198C34.5025 174.571 37.6416 174.922 40.7343 175.273C40.9572 176.792 42.6289 177.588 44.2449 178.084C45.1922 178.373 46.1488 178.642 47.1054 178.89C42.954 179.861 38.7747 180.667 34.6975 181.928C32.3199 182.662 29.8217 184.036 31.9949 187.405C35.3012 187.322 38.5425 187.229 41.8302 187.147C43.3719 189.182 44.765 191.012 46.1581 192.758C43.7898 193.461 41.468 194.401 40.1306 197.832C39.4155 199.671 34.9018 199.692 31.7534 200.653C32.7472 202.007 33.6202 203.195 35.2547 205.417C25.7724 209.065 16.9401 212.464 7.93139 215.937C10.7547 221.155 15.0455 217.073 18.7233 218.427C17.1444 219.801 15.9742 220.824 14.6369 221.992C15.9742 222.457 17.293 223.18 18.5282 223.728C17.4602 224.648 16.968 225.971 18.0546 228.223C20.3114 229.081 22.9955 230.114 25.8838 231.21C25.4473 232.905 25.1408 234.114 24.695 235.829C28.8465 235.715 33.0351 234.744 35.004 239.859C33.6387 244.23 29.6545 241.42 26.7011 243.424C28.605 244.757 30.1653 245.842 32.6914 247.609C31.029 248.819 29.7009 250.606 28.5028 250.503C24.5929 250.152 20.7665 248.86 16.8565 248.457C15.2777 248.291 13.5781 249.459 11.9342 250.017C11.9992 250.482 12.0643 250.947 12.1293 251.423C14.0425 252.27 15.9557 253.117 18.7511 254.368C15.1105 255.019 12.3707 255.504 9.63097 255.99L9.56596 256.796C12.8258 257.788 16.095 258.77 19.3548 259.762C19.327 260.124 19.2991 260.475 19.2619 260.837C17.1444 260.857 15.0269 260.878 13.318 260.899C14.6368 264.908 15.7792 268.37 17.0608 272.266C17.8781 271.646 18.7604 270.85 19.7449 270.282C22.5218 268.69 25.2244 265.652 28.2335 270.189C28.9115 271.222 30.704 271.511 32.0413 271.801C37.7159 272.999 43.4462 273.868 49.0836 275.232C50.8946 275.676 52.6964 276.193 54.4888 276.74C53.2815 276.978 52.0741 277.226 50.8761 277.464C53.6251 277.743 56.3742 277.96 59.1046 278.156C60.9621 278.724 62.8289 279.262 64.7142 279.706C66.8503 280.212 69.2371 279.324 71.4289 279.654C74.6981 280.161 77.9022 281.184 81.3571 282.042C81.1528 283.426 80.9578 284.728 80.8277 285.627C93.3935 284.976 105.644 286.981 117.829 289.534C117.81 290.112 117.801 290.691 117.782 291.27C106.767 291.735 95.7618 292.2 84.747 292.665C84.747 293.202 84.7656 293.729 84.7656 294.266C86.298 294.442 87.8304 294.607 89.5485 294.804C86.7438 297.232 70.5002 296.839 68.0669 294.463C65.1878 300.715 62.3552 292.386 59.0675 294.463C56.1513 296.302 52.5292 296.767 49.1022 298.989C52.7335 299.692 56.3742 300.374 60.0055 301.097C62.7824 301.645 65.6151 300.808 67.8719 304.517C69.0514 306.45 73.2864 305.871 75.9983 306.905C80.5213 308.641 84.8491 311.048 89.4092 312.629C95.1581 314.624 100.981 316.856 106.916 317.631C128.871 320.514 150.901 322.767 172.875 325.485C175.586 325.815 178.289 327.2 180.797 328.554C188.561 332.739 196.817 333.938 205.287 334.082C205.9 334.082 206.597 333.865 207.126 334.103C214.259 337.275 220.677 333.111 227.447 332.14C233.484 331.272 239.873 333.38 246.105 334.165C251.38 334.826 256.646 335.508 261.922 336.149C266.797 337.864 271.72 339.549 276.726 340.21C298.681 343.093 320.71 345.346 342.684 348.064C345.396 348.395 348.099 349.779 350.606 351.133C358.371 355.318 366.627 356.517 375.097 356.662C375.71 356.662 376.407 356.445 376.936 356.682C384.069 359.855 390.486 355.69 397.257 354.719C403.293 353.851 409.683 355.959 415.915 356.744C424.794 357.86 433.672 359.038 442.57 359.989C443.638 360.103 445.309 359.317 445.848 358.356C447.798 354.915 449.377 351.216 450.956 347.909C457.965 348.935 461.627 346.999 461.943 342.101C462.909 341.915 464.079 341.998 464.924 341.45C466.095 340.696 467.033 339.477 468.063 338.464L466.642 336.914C466.076 338.04 465.519 339.166 464.943 340.314C454.959 336.676 443.285 338.691 434.963 329.174C443.953 325.04 451.3 331.23 459.928 334.144C458.888 332.708 458.247 331.819 457.532 330.827C461.46 328.915 464.07 329.349 463.986 335.24C467.181 335.436 470.283 335.622 473.385 335.818C473.58 335.229 473.775 334.64 473.97 334.051C474.871 335.56 475.772 337.058 476.766 338.722C471.008 340.892 470.274 342.794 472.345 349.356C473.432 347.847 474.416 346.462 475.586 344.829C476.896 345.883 478.066 346.834 479.496 347.981C478.159 349.294 476.849 350.585 475.54 351.877C478.475 350.358 482.858 351.205 483.778 345.615C481.874 345.594 480.276 345.573 478.029 345.542C478.047 342.887 478.075 340.283 478.094 338.081C482.264 339.487 485.691 341.678 488.913 341.368C491.105 341.161 493.028 337.43 495.879 334.413C488.756 333.793 483.276 333.307 477.797 332.832C477.806 332.501 477.815 332.171 477.824 331.83C479.552 331.809 481.382 331.354 482.979 331.85C487.27 333.163 489.415 331.954 488.458 325.95C494.105 328.337 499.046 327.252 503.597 324.637C506.067 324.947 508.538 325.257 511.008 325.557C511.212 325.65 511.435 325.712 511.677 325.712C513.553 325.743 515.42 326.435 517.286 326.838C517.184 326.642 517.073 326.456 516.961 326.26C518.457 326.435 519.952 326.601 521.447 326.766C522.515 326.88 524.187 326.094 524.726 325.123C526.676 321.682 528.255 317.982 529.834 314.676C536.842 315.702 540.505 313.766 540.82 308.868C540.923 308.847 541.025 308.837 541.136 308.827C541.489 309.054 541.823 309.302 542.102 309.581C542.279 309.261 542.455 308.94 542.632 308.62C543.049 308.548 543.458 308.444 543.802 308.217C544.972 307.463 545.91 306.243 546.941 305.23L545.52 303.68C544.953 304.807 544.396 305.933 543.82 307.08C543.727 307.049 543.635 307.018 543.542 306.987C543.811 306.491 544.099 305.974 544.433 305.385C541.415 304.693 538.489 304.135 535.629 303.288C534.774 303.029 534.124 301.944 533.372 301.242C533.604 300.839 533.836 300.446 534.069 300.043C528.143 298.379 522.218 296.715 516.283 295.052C524.196 292.923 530.967 298.266 538.805 300.911C537.765 299.475 537.124 298.586 536.409 297.594C540.338 295.682 542.947 296.116 542.864 302.006C546.059 302.203 549.161 302.389 552.262 302.585C552.458 301.996 552.653 301.407 552.848 300.818C553.748 302.327 554.649 303.825 555.643 305.489C549.885 307.659 549.151 309.56 551.222 316.122C552.309 314.613 553.293 313.229 554.464 311.596C555.773 312.65 556.943 313.601 558.374 314.748C557.036 316.06 555.727 317.352 554.417 318.644C557.352 317.125 561.736 317.972 562.655 312.381C560.751 312.361 559.154 312.34 556.906 312.309C556.925 309.653 556.953 307.049 556.971 304.848C561.141 306.254 564.568 308.444 567.791 308.134C569.983 307.928 571.905 304.197 574.756 301.18C567.633 300.56 562.153 300.074 556.674 299.599C556.683 299.268 556.693 298.937 556.702 298.596C558.429 298.576 560.259 298.121 561.856 298.617C566.147 299.929 568.292 298.72 567.336 292.716C573.818 295.455 579.363 293.626 584.462 290.154C587.684 287.963 588.26 292.437 590.563 292.479C592.44 292.51 594.306 293.202 596.173 293.605C595.235 291.921 594.306 290.247 593.09 288.056C597.065 287.012 601.448 285.865 605.823 284.728C606.083 283.912 606.175 282.093 606.881 281.742C609.528 280.378 612.444 279.964 612.9 275.562C613.104 273.558 618.593 273.971 620.998 276.348C621.695 275.097 622.354 273.899 623.329 272.152C620.311 271.46 617.385 270.902 614.525 270.054C613.67 269.796 613.02 268.711 612.268 268.008C612.5 267.605 612.732 267.213 612.965 266.81C606.371 264.96 599.786 263.11 593.192 261.26V260.537C594.399 260.506 595.597 260.485 597.863 260.434C595.978 258.605 594.826 257.499 593.025 255.752C597.863 256.424 601.773 257.323 605.683 257.365C607.634 257.385 609.807 256.176 611.516 254.915C613.689 253.303 612.909 251.805 610.736 250.741C608.86 249.821 607.086 248.633 605.265 247.558C605.367 247.041 605.479 246.524 605.581 246.008C612.203 246.183 618.825 246.359 625.447 246.545C625.567 245.966 625.679 245.388 625.8 244.799C624.091 244.365 622.382 243.92 620.673 243.486C620.757 242.763 620.84 242.05 620.924 241.327C626.747 238.795 633.062 243.404 640 240.748L639.972 240.81ZM561.15 151.165C561.15 151.165 561.141 151.154 561.132 151.144C560.853 150.834 560.24 150.689 559.813 150.751C557.389 151.092 554.974 151.351 552.541 151.227C549.56 150.059 546.449 149.253 543.319 148.509C543.179 148.426 543.049 148.354 542.91 148.271C550.563 143.735 558.634 145.13 566.974 145.057C566.082 146.287 565.153 147.465 564.132 148.54C563.222 149.49 562.246 150.431 561.16 151.154L561.15 151.165ZM552.458 211.793C552.978 211.483 553.488 211.204 553.999 210.945C554.194 211.142 554.38 211.328 554.566 211.524C555.188 212.175 555.773 212.867 556.34 213.591C555.039 213.126 553.739 212.547 552.458 211.793ZM565.228 215.11L565.497 214.748C566.119 214.882 566.741 215.006 567.373 215.141C566.658 215.141 565.943 215.13 565.228 215.11ZM568.933 142.174C568.478 141.72 568.023 141.265 567.512 140.758C568.45 140.531 569.351 140.324 570.252 140.118C569.816 140.81 569.379 141.492 568.943 142.174H568.933ZM429.447 8.32112C431.443 8.25911 433.487 10.4602 436.459 12.2376C431.462 12.5683 427.506 12.837 423.549 13.0953C423.419 12.682 423.28 12.2789 423.15 11.8656C425.249 10.5945 427.32 8.38312 429.447 8.32112ZM37.0193 119.13C33.2115 119.471 29.4037 119.812 25.5959 120.153C28.8743 115.926 32.8865 117.001 37.0193 119.13ZM35.1526 239.942C38.9604 240.283 42.7682 240.624 46.576 240.965C42.4431 243.094 38.431 244.168 35.1526 239.942ZM446.006 347.857C443.043 349.624 440.991 351.836 438.994 351.774C436.867 351.712 434.787 349.5 432.697 348.229C432.827 347.816 432.967 347.413 433.097 346.999C437.053 347.268 441.009 347.527 446.006 347.857Z" fill="#000"/>
</svg>