<svg width="229" height="99" viewBox="0 0 229 99" fill="none" xmlns="http://www.w3.org/2000/svg">
<g style="mix-blend-mode:multiply">
<path d="M67.8551 96.1249C67.6771 96.0608 67.3285 96.1376 67.0815 96.2957C66.9269 96.3947 66.8999 96.4522 66.9911 96.4647C67.0609 96.4745 67.2009 96.4575 67.4059 96.4122C67.8309 96.3182 68.0331 96.189 67.8551 96.1249Z" fill="#6EB600"/>
<path fill-rule="evenodd" clip-rule="evenodd" d="M67.2928 94.7978C69.3762 94.6085 71.3282 94.421 72.6796 94.278C75.4809 93.9811 78.2119 93.64 78.7485 93.5203C80.6807 93.0885 79.1014 93.1185 74.7728 93.5957C67.636 94.3827 63.2952 94.7612 63.4101 94.5869C63.4689 94.4971 66.5289 94.1152 70.21 93.7384C72.2211 93.5321 74.0503 93.3186 75.3083 93.1489C76.3542 93.0077 77.0061 92.8966 77.0402 92.8448C77.1145 92.7306 76.5224 92.7001 75.7232 92.7773C74.8957 92.8573 74.5554 92.8834 74.6052 92.802C74.6375 92.7484 74.8386 92.6484 75.1797 92.4869C75.5037 92.3335 75.2982 92.3182 74.7066 92.4225C74.3578 92.4841 73.8752 92.5872 73.2877 92.728C71.7467 93.0977 69.4039 93.4446 68.0816 93.4994C66.7003 93.5564 66.2995 93.5109 67.1402 93.3921C71.3894 92.7904 71.7041 92.6692 68.6492 92.8095C65.2577 92.9651 64.2877 93.1161 63.0432 93.6821C62.6394 93.8657 62.506 93.9022 62.7469 93.7628C62.988 93.6236 63.1275 93.3867 63.0573 93.2369C62.9868 93.0867 63.2416 92.8821 63.6237 92.7821C64.2175 92.6267 64.2116 92.5808 63.5873 92.4668C62.4492 92.2593 63.8065 91.9914 68.8894 91.4213C82.4586 89.9001 88.4009 89.1749 88.4968 89.0288C88.5555 88.9387 85.2729 89.2059 81.2006 89.6225C77.1291 90.0392 73.8392 90.3168 73.8894 90.2401C73.9394 90.163 75.9327 89.8391 78.3166 89.5206C85.8268 88.5165 114.32 83.4459 119.274 82.232C119.988 82.0567 120.51 81.781 120.434 81.6191C120.383 81.5107 120.174 81.4573 119.907 81.4681C119.774 81.4736 119.628 81.4947 119.48 81.5325C119.031 81.6467 118.089 81.6775 117.384 81.601C116.679 81.5247 113.625 81.924 110.596 82.4886C109.479 82.6966 108.431 82.8883 107.55 83.0464C106.04 83.3174 105.019 83.4898 104.982 83.4763C104.923 83.4552 108.427 82.5337 112.769 81.4285C117.111 80.323 120.751 79.285 120.858 79.1217C121.266 78.5041 120.127 78.559 116.105 79.3511C113.823 79.8005 110.912 80.293 109.636 80.4454C107.755 80.6701 108.159 80.541 111.767 79.7639C116.344 78.7783 117.158 78.1686 112.977 78.8581C110.64 79.2439 110.641 79.2429 113.344 78.6378C114.836 78.3039 115.907 77.94 115.724 77.8302C115.541 77.7199 114.265 77.9165 112.888 78.267C111.511 78.6175 108.924 79.1685 107.139 79.4911C104.193 80.0242 104.031 80.0222 105.391 79.4703C105.954 79.2424 105.81 79.2298 105.09 79.4069C104.686 79.5062 104.1 79.6654 103.355 79.8796C101.36 80.4538 100.519 80.6935 100.627 80.6187C100.705 80.5654 101.263 80.3534 102.227 79.99C105.724 78.6719 105.84 78.3869 102.465 79.4069C100.856 79.8935 99.9402 80.0791 100.431 79.8196C101.097 79.4673 100.517 79.4895 98.1493 79.9068C96.4036 80.2149 94.8292 80.5989 94.6508 80.7603C94.4726 80.9221 94.2688 80.9311 94.1981 80.7803C94.0847 80.5384 92.3952 80.7641 86.4408 81.816C83.0334 82.4183 79.0444 82.8383 79.3477 82.5626C79.5204 82.4057 78.279 82.5998 76.5895 82.9943C71.1138 84.2727 54.8494 85.7364 42.9646 86.0205C36.3603 86.1782 31.7821 86.4032 31.8587 86.5665C31.8938 86.6414 32.4292 86.7143 33.0487 86.7289C33.6682 86.7436 34.24 86.8939 34.3194 87.0633C34.3987 87.2322 33.6329 87.2843 32.6172 87.1784C31.6014 87.072 30.5278 87.1358 30.2328 87.3194C29.9368 87.503 29.6261 87.5067 29.542 87.3274C29.458 87.1481 29.8749 86.8624 30.4696 86.6925C31.4004 86.4262 31.314 86.3961 29.8499 86.4751C28.3851 86.5545 28.1103 86.6607 27.8698 87.2411C27.6044 87.8795 27.5737 87.8807 27.2873 87.27C26.9811 86.617 26.3181 86.5431 26.137 87.1423C26.0828 87.3219 26.2947 87.4786 26.6084 87.4906C26.7847 87.4972 26.8251 87.537 26.7455 87.5936C26.6828 87.6381 26.5474 87.6927 26.3471 87.7499C25.8904 87.8804 24.9174 87.8337 24.1861 87.6456C23.4547 87.4574 22.715 87.4315 22.5428 87.5875C22.3706 87.7437 21.846 87.8053 21.3775 87.7248C20.6395 87.5985 20.6569 87.5725 21.5064 87.5319C22.0459 87.5059 22.4278 87.359 22.3556 87.205C22.2834 87.051 21.7526 86.9752 21.1757 87.0364C20.8482 87.0711 20.5973 87.1282 20.4719 87.1891C20.3769 87.2352 20.3534 87.2836 20.423 87.3262C20.5865 87.4243 20.5227 87.6222 20.282 87.7659C20.0414 87.9099 20.7045 88.0637 21.7554 88.1076C23.4272 88.1782 23.6405 88.2694 23.4644 88.8402C23.2697 89.4699 23.1886 89.4899 21.0844 89.4215C19.886 89.3823 18.9624 89.4709 19.0313 89.6178C19.1002 89.7647 19.9034 89.8741 20.8162 89.8609C21.7288 89.8472 22.7027 89.8939 22.9812 89.9645C23.1491 90.007 23.8386 90.0465 24.7584 90.0724C25.3651 90.0894 26.0718 90.1007 26.7944 90.1031C28.6132 90.1086 30.2073 90.151 30.3361 90.1974C30.4647 90.2433 29.3272 90.5606 27.8087 90.9021C26.027 91.3023 24.2536 91.4696 22.806 91.3742C19.4311 91.1514 19.6699 91.3378 23.2462 91.7173C24.9873 91.9023 26.4726 92.1839 26.5476 92.3438C26.7328 92.7388 26.7836 92.7359 23.1489 92.5452C21.3771 92.4526 19.7369 92.4252 19.5013 92.4852C19.3692 92.5188 18.6074 92.4958 17.5231 92.4329C16.6823 92.3842 15.6481 92.3113 14.5646 92.2221C9.96617 91.8434 8.07243 91.9026 8.31425 92.4183C8.38861 92.5769 8.77193 92.5295 9.16696 92.3122C9.89682 91.9108 10.3304 92.4381 9.76338 93.0366C9.52178 93.2916 15.1686 93.8738 17.4813 93.8322C18.1382 93.8206 18.3343 93.9401 18.1408 94.2345C17.9473 94.529 17.6552 94.5945 17.1557 94.4554C16.5579 94.2886 12.778 94.0427 8.67645 93.9033C7.20405 93.8533 7.54369 94.1137 9.37146 94.4353C10.7394 94.6763 10.8062 94.7222 9.8686 94.7828C8.93498 94.8425 8.90639 94.8725 9.66401 95.0016C10.1464 95.0838 10.7983 94.9912 11.1131 94.7959C11.4286 94.6001 11.5992 94.5725 11.4923 94.7342C11.3863 94.8959 12.7128 95.1453 14.4395 95.2884C17.1258 95.5108 17.3748 95.5834 16.1621 95.792C15.3824 95.9259 14.1692 95.9052 13.4669 95.7455C11.5104 95.3017 10.6501 95.3507 11.0247 95.8842C11.227 96.1708 12.9271 96.4094 15.628 96.5294C17.9834 96.6344 20.1546 96.8123 20.4527 96.9247C20.7763 97.047 20.582 97.0855 19.9701 97.0202C18.555 96.8697 17.6518 97.1651 18.9906 97.3404C19.586 97.4186 19.9848 97.6268 19.8761 97.8034C19.7675 97.98 20.0852 97.9227 20.582 97.6755L21.4851 97.226L20.7435 97.8677C20.0329 98.483 20.1345 98.5067 23.2382 98.4368C25.0182 98.3967 28.5611 98.3248 31.112 98.2769C40.5831 98.0991 43.5139 97.9558 44.0133 97.6456C44.3294 97.4493 44.4801 97.4774 44.4077 97.7184C44.3257 97.989 44.6759 97.9433 45.5404 97.571C46.3535 97.2209 46.6491 97.1757 46.3842 97.4422C45.8261 98.0039 47.8687 97.8688 49.2348 97.254C49.9045 96.9526 50.1139 96.9352 49.8548 97.203C49.2455 97.8317 54.9227 97.3764 55.8951 96.7184C56.5091 96.3036 56.4037 96.3052 55.3374 96.728C54.3306 97.127 54.127 97.1383 54.469 96.7764C54.8324 96.3915 54.7354 96.3608 53.946 96.6112C51.9975 97.2292 50.5245 97.4414 50.9557 97.0416C51.5287 96.5098 49.8044 96.6222 48.2603 97.2174C47.4886 97.5146 47.2935 97.5274 47.6886 97.2545C48.1165 96.959 47.0777 96.9206 44.0608 97.1195C40.0089 97.3867 36.6181 97.3955 37.5288 97.1366C37.7662 97.0692 38.5371 97.0022 39.2413 96.9877C39.9448 96.9737 43.5169 96.7244 47.1792 96.4336L60.7117 95.3613C62.6693 95.2063 65.0567 95.001 67.2928 94.7978ZM115.588 81.9581C114.959 82.0431 113.883 82.3157 113.199 82.5631C112.514 82.8109 113.029 82.7415 114.344 82.4084C115.658 82.0756 116.219 81.8731 115.588 81.9581ZM62.632 94.4884C62.454 94.4243 62.1054 94.5011 61.8585 94.6593C61.5854 94.8341 61.7121 94.8798 62.1829 94.7758C62.6078 94.6817 62.8101 94.5525 62.632 94.4884ZM64.6538 93.791C65.2011 93.6517 65.3938 93.528 65.0818 93.516C64.7698 93.5038 64.322 93.6179 64.0867 93.7693C63.8513 93.9207 64.1065 93.9304 64.6538 93.791ZM61.3182 93.329C61.394 93.4906 61.0802 93.7827 60.6201 93.9782C60.1603 94.1742 60.0611 94.2818 60.3984 94.218C61.3138 94.0453 62.6522 93.3231 62.5319 93.0667C62.3897 92.7635 56.8309 93.1316 56.4583 93.4691C56.2958 93.6162 56.0989 93.6008 56.0207 93.4341C55.9427 93.2677 55.6639 93.2653 55.401 93.4285C55.1382 93.5917 53.0299 93.8169 50.7147 93.9295C49.6451 93.9813 48.6293 94.0494 47.825 94.1195C46.8893 94.2008 46.2403 94.2848 46.1283 94.3484C45.9191 94.4665 48.5821 94.3923 52.0453 94.1836C55.5084 93.9749 58.5887 93.6511 58.8906 93.4635C59.2 93.2714 59.5099 93.2735 59.6013 93.4684C59.7007 93.6805 60.0382 93.6634 60.472 93.4247C60.8614 93.2105 61.2424 93.1673 61.3182 93.329ZM61.1295 92.2343C60.9515 92.1702 60.6028 92.247 60.3559 92.4052C60.0828 92.58 60.2096 92.6257 60.6803 92.5217C61.1053 92.4276 61.3075 92.2984 61.1295 92.2343ZM91.1767 83.3639C86.9725 84.2138 88.5531 84.023 96.7148 82.6954C100.328 82.108 104.178 81.3971 105.272 81.1161C107.492 80.5452 96.2578 82.3369 91.1767 83.3639ZM107.823 79.6872C107.645 79.6231 107.296 79.6999 107.049 79.8581C106.776 80.0328 106.903 80.0786 107.374 79.9745C107.798 79.8805 108.001 79.7513 107.823 79.6872ZM30.7798 97.6891C31.6185 97.5142 32.9192 97.4262 33.6705 97.4937C34.4211 97.5614 35.4918 97.5213 36.0499 97.4049C36.9701 97.2125 36.9398 97.1925 35.7256 97.1884C34.989 97.1857 31.7704 97.1255 28.5731 97.0549C25.3756 96.984 22.6999 97.0161 22.6286 97.1258C22.5564 97.2354 22.752 97.2627 23.0625 97.1864C23.5308 97.0713 23.5509 97.1272 23.1771 97.5085C22.8287 97.8642 22.9206 97.8691 23.5774 97.5308C24.1263 97.2483 24.3906 97.2235 24.3187 97.4618C24.1808 97.9174 25.8416 97.9239 26.3433 97.47C26.5544 97.2782 26.6599 97.2954 26.5949 97.5111C26.4486 97.9936 28.8355 98.0951 30.7798 97.6891ZM86.5224 84.0332C86.2216 84.1008 85.9183 84.1981 85.7118 84.2998C85.3632 84.4713 85.705 84.4522 86.4715 84.257C86.7444 84.1875 86.9562 84.1251 87.0969 84.0744C87.3515 83.9827 87.3745 83.9297 87.105 83.9451C86.9345 83.9545 86.7294 83.9866 86.5224 84.0332ZM98.9132 80.6098C98.4985 80.633 97.7805 80.8129 97.3183 81.0093C96.8561 81.2058 97.1961 81.1867 98.073 80.9671C98.5052 80.8588 98.8162 80.7649 98.9712 80.7001C99.1306 80.6335 99.1243 80.5979 98.9132 80.6098ZM64.5775 85.7447C64.3175 86.1405 78.3559 84.319 89.6534 82.4908C92.609 82.0126 97.2753 80.9602 95.4961 81.1729C95.0322 81.2284 91.2111 81.845 87.0043 82.5426C82.7976 83.2406 76.0536 84.2121 72.0172 84.7016C67.9808 85.1912 64.633 85.6607 64.5775 85.7447ZM36.646 94.1832C36.468 94.119 36.1194 94.1959 35.8724 94.354C35.5993 94.5288 35.7261 94.5746 36.1968 94.4705C36.6218 94.3765 36.824 94.2473 36.646 94.1832ZM19.7391 94.3358C19.6261 94.711 20.0618 94.7326 28.5773 94.7719C31.4012 94.7848 34.0659 94.6938 34.4976 94.5697C35.111 94.3931 27.3912 94.2858 21.4912 94.3884C21.0052 94.3968 20.4365 94.3069 20.228 94.1889C20.111 94.123 20.0055 94.1041 19.9209 94.1297C19.837 94.1549 19.7731 94.2246 19.7391 94.3358ZM63.8189 85.6171C63.6409 85.553 63.2922 85.6298 63.0453 85.788C62.7722 85.9628 62.8989 86.0085 63.3697 85.9045C63.7946 85.8104 63.9969 85.6812 63.8189 85.6171ZM54.6108 85.8584C54.2396 85.9502 53.8872 86.1861 53.8279 86.3824C53.6917 86.8343 54.2188 86.7001 54.823 86.129C55.2224 85.7522 55.1927 85.7148 54.6108 85.8584ZM56.7598 85.7664C56.5818 85.7023 56.2332 85.7792 55.9862 85.9373C55.7131 86.1121 55.8399 86.1579 56.3106 86.0538C56.7356 85.9597 56.9378 85.8305 56.7598 85.7664ZM53.0383 85.9941C52.7176 85.9967 52.3322 86.1864 52.1809 86.4167C51.988 86.7105 52.1622 86.7089 52.7637 86.4124C53.2528 86.1712 53.3714 85.9917 53.0383 85.9941ZM51.1503 86.0803C50.7791 86.1721 50.4267 86.4079 50.3674 86.6042C50.2312 87.0562 50.7583 86.922 51.3625 86.3509C51.7619 85.974 51.7322 85.9367 51.1503 86.0803ZM16.2512 93.191C15.3514 93.2523 15.4032 93.2847 16.5654 93.3858C17.3321 93.4528 18.1387 93.4636 18.359 93.41C18.6521 93.3391 18.457 93.2663 18.039 93.2194C17.5906 93.1688 16.8853 93.1476 16.2512 93.191ZM40.2707 87.2203C40.5622 87.159 40.4963 87.3135 40.1239 87.5643C39.6881 87.8579 39.66 87.9685 40.0471 87.8756C40.377 87.7958 41.097 87.4068 41.6466 87.0105L42.6455 86.2902L41.5753 86.762C40.8217 87.0944 40.5406 87.1128 40.6283 86.8248C40.696 86.6 40.5727 86.4613 40.3535 86.5171C39.7455 86.6719 39.665 87.3483 40.2707 87.2203ZM43.5726 86.367C43.3534 86.4228 42.9657 86.665 42.7112 86.9056C42.4568 87.1461 42.4268 87.2974 42.646 87.2416C42.8653 87.1858 43.2529 86.9434 43.5073 86.7029C43.7618 86.4624 43.7918 86.3112 43.5726 86.367ZM26.4577 88.3513C27.382 88.5243 33.6356 88.4167 36.1815 88.1837C38.7132 87.9521 39.7072 87.6908 37.7682 87.7665C29.3512 88.0952 27.0991 88.1808 26.465 88.1963C25.8421 88.2115 25.8405 88.2359 26.4577 88.3513ZM13.339 92.9451C13.7393 92.8895 14.1966 92.9683 14.3542 93.1207C14.5124 93.2725 14.785 93.2673 14.9595 93.1088C15.1341 92.9504 14.1567 92.6791 12.7861 92.5067C10.893 92.2685 10.3267 92.1761 10.2332 92.2921C10.1821 92.3558 10.2745 92.4824 10.3683 92.6823C10.4855 92.9323 10.7701 93.0196 10.9999 92.8768C11.2297 92.734 11.6867 92.7139 12.0136 92.8319C12.3413 92.9498 12.9379 93.001 13.339 92.9451ZM28.572 89.3175C28.394 89.2534 28.0454 89.3303 27.7985 89.4884C27.5254 89.6632 27.6521 89.709 28.1229 89.6049C28.5478 89.5109 28.75 89.3816 28.572 89.3175ZM28.6968 86.8482C28.6105 86.8702 28.5303 87.113 28.5183 87.388C28.5105 87.5624 28.5735 87.6987 28.6744 87.7617C28.7332 87.7979 28.804 87.8097 28.8817 87.7899C29.0939 87.7358 29.1741 87.493 29.0602 87.25C28.9463 87.0071 28.7824 86.8264 28.6968 86.8482Z" fill="#6EB600"/>
<path d="M84.2969 91.2797C84.1189 91.2156 83.7702 91.2924 83.5233 91.4506C83.2502 91.6253 83.3769 91.6711 83.8477 91.567C84.2726 91.473 84.4749 91.3438 84.2969 91.2797Z" fill="#6EB600"/>
<path d="M79.8119 91.9093C80.3592 91.77 80.5518 91.6463 80.2398 91.6343C79.9278 91.6221 79.48 91.7362 79.2447 91.8876C79.1037 91.9784 79.1389 92.0182 79.3078 92.0055C79.4205 91.997 79.5926 91.9651 79.8119 91.9093Z" fill="#6EB600"/>
<path d="M79.0217 91.1745C79.581 91.0608 80.9251 90.9336 82.008 90.8915C83.0909 90.8495 84.0405 90.8182 84.1179 90.822C84.1688 90.8247 84.144 90.7848 84.0656 90.7235C84.0253 90.6913 83.9692 90.6534 83.9014 90.6127C83.4503 90.341 78.9896 90.7461 78.4242 91.1102C78.1938 91.2591 78.4623 91.288 79.0217 91.1745Z" fill="#6EB600"/>
<path d="M61.5921 96.0715C61.4141 96.0074 61.0655 96.0842 60.8185 96.2424C60.5454 96.4171 60.6722 96.4629 61.1429 96.3588C61.5679 96.2648 61.7701 96.1356 61.5921 96.0715Z" fill="#6EB600"/>
<path d="M78.1202 91.8464C77.8125 91.8343 77.273 91.9662 76.9209 92.1395C76.5688 92.3129 76.8198 92.3228 77.4795 92.1615C78.1392 92.0001 78.427 91.8586 78.1202 91.8464Z" fill="#6EB600"/>
<path d="M73.2574 92.4424C73.0793 92.3783 72.7307 92.4551 72.4838 92.6133C72.2107 92.7881 72.3374 92.8338 72.8082 92.7298C73.2331 92.6357 73.4354 92.5065 73.2574 92.4424Z" fill="#6EB600"/>
<path d="M73.5489 91.8559C74.0962 91.7166 74.2888 91.5929 73.9769 91.5809C73.6649 91.5688 73.217 91.6828 72.9818 91.8342C72.7464 91.9856 73.0016 91.9953 73.5489 91.8559Z" fill="#6EB600"/>
<path d="M122.389 77.2357C122.259 76.9583 116.813 78.385 116.566 78.761C116.472 78.9046 117.768 78.6725 119.446 78.2454C121.125 77.8178 122.449 77.3638 122.389 77.2357Z" fill="#6EB600"/>
<path d="M108.572 78.0898C108.307 78.1655 108.059 78.2457 107.861 78.3223C107.29 78.543 107.808 78.4727 109.013 78.1661C110.217 77.8595 110.683 77.6792 110.05 77.765C109.637 77.8209 109.073 77.9474 108.572 78.0898Z" fill="#6EB600"/>
<path d="M117.863 74.4942C117.685 74.4301 117.337 74.5069 117.09 74.6651C116.934 74.7643 116.908 74.822 117.001 74.8342C117.072 74.8435 117.211 74.8266 117.414 74.7815C117.625 74.735 117.78 74.6799 117.862 74.6283C117.946 74.5755 117.953 74.5265 117.863 74.4942Z" fill="#6EB600"/>
<path fill-rule="evenodd" clip-rule="evenodd" d="M94.5622 79.1812C97.7422 78.6471 102.901 77.6751 106.025 77.0216C109.15 76.3683 111.829 75.8243 111.979 75.813C112.13 75.8014 112.721 75.4824 113.292 75.1041C114.018 74.6231 114.178 74.3235 113.823 74.1095C113.47 73.8962 113.28 73.9226 113.197 74.1961C112.992 74.8742 102.733 77.1266 102.464 76.5531C102.371 76.3544 103.937 75.9227 107.1 75.2749C112.36 74.1979 112.987 73.7818 108.172 74.5631L105.106 75.0604L107.263 74.4357C108.882 73.9669 109.147 73.8215 108.327 73.8534C107.531 73.8845 108.017 73.6385 110.109 72.9522C111.691 72.4327 113.225 72.0705 113.518 72.147C113.812 72.2236 114.91 71.9752 115.956 71.5949C117.004 71.215 118.672 70.7113 119.665 70.4759C130.037 68.015 142.434 64.8456 142.728 64.5796C142.93 64.3963 143.88 64.1321 144.838 63.9923C146.61 63.7339 152.326 62.3801 158.244 60.8176L161.515 59.9542L165.695 58.8901C169.079 58.0286 169.448 58.119 174.023 56.8872C181.166 54.9637 185.19 53.6595 184.016 53.6481C183.559 53.6435 183.5 53.5573 183.781 53.3028C188.785 53.2513 189.439 50.0832 190.843 47.9397C190.905 47.8446 191.042 47.7396 191.198 47.6582C191.292 47.6091 191.393 47.5686 191.489 47.544C191.745 47.4789 191.764 46.9923 191.531 46.4622C191.188 45.6819 190.951 45.5377 190.284 45.7036C189.831 45.816 189.593 45.7655 189.757 45.5906C190.344 44.9612 189.939 44.4187 189.189 44.8312C188.794 45.0484 188.438 45.1542 188.397 45.0671C188.356 44.9798 188.846 44.6331 189.484 44.2972C190.422 43.8038 190.22 43.8304 188.435 44.4354C186.092 45.2299 185.463 45.0788 188.039 44.3027C189.898 43.7426 187.844 43.3082 187.799 43.4538C187.755 43.5988 187.958 43.5684 188.251 43.3863C188.545 43.2038 188.65 42.973 188.485 42.8733C188.319 42.7739 188.409 42.6417 188.684 42.5795C190.189 42.2407 191.414 41.7662 191.087 41.6487C190.882 41.5743 191.039 41.2309 191.435 40.8851C191.848 40.5257 192.01 40.3767 191.826 40.4028C191.699 40.4208 191.406 40.5223 190.916 40.6959C189.735 41.114 189.695 41.1007 190.08 40.4302C190.304 40.0421 190.806 39.6433 191.197 39.5437C191.439 39.4821 191.674 39.356 191.836 39.2142C191.936 39.1265 192.008 39.0328 192.034 38.9449C192.118 38.6657 191.974 38.6433 191.597 38.877C191.288 39.0693 190.869 39.1268 190.667 39.005C190.465 38.8831 190.5 38.7325 190.744 38.6701C190.989 38.6078 191.017 38.4524 190.805 38.325C190.594 38.1976 190.744 38.0088 191.14 37.9054C191.736 37.7492 191.737 37.6966 191.143 37.5927C190.285 37.4425 190.514 36.9834 191.662 36.5533C192.124 36.3803 192.979 35.9774 193.565 35.6573C194.355 35.2247 193.993 35.2882 192.153 35.9043L189.678 36.7331L190.172 35.9062C190.5 35.3592 191.134 34.9669 192.047 34.747C192.807 34.5643 193.986 34.1119 194.668 33.7425C195.02 33.5522 195.469 33.3464 195.905 33.1706C196.315 33.0049 196.714 32.8658 197.007 32.7911C198.215 32.4836 198.288 31.9212 197.105 32.0422C196.695 32.0842 198.606 31.3548 201.349 30.4218C204.092 29.489 206.384 28.603 206.441 28.4533C206.498 28.3033 207.344 27.9599 208.319 27.6897C211.447 26.8237 214.703 25.6334 214.704 25.3553C214.704 25.207 215.184 25.0345 215.773 24.972C217.022 24.8395 225.049 21.7455 225.739 21.13C226.101 20.8088 226.041 20.7926 225.485 21.0618C224.685 21.4485 219.679 23.2642 215.774 24.5838C214.399 25.0481 211.051 26.0318 208.333 26.7695C205.616 27.5069 201.192 28.763 198.503 29.5604C192.705 31.28 193.493 30.5884 199.494 28.6903C201.929 27.9201 203.161 27.4146 202.618 27.408C201.568 27.3955 203.282 26.7156 210.883 24.1306L215.879 22.4319L205.244 25.4069L207.592 24.2391C208.884 23.5968 210.085 22.9344 210.26 22.7674C210.435 22.6003 211.691 22.0721 213.051 21.5933C214.411 21.1149 215.98 20.4137 216.538 20.0352L217.551 19.3468L215.939 19.7094C214.665 19.9957 215.096 19.7244 218.004 18.4109C220.026 17.4973 222.2 16.3617 222.835 15.8872L223.99 15.0246L222.781 15.5338C221.805 15.9445 221.527 15.9471 221.339 15.5462C221.194 15.2366 220.921 15.1651 220.613 15.3559C220.342 15.5245 219.471 15.9119 218.677 16.2172C217.638 16.6167 217.422 16.6402 217.905 16.3C218.572 15.8296 217.218 16.1907 208.795 18.7263C204.78 19.9349 204.98 19.7775 209.69 18.0215C211.515 17.341 212.952 16.6652 212.884 16.52C212.816 16.3748 213.79 15.992 215.047 15.6691C216.486 15.2994 217.088 15.0387 216.672 14.9657C216.173 14.8782 216.253 14.6957 216.993 14.2263L217.977 13.6032L214.192 15.0335C213.024 15.4743 213.238 15.2791 215.129 14.1802C216.476 13.3965 217.212 12.8279 216.764 12.9164C215.873 13.0924 219.149 11.2017 221.933 9.93304C223.941 9.01792 224.577 8.12904 222.714 8.84159C221.086 9.46469 221.014 9.00746 222.632 8.32663C223.349 8.02523 223.875 7.6522 223.803 7.49766C223.637 7.14457 223.677 7.13255 220.094 8.61638C219.192 8.99009 218.278 9.35389 217.571 9.62387C216.993 9.84489 216.553 10.003 216.369 10.0525C215.036 10.4127 216.003 9.32372 218.067 8.13918C220.569 6.7039 220.171 6.56694 217.521 7.95116C216.395 8.53964 215.037 9.04843 214.504 9.08232C213.971 9.11621 211.77 9.81157 209.614 10.6276C203.591 12.9065 203.058 12.8288 208.812 10.5111C211.633 9.37467 214.14 8.30849 214.384 8.14224C214.962 7.7486 207.904 9.91197 205.849 10.7586C205.234 11.0118 204.725 11.1619 204.495 11.1695C204.396 11.173 204.349 11.1506 204.364 11.0994C204.415 10.9291 204.984 10.6557 205.628 10.4918C206.272 10.3277 206.732 10.0524 206.651 9.87959C206.57 9.70678 206.223 9.71409 205.879 9.89592C205.535 10.0776 203.68 10.717 201.755 11.3159C199.831 11.9149 197.253 12.725 196.027 13.1154C193.682 13.8624 192.659 13.6163 194.772 12.8141C195.448 12.5573 193.603 13.0043 190.67 13.8074C184.203 15.579 185.481 14.8742 193.531 12.2294C196.698 11.1884 199.245 10.2382 199.188 10.1179C199.132 9.99711 199.371 9.75834 199.719 9.58658C200.068 9.4151 199.763 9.40768 199.043 9.56996C198.323 9.73223 197.687 9.7659 197.63 9.64427C197.528 9.42791 194.636 10.1424 187.341 12.1867C185.334 12.749 183.535 13.1527 183.343 13.0838C183.151 13.0146 184.497 12.5649 186.334 12.0838C189.722 11.1962 191.381 10.619 191.629 10.2422C191.705 10.1278 189.397 10.7419 186.504 11.6067C182.277 12.8696 181.288 13.1693 180.275 13.4136C179.876 13.5099 179.472 13.5977 178.864 13.7324C176.275 14.3061 177.25 13.8211 181.916 12.2136C184.336 11.3799 186.534 10.5201 186.799 10.3034C187.482 9.74682 185.298 10.326 183.395 11.2066C182.57 11.5879 179.842 12.464 177.332 13.1542C173.448 14.2214 172.866 14.4533 173.424 14.7091C173.975 14.9617 173.851 15.0329 172.644 15.1548C171.855 15.2346 167.953 16.1079 163.974 17.0951L156.74 18.8906L160.996 17.5134C163.337 16.7559 166.013 15.9843 166.944 15.7984C167.875 15.6124 168.507 15.3823 168.349 15.2864C168.19 15.1905 169.459 14.7564 171.169 14.3209C172.878 13.8856 176.1 12.9277 178.328 12.1919C184.481 10.1607 190.399 8.4466 188.92 9.12417L187.636 9.71234L189.173 9.36425C190.018 9.1731 190.991 8.79205 191.334 8.51786C191.677 8.24352 193.4 7.56261 195.163 7.00446C200.375 5.35426 199.914 4.96291 194.614 6.53825C192.033 7.30541 189.64 8.08111 189.296 8.26236C189.068 8.38209 188.839 8.42553 188.686 8.39133C188.608 8.37367 188.55 8.33562 188.523 8.27711C188.437 8.09366 189.322 7.71108 190.653 7.35698C193.443 6.61497 192.908 6.57079 189.522 7.26353C188.137 7.5469 187.145 7.86269 187.315 7.96595C187.486 8.06945 186.765 8.37482 185.714 8.64527C185.046 8.81678 184.297 9.0474 183.717 9.25386C183.384 9.37233 183.107 9.48295 182.933 9.56979C182.326 9.87276 182.102 9.87943 182.188 9.59159C182.281 9.28565 180.481 9.66717 175.163 11.0813C171.23 12.127 168.059 13.0844 168.116 13.2087C168.172 13.3333 167.717 13.544 167.106 13.6769C166.494 13.8094 164 14.5339 161.563 15.287C158.329 16.286 157.166 16.5477 157.254 16.2556C157.33 16.0041 157.035 15.9441 156.458 16.0941C155.724 16.2851 155.686 16.3585 156.27 16.4616C156.779 16.552 156.503 16.676 155.35 16.8748C154.443 17.031 152.976 17.3244 152.091 17.5262C150.812 17.8187 150.62 17.8006 151.158 17.4381C151.53 17.1874 154.732 16.32 158.271 15.5108C161.811 14.7011 164.562 13.9866 164.383 13.9224C164.018 13.7912 159.611 14.7262 148.424 17.3092C144.223 18.2791 140.128 19.1669 139.324 19.282C134.303 20.0001 132.045 20.3902 131.841 20.575C131.714 20.6909 130.327 20.9513 128.76 21.1539C126.763 21.412 125.912 21.6262 125.916 21.8689C125.919 22.0596 125.435 22.3193 124.842 22.4457C123.887 22.649 123.858 22.6345 124.597 22.3202C125.793 21.8114 125.365 21.3088 124.101 21.737C122.818 22.1711 118.674 22.8736 112.647 23.6789C111.263 23.8638 109.951 24.1258 109.732 24.2614C109.513 24.3969 108.101 24.5923 106.594 24.6958C105.087 24.799 102.948 25.0339 101.839 25.2178C100.731 25.4019 99.6758 25.5274 99.4954 25.4972C99.3143 25.4672 98.3804 25.5672 97.4199 25.7199C96.4593 25.8724 92.6704 26.32 88.9995 26.715C85.3294 27.1096 81.523 27.5385 80.5413 27.6682C79.5593 27.7975 78.7998 27.7588 78.8535 27.582C78.9064 27.4055 78.7228 27.4017 78.4459 27.574C78.169 27.7461 76.3787 27.9164 74.4681 27.9527C70.89 28.0203 66.8437 28.4183 68.5833 28.5314C68.9469 28.5552 69.1015 28.5879 69.0174 28.6498C68.9319 28.7125 68.602 28.8051 67.999 28.9481C67.1719 29.1442 66.4413 29.1894 66.3753 29.0487C66.3356 28.964 66.1778 28.9561 65.9685 29.0126C65.8295 29.0502 65.668 29.1161 65.5027 29.207C64.9636 29.503 64.7873 29.4982 64.88 29.1894C64.9592 28.9277 65.4917 28.7104 66.2357 28.636C66.91 28.5688 67.4363 28.4609 67.4059 28.396C67.3231 28.2195 62.7949 28.41 62.6729 28.5952C62.6151 28.6835 63.0767 28.7232 63.6978 28.6837C64.9654 28.6032 65.0643 29.1406 63.839 29.4525C63.4006 29.5642 63.0869 29.5096 63.1401 29.3316C63.1949 29.1535 62.8866 29.1808 62.4577 29.3926C61.8886 29.673 61.7137 29.6545 61.8128 29.3257C61.9122 28.9959 61.7542 28.9817 61.2228 29.2739C61.0084 29.3919 60.6028 29.4884 60.1347 29.5459C59.7314 29.5953 59.2816 29.6159 58.8668 29.5963C57.9713 29.5536 57.2958 29.6403 57.3655 29.7889C57.4351 29.9373 57.1399 30.0557 56.7088 30.0514C56.4938 30.0493 56.3421 30.0654 56.2713 30.0928C56.1999 30.1205 56.2095 30.1595 56.3172 30.2036C56.5323 30.2911 57.4337 30.289 58.32 30.1988C59.2063 30.1087 64.1475 29.8822 69.3007 29.6957C81.9328 29.2383 100.208 27.4618 119.848 24.7825C121.46 24.5624 125.009 24.0068 127.734 23.5473L132.69 22.7122L127.508 24.0138C124.234 24.8361 122.726 25.1187 123.412 24.7817C124.129 24.4296 123.569 24.5251 121.762 25.0634C120.198 25.5287 119.407 25.6767 119.918 25.4075C120.595 25.0509 120.114 25.0607 117.932 25.4485C112.825 26.3556 98.0916 28.2195 93.1159 28.5878C92.1689 28.6578 89.1497 28.9114 86.4075 29.1507C79.4719 29.7564 71.9461 30.1761 67.0701 30.2297C65.2355 30.2499 64.1552 30.4033 63.8044 30.6944C63.4177 31.0149 64.9249 31.0705 69.5557 30.9057C76.1193 30.6722 89.9634 29.7169 91.1645 29.4148C91.5482 29.3181 91.9312 29.387 92.0162 29.5681C92.1128 29.7742 91.7996 29.9044 91.1773 29.9172C90.6308 29.9284 88.8423 30.069 87.2023 30.2295C85.5622 30.3899 82.1757 30.6507 79.6765 30.8087C77.1772 30.9668 74.0445 31.3401 72.7139 31.6388L70.2948 32.1812L72.2849 32.1494C73.3794 32.1321 74.945 31.9706 75.7639 31.7907C76.7043 31.5839 77.1219 31.6004 76.8987 31.8352C76.683 32.0619 76.895 32.0481 77.4417 31.7998C78.3228 31.3999 86.1065 30.5763 90.4141 30.4276L92.6065 30.3519L90.7379 30.643C89.7104 30.8031 87.7217 31.0069 86.3188 31.0958C84.9159 31.1847 83.0768 31.4255 82.2316 31.631C81.3246 31.8515 80.7385 31.8599 80.8017 31.6513C80.8677 31.4339 80.6118 31.4615 80.1365 31.7229C79.4674 32.0907 72.9364 32.7962 67.7592 33.0597C67.2306 33.0867 66.6191 33.1468 66.1166 33.2165C65.7947 33.2612 65.518 33.3096 65.3361 33.3559C64.8689 33.4749 64.4205 33.4318 64.3402 33.2605C64.2598 33.0891 64.0559 33.0736 63.888 33.2261C63.5508 33.5313 60.1371 33.7417 59.3535 33.5051C59.082 33.4236 58.4839 33.4526 58.0244 33.5696C57.6784 33.6577 57.2347 33.682 56.9039 33.6408C56.7957 33.6273 56.6999 33.6067 56.6234 33.579C56.3133 33.4671 55.2745 33.5177 54.3158 33.6911C51.2703 34.2431 49.9193 34.2831 50.3909 33.8078C50.6882 33.5083 50.5728 33.5071 49.994 33.804C49.5458 34.0341 48.2387 34.2401 47.0899 34.262C45.9408 34.2836 44.0706 34.4562 42.9339 34.6451C41.3104 34.915 50.4892 34.6855 61.4309 34.1828C62.2871 34.1435 62.5327 34.22 62.1412 34.404C61.6343 34.6425 53.3853 35.1623 49.0015 35.2321C48.7009 35.2368 48.1539 35.2581 47.478 35.2902C46.5117 35.3359 45.2824 35.4034 44.1378 35.4753C43.1774 35.5356 42.2135 35.59 41.4295 35.6293C40.626 35.6695 40.0118 35.6941 39.7841 35.6929C39.1984 35.6891 39.1259 35.7517 39.5282 35.9136C39.8362 36.0378 43.1173 35.979 46.8189 35.7831L58.2458 35.1832C60.8293 35.0489 63.3143 35.0035 63.7679 35.0817C64.2046 35.1574 64.3784 35.196 64.2843 35.2254C64.2206 35.2454 64.0357 35.2612 63.7285 35.2817C63.2531 35.3127 59.661 35.5638 55.7468 35.8389C46.4155 36.4949 27.9965 36.6262 22.7964 36.0742C21.2478 35.91 21.1864 35.9237 21.3782 36.3903C21.463 36.5952 21.5103 37.0284 21.4846 37.352C21.4562 37.7054 21.6134 37.896 21.8778 37.8287C22.1203 37.7669 22.3931 37.8754 22.4843 38.0698C22.6131 38.3446 22.5066 38.3717 22.0069 38.1913C21.1025 37.8659 20.556 38.0683 21.0844 38.5326C21.4457 38.8503 21.3556 38.9013 20.5935 38.8109C20.0809 38.7496 19.7119 38.809 19.7744 38.9422C19.8065 39.0107 19.7105 39.1029 19.5312 39.1957C19.3596 39.2843 19.1123 39.3731 18.8271 39.4422C18.2434 39.5839 17.7667 39.9053 17.768 40.1568C17.7685 40.4084 17.9061 40.4903 18.0729 40.3392C18.2397 40.1883 18.9531 40.3567 19.6567 40.7141C21.0433 41.4181 20.6421 41.7819 18.9336 41.3692C17.798 41.0948 17.2575 41.1762 17.4524 41.592C17.5284 41.754 17.847 41.8211 18.1611 41.7412C18.4744 41.6614 18.9583 41.821 19.2355 42.0965C19.5132 42.3715 20.0498 42.6047 20.4278 42.6145C20.7 42.6215 20.911 42.7152 20.9837 42.8443C21.0116 42.8944 21.0193 42.9499 21.002 43.0076C20.9395 43.214 21.1955 43.5206 21.5704 43.6891C21.8645 43.8207 21.9692 43.9438 21.9302 44.0275C21.8742 44.1457 21.5316 44.1853 21.0289 44.0597C20.7588 43.9923 20.9763 44.0813 21.5114 44.2572C22.0464 44.4331 22.4433 44.7134 22.3928 44.8804C22.343 45.0471 22.7064 45.4676 23.2009 45.815C23.9938 46.372 24.0173 46.4443 23.3927 46.4281C23.0484 46.4195 22.9106 46.4636 22.9796 46.5587C23.0044 46.593 23.0557 46.6338 23.1337 46.6812C23.3812 46.8305 23.3931 47.0007 23.1615 47.0597C22.4812 47.2329 23.0666 48.01 23.9779 48.1438C24.2601 48.1852 24.4312 48.2439 24.4625 48.2995C24.4817 48.3348 24.4454 48.3687 24.3452 48.3964C24.087 48.4673 23.7026 48.4216 23.4914 48.2941C23.2802 48.1666 22.9032 48.1142 22.6528 48.178C22.3263 48.2611 22.3789 48.3584 22.8427 48.5252C23.7517 48.853 23.8665 49.2945 23.0358 49.273C22.5786 49.2611 22.4906 49.3482 22.7808 49.5234C23.0876 49.7083 22.9653 49.7853 22.3883 49.7703C21.9258 49.7583 21.7352 49.7602 21.8322 49.8353C21.9016 49.8886 22.1165 49.9793 22.4841 50.1286C22.9972 50.3377 23.3346 50.6526 23.2328 50.8289C23.1311 51.0054 23.237 50.9882 23.4676 50.7915C23.6982 50.5947 23.7039 50.2728 23.4803 50.0763C23.2566 49.8794 23.2538 49.6729 23.4738 49.6169C23.6946 49.5607 23.9798 49.822 24.1086 50.1968C24.6196 51.6892 25.1212 52.1593 26.3896 52.3367C27.6589 52.5139 27.666 52.5217 26.6157 52.5814C26.0189 52.6151 24.9657 52.4699 24.2765 52.2585C22.8925 51.8347 23.3167 52.1844 25.6107 53.3574C26.4773 53.8006 26.7404 54.0312 26.231 53.9008C25.2863 53.6585 25.243 53.9743 26.1489 54.5088C27.0928 55.0667 26.8049 55.7277 25.6607 55.6278C24.6814 55.5419 24.6812 55.5451 25.6676 55.7855C26.2207 55.9202 26.9548 56.1123 27.2969 56.2126C27.4481 56.2569 27.6327 56.2868 27.816 56.3008C28.048 56.3186 28.2792 56.3106 28.4392 56.2733C28.7567 56.1987 28.7421 56.3902 28.4016 56.7666C28.0948 57.1051 27.6252 57.3453 27.3571 57.3005C27.1824 57.2713 27.1106 57.2926 27.1458 57.3511C27.1663 57.3856 27.2243 57.4331 27.3201 57.4908C27.5676 57.64 27.945 57.63 28.1582 57.4686C28.3722 57.3071 28.3229 57.4449 28.0485 57.7748C27.4153 58.5364 27.538 58.7979 28.4253 58.5783C28.9845 58.4401 29.0372 58.4857 28.6901 58.8071C28.4525 59.0277 28.4663 59.3931 28.7222 59.6179C28.9783 59.843 29.0412 60.0644 28.8624 60.1099C28.574 60.1833 24.6137 60.3229 12.8712 60.6731C8.66409 60.7986 8.23638 60.8961 8.58815 61.6463C8.74004 61.9702 8.65437 62.2886 8.39704 62.3541C8.13971 62.4196 8.46316 62.6807 9.11457 62.934C10.4676 63.4607 10.8134 63.8696 9.88581 63.8457C9.53787 63.8367 9.19354 63.9209 9.11985 64.0328C8.95502 64.2845 10.7228 64.9923 10.9945 64.7829C11.1018 64.6999 14.9101 64.6351 19.4556 64.6392C24.0019 64.6432 27.7899 64.5426 27.8729 64.4153C27.9569 64.2882 28.316 64.2597 28.6716 64.3518C28.8351 64.3942 29.3612 64.4212 30.0934 64.4312C30.9527 64.4431 32.0961 64.4317 33.2693 64.3948C35.4423 64.3263 37.5481 64.3109 37.9482 64.3606C38.1432 64.3847 38.5195 64.38 38.9733 64.353C39.4525 64.3245 40.0182 64.2709 40.5464 64.2001C41.5755 64.062 44.1768 63.8526 46.3269 63.735C48.4768 63.617 51.5598 63.4402 53.1775 63.3417C54.7953 63.2433 56.2569 63.246 56.4246 63.3477C56.5933 63.4494 56.9592 63.3908 57.2374 63.2178C57.5166 63.0448 57.8131 63.0498 57.8972 63.2291C57.9812 63.4084 58.3485 63.479 58.7139 63.386C59.0778 63.2934 59.313 63.3143 59.2346 63.433C59.1572 63.5517 56.3049 63.8477 52.897 64.0908C49.489 64.3336 45.9485 64.6391 45.0296 64.7692C42.6858 65.101 28.7204 65.3653 23.9185 65.1688C21.719 65.0788 19.8019 65.1124 19.6564 65.2439C19.5117 65.375 18.5197 65.4773 17.451 65.4716C16.3828 65.4653 15.7438 65.5371 16.0305 65.6308C16.3174 65.7247 17.3117 65.7889 18.2393 65.7738C19.1677 65.7586 19.8673 65.8383 19.7928 65.9504C19.7193 66.0628 19.0166 66.1527 18.2315 66.1506C16.1365 66.1444 13.6915 66.8282 13.9367 67.3511C14.0462 67.5845 14.3868 67.8173 14.6936 67.8684C15.0393 67.9263 15.0829 67.8599 14.8085 67.6941C14.5646 67.5469 14.555 67.3779 14.7866 67.3189C15.0183 67.26 15.2769 67.3586 15.361 67.5379C15.4567 67.742 15.8662 67.6947 16.453 67.4114C17.001 67.1474 17.3502 67.0977 17.2916 67.2919C17.159 67.7291 19.1082 67.599 19.8813 67.1191C20.252 66.8889 20.4403 66.8858 20.3714 67.1119C20.3026 67.3401 20.6467 67.3259 21.2833 67.0745C22.1126 66.7478 22.2236 66.7636 21.8672 67.1598C21.5035 67.5646 21.5574 67.5829 22.1767 67.2669C22.5891 67.0568 23.7892 66.89 24.8442 66.8959C27.043 66.9084 27.6512 66.8062 27.1569 66.5072C26.9645 66.3921 27.2335 66.2735 27.7541 66.2441L28.6995 66.191L27.9439 66.6489C26.8638 67.3037 27.0418 67.3308 29.0314 66.8154C30.0014 66.5641 30.7382 66.4447 30.6695 66.5506C30.4342 66.9081 47.2488 66.1798 56.2615 65.4421C58.7397 65.2393 60.7334 65.2151 60.6919 65.3882C60.5882 65.8222 59.4479 65.9663 52.5598 66.4152C49.2707 66.6296 46.4637 66.8439 46.3223 66.8912C45.3315 67.2243 56.3001 66.5822 63.065 65.9115C64.5344 65.7657 65.6881 65.7207 65.6286 65.811C65.5193 65.9769 55.6561 67.0852 52.4504 67.2918C44.7305 67.7892 28.1541 68.4168 22.0237 68.4436C19.9446 68.4528 17.5088 68.553 16.6099 68.6665C15.1908 68.8451 15.0404 68.929 15.4678 69.3042C15.8644 69.6526 15.7692 69.7483 14.9795 69.7977C14.0886 69.8538 14.0792 69.8784 14.8765 70.0679C15.3593 70.1825 15.852 70.4853 15.9718 70.7408C16.0916 70.9964 16.5005 71.1203 16.8806 71.016C17.6518 70.8048 29.4572 70.919 29.3145 71.1364C29.2647 71.212 27.3294 71.4424 25.0142 71.6475C22.6991 71.853 20.2766 72.0689 19.6299 72.1281C18.9839 72.1868 18.3968 72.1115 18.3258 71.9601C18.2549 71.8089 18.0576 71.8113 17.8879 71.9652C17.7174 72.1194 15.9992 72.3247 14.0693 72.422C10.6498 72.5938 10.5531 72.6159 10.2578 73.2927C10.1619 73.5132 10.1288 73.771 10.1552 73.9925C10.1747 74.1548 10.226 74.2975 10.3084 74.3916C11.6329 75.9095 11.8672 76.3018 11.5026 76.3946C10.5798 76.6295 11.4523 77.0056 13.1947 77.1246C14.2196 77.1945 15.2113 77.3442 15.3983 77.457C15.5853 77.57 14.04 77.4927 11.9639 77.2854C8.17564 76.9067 6.04593 76.9137 9.35353 77.2937C10.6367 77.4411 11.2386 77.5687 11.1256 77.6597C11.0661 77.7074 10.8114 77.7452 10.3569 77.7706C10.0906 77.7855 9.87537 77.8424 9.74948 77.9209C9.64657 77.9854 9.60377 78.0649 9.64267 78.1478C9.78626 78.4541 10.4098 78.4625 11.1331 78.1676C11.3026 78.0984 11.3916 78.2066 11.3309 78.4076C11.2704 78.6089 11.4398 78.7177 11.708 78.6494C11.9762 78.5811 12.1301 78.6253 12.0499 78.7476C11.9699 78.8701 9.99316 78.7802 7.65713 78.5476C3.75653 78.1594 1.75707 78.099 3.53395 78.4234C4.14125 78.5345 4.13223 78.595 3.4796 78.7826C2.77795 78.9844 2.80698 79.0129 3.75607 79.0474C4.34057 79.069 4.94555 78.971 5.10204 78.8296C5.25781 78.6886 5.84661 78.6711 6.41183 78.7908C7.71157 79.0664 7.16968 79.6516 5.7694 79.4845C5.06612 79.4007 4.88776 79.4416 5.18069 79.6191C5.54373 79.8383 5.52566 79.9427 5.04623 79.9447C4.76833 79.946 4.33587 79.9127 3.73341 79.8472C3.39868 79.8108 3.09675 79.7904 2.86677 79.7862C2.57367 79.781 2.39796 79.8016 2.41974 79.8481C2.4587 79.9311 3.96355 80.1468 5.76358 80.3276C8.9772 80.6501 10.1732 80.5559 7.58977 80.1837C6.3252 80.0016 6.31487 79.9907 7.32109 79.8984C7.89661 79.8452 8.56969 79.5713 8.8176 79.289C9.22303 78.8285 9.23497 78.8503 8.93925 79.4983C8.63838 80.1576 8.66443 80.1872 9.23402 79.8393C9.5768 79.6294 9.81443 79.5998 9.76262 79.7733C9.70998 79.9468 10.0206 80.097 10.4529 80.1077C12.0353 80.1454 17.2459 80.9294 17.1269 81.1118C17.0587 81.215 15.7252 81.1699 14.163 81.012C11.0234 80.6951 10.8402 80.7015 11.0395 81.1266C11.2764 81.6318 13.096 82.1346 13.6311 81.8431C13.9118 81.69 14.0523 81.7132 13.9423 81.8942C13.8339 82.075 14.6527 82.3254 15.7623 82.4498C16.8729 82.5744 17.5983 82.7296 17.3748 82.7947C17.1512 82.8599 13.45 82.5574 9.1508 82.1226C4.85155 81.6879 1.38156 81.4218 1.44073 81.5313C1.68186 81.9769 3.34098 82.5828 5.04427 82.8468C9.13019 83.4799 14.6178 84.0919 17.5563 84.2414C20.23 84.3777 20.5745 84.4664 19.9354 84.8536C19.4088 85.1726 18.507 85.2371 16.8891 85.0716C15.625 84.9425 14.454 84.8784 14.2858 84.9298C14.1175 84.981 15.0166 85.1373 16.2838 85.2767C17.8017 85.444 18.4554 85.6503 18.2007 85.8812C17.913 86.1416 18.0033 86.236 18.5522 86.2502C19.0297 86.2627 19.138 86.1782 18.86 86.0103C18.616 85.8629 18.6628 85.7494 18.9698 85.7471C19.2665 85.7451 19.5824 85.8693 19.6711 86.0233C19.8665 86.3602 23.7165 86.5421 24.7322 86.2621C25.3209 86.0997 25.4009 86.1646 25.1696 86.6197C24.9224 87.1059 24.7647 87.137 23.9129 86.8682C23.3775 86.6989 22.8752 86.6577 22.7969 86.7766C22.7187 86.8956 23.2732 87.1519 24.0284 87.3464L25.4018 87.6993L25.8718 86.9145C26.1305 86.4826 26.3807 86.1218 26.4278 86.1125C26.6659 86.0654 39.8313 85.7097 43.6804 85.6467C48.4475 85.5684 63.8135 84.5144 64.94 84.1888C65.3186 84.0792 63.8658 84.0821 61.7133 84.1945C57.3481 84.4229 58.2424 84.2644 66.0332 83.4299C72.5303 82.7338 82.0598 81.4223 85.9146 80.6939C87.4901 80.3959 91.3821 79.7153 94.5622 79.1812ZM99.871 76.7248C99.0078 76.9735 98.3497 77.2814 98.4095 77.4089C98.4393 77.4725 98.6437 77.4851 98.9495 77.4543C99.2586 77.423 99.6705 77.3476 100.111 77.2356C100.986 77.0127 101.644 76.7049 101.572 76.5515C101.54 76.4825 101.367 76.4604 101.108 76.4797C100.791 76.503 100.346 76.588 99.871 76.7248ZM93.0567 78.3147C93.8603 78.0445 94.4811 77.9467 94.4361 78.0976C94.3901 78.2483 95.1158 78.1776 96.048 77.9403C97.2367 77.6377 97.5749 77.4478 97.1783 77.3053C96.4202 77.0322 90.6685 78.2473 91.2003 78.5685C91.4165 78.6993 92.2524 78.5853 93.0567 78.3147ZM89.9535 78.6064C89.5389 78.6295 88.8209 78.8094 88.3586 79.0058C88.2164 79.0663 88.1499 79.1064 88.1516 79.1266C88.1561 79.1716 88.5059 79.1157 89.1133 78.9637C89.9902 78.744 90.369 78.583 89.9535 78.6064ZM103.254 75.1698C103.081 75.1867 102.874 75.2554 102.712 75.3594C102.439 75.5342 102.565 75.58 103.036 75.4759C103.461 75.3819 103.663 75.2527 103.485 75.1886C103.425 75.1665 103.344 75.1611 103.254 75.1698ZM86.8137 79.1575C86.8372 79.1278 86.778 79.1147 86.6262 79.1233C86.2081 79.1467 85.5815 79.3062 85.233 79.478C84.8844 79.6494 85.2262 79.6303 85.9927 79.4352C86.4802 79.3111 86.7727 79.2092 86.8137 79.1575ZM104.007 74.3692C103.592 74.3924 102.874 74.5723 102.412 74.7687C101.95 74.9652 102.29 74.9461 103.167 74.7265C104.044 74.5068 104.423 74.3458 104.007 74.3692ZM81.9586 78.6917C81.7806 78.6276 81.432 78.7045 81.185 78.8626C80.9119 79.0374 81.0387 79.0832 81.5094 78.9791C81.9344 78.885 82.1366 78.7558 81.9586 78.6917ZM49.247 85.1022C49.9375 85.0843 50.8381 85.0452 51.8443 84.9863C53.1191 84.9117 54.372 84.8185 55.3284 84.7311C56.1594 84.655 56.7664 84.5834 56.9702 84.5319C57.4083 84.4214 55.6181 84.4507 52.9906 84.597C50.3633 84.7435 48.0573 84.9479 47.8647 85.0513C47.7535 85.111 48.3038 85.1265 49.247 85.1022ZM44.747 85.1598C44.7456 85.2069 44.9268 85.2426 45.2824 85.2622C45.7854 85.2901 46.466 85.2439 46.7941 85.1604C47.1704 85.0646 47.0536 84.9899 46.4765 84.9582C45.9735 84.9303 45.2929 84.9765 44.9648 85.06C44.8202 85.0968 44.7481 85.1306 44.747 85.1598ZM97.9377 70.0093C97.7597 69.9452 97.4111 70.0221 97.1641 70.1802C96.891 70.355 97.0178 70.4008 97.4885 70.2967C97.7952 70.2289 97.9862 70.1425 98.001 70.0758C98.0073 70.05 97.987 70.0272 97.9377 70.0093ZM101.201 64.3575C101.967 64.1623 102.252 64.0219 101.834 64.0456C101.416 64.069 100.79 64.2285 100.441 64.4003C100.092 64.5717 100.434 64.5526 101.201 64.3575ZM95.5002 65.5035C96.0475 65.3642 96.2401 65.2405 95.9282 65.2285C95.6162 65.2164 95.1684 65.3304 94.9331 65.4818C94.6977 65.6332 94.9529 65.6429 95.5002 65.5035ZM92.8437 65.6137C92.7031 65.6444 92.5532 65.7033 92.4287 65.7829C92.1556 65.9577 92.2824 66.0035 92.7531 65.8994C92.8603 65.8757 92.9534 65.8497 93.0298 65.8232C93.2557 65.7444 93.3353 65.6601 93.2023 65.6121C93.1134 65.5803 92.9826 65.5834 92.8437 65.6137ZM69.682 68.8856C69.5777 68.9229 69.4833 68.9666 69.4097 69.0138C69.2846 69.0941 69.2983 69.1344 69.4191 69.134C69.5268 69.1336 69.7195 69.101 69.9768 69.0355C70.5242 68.8961 70.7168 68.7724 70.4048 68.7604C70.1903 68.752 69.9115 68.8033 69.682 68.8856ZM67.8485 69.2477C68.3959 69.1084 68.5885 68.9847 68.2765 68.9727C67.9645 68.9606 67.5167 69.0746 67.2814 69.2261C67.0461 69.3774 67.3012 69.3871 67.8485 69.2477ZM63.3068 69.5392C62.6813 69.6937 62.7475 69.7328 63.6138 69.7189C64.2219 69.7091 65.1661 69.5847 65.712 69.4425C66.6037 69.2098 66.5726 69.1917 65.405 69.2628C64.6901 69.3065 63.7459 69.4308 63.3068 69.5392ZM59.4457 69.857C58.8152 70.0175 58.8794 70.0562 59.7553 70.0421C60.3633 70.0323 61.2193 69.9333 61.657 69.8218C62.2875 69.6613 62.2233 69.6226 61.3474 69.6367C60.7394 69.6465 59.8834 69.7455 59.4457 69.857ZM47.2762 69.2465C50.7321 69.1263 55.7071 68.8326 58.3319 68.5934C60.9575 68.3541 63.3624 68.1026 63.6781 68.0335C65.0353 67.7377 63.4377 67.7677 58.3394 68.1344C50.387 68.7059 39.9596 69.0935 28.6344 69.2387C17.3292 69.3838 15.8292 69.4864 16.1158 70.0977C16.308 70.5076 17.6985 70.6427 18.2952 70.3099C18.4639 70.2151 19.4187 70.1744 20.4147 70.22C21.4115 70.2653 24.0094 70.2545 26.1873 70.1963C28.3651 70.1378 31.2896 70.0759 32.6854 70.059C34.0812 70.042 35.8394 69.9425 36.592 69.8382C38.4247 69.5838 39.8861 69.5028 47.2762 69.2465ZM13.099 78.6298C12.5053 78.7851 12.5112 78.8311 13.1355 78.9451C14.055 79.1132 14.1001 79.1017 13.9316 78.7424C13.8557 78.5805 13.4812 78.5298 13.099 78.6298ZM192.013 33.517C191.705 33.5048 191.166 33.6367 190.813 33.8101C190.461 33.9834 190.712 33.9934 191.372 33.832C192.032 33.6706 192.319 33.5291 192.013 33.517ZM195.418 32.4843C195.966 32.3449 196.158 32.2212 195.846 32.2092C195.534 32.1971 195.087 32.3111 194.851 32.4626C194.616 32.6139 194.871 32.6236 195.418 32.4843ZM63.8701 65.0395C62.6132 64.9702 61.9843 65.1303 62.875 65.2928C63.2767 65.3663 63.8715 65.3505 64.1953 65.2579C64.5837 65.1471 64.4732 65.0728 63.8701 65.0395ZM12.3105 77.711C11.9096 77.7005 11.7727 77.7908 11.9908 77.9219C12.1111 77.9948 12.2751 78.0456 12.4315 78.0656C12.5463 78.0801 12.6575 78.078 12.7446 78.0559C13.3168 77.9102 13.0919 77.7312 12.3105 77.711ZM200.396 27.8968C201.163 27.7016 201.448 27.5612 201.03 27.5849C200.612 27.6083 199.985 27.7678 199.637 27.9396C199.288 28.1111 199.63 28.092 200.396 27.8968ZM203.654 20.336C203.347 20.3238 202.807 20.4557 202.455 20.6291C202.103 20.8024 202.354 20.8124 203.014 20.651C203.417 20.5525 203.681 20.4613 203.756 20.4024C203.804 20.3649 203.774 20.3406 203.654 20.336ZM215.721 13.3259C215.543 13.2618 215.194 13.3387 214.947 13.4968C214.767 13.612 214.761 13.671 214.912 13.6683C214.991 13.6668 215.111 13.6489 215.272 13.6133C215.697 13.5192 215.899 13.39 215.721 13.3259ZM44.4606 53.2931C44.3146 53.5144 53.3317 53.7901 55.4783 53.6298C57.7705 53.4589 58.6431 53.1949 56.7761 53.2368C55.9271 53.2562 55.0835 53.1906 54.901 53.0909C54.7178 52.9916 53.7144 52.9897 52.6711 53.0866C51.6271 53.1836 49.3782 53.2315 47.6728 53.193C45.9672 53.1543 44.5219 53.1993 44.4606 53.2931ZM42.1524 53.1959C42.2072 53.2403 42.3487 53.288 42.5601 53.3267C42.9618 53.4002 43.4698 53.4145 43.689 53.3587C43.9082 53.3029 43.7579 53.1975 43.3562 53.124C42.9545 53.0505 42.4465 53.0363 42.2273 53.0921C42.1231 53.1187 42.1024 53.1561 42.1524 53.1959ZM192.66 13.8169C192.753 13.5114 188.493 14.7747 188.211 15.1363C188.148 15.218 189.1 15.0293 190.328 14.7168C191.556 14.404 192.605 13.9991 192.66 13.8169ZM180.734 16.6306C180.556 16.5665 180.208 16.6433 179.961 16.8015C179.687 16.9762 179.814 17.022 180.285 16.9179C180.71 16.8239 180.912 16.6947 180.734 16.6306ZM171.64 18.5833C171.118 18.6383 170.221 18.8645 169.648 19.086C169.075 19.3077 169.502 19.2628 170.598 18.9864C171.296 18.8103 171.74 18.6727 171.835 18.6102C171.889 18.5746 171.83 18.5634 171.64 18.5833ZM173.601 18.264C174.148 18.1247 174.341 18.001 174.029 17.989C173.717 17.9769 173.269 18.0909 173.034 18.2423C172.798 18.3937 173.054 18.4034 173.601 18.264ZM177.894 16.5691C177.475 16.6786 176.926 16.9708 176.675 17.219C176.342 17.5482 176.515 17.5346 177.32 17.1683C178.67 16.5532 178.908 16.3041 177.894 16.5691ZM184.577 15.3227C184.508 15.2981 184.415 15.2943 184.312 15.3079C184.146 15.3294 183.956 15.396 183.803 15.4936C183.53 15.6684 183.657 15.7142 184.127 15.6101C184.552 15.5161 184.755 15.3868 184.577 15.3227ZM180.617 16.1237C181.384 15.9286 181.669 15.7882 181.251 15.8118C180.833 15.8352 180.206 15.9948 179.858 16.1665C179.509 16.338 179.851 16.3189 180.617 16.1237ZM196.885 10.1841C196.471 10.2073 195.753 10.3872 195.29 10.5836C194.828 10.7801 195.168 10.7609 196.045 10.5414C196.922 10.3217 197.301 10.1607 196.885 10.1841ZM143.577 23.6009C144.124 23.4616 144.317 23.3379 144.005 23.3259C143.693 23.3137 143.245 23.4278 143.01 23.5792C142.775 23.7306 143.03 23.7403 143.577 23.6009ZM145.796 22.8891C145.618 22.825 145.269 22.9019 145.022 23.06C144.749 23.2348 144.876 23.2806 145.347 23.1765C145.772 23.0825 145.974 22.9532 145.796 22.8891ZM163.062 18.5935C164.266 18.2869 164.732 18.1066 164.099 18.1923C163.466 18.2781 162.48 18.5291 161.91 18.7497C161.34 18.9703 161.858 18.9001 163.062 18.5935ZM173.731 15.3539C173.153 15.5041 172.583 15.6658 172.13 15.8115C171.447 16.031 171.573 16.0391 172.324 15.87C172.693 15.7868 173.213 15.6609 173.862 15.496C175.833 14.9953 176.666 14.7274 175.713 14.9009C175.184 14.9973 174.451 15.1666 173.731 15.3539ZM142.124 22.6093C140.174 23.3603 140.215 23.3597 143.989 22.5789C149.466 21.4459 156.243 19.7998 155.917 19.6822C155.764 19.6278 153.215 20.119 150.25 20.7742C147.286 21.4297 144.694 21.9379 144.49 21.9037C144.285 21.8699 143.221 22.1872 142.124 22.6093ZM169.402 16.2198C169.224 16.1557 168.876 16.2325 168.629 16.3907C168.356 16.5655 168.482 16.6112 168.953 16.5072C169.378 16.4131 169.58 16.2839 169.402 16.2198ZM136.345 23.6171C133.804 24.2448 133.437 24.3886 134.745 24.2446C137.143 23.981 138.8 23.5836 139.252 23.1637C139.465 22.9654 138.157 23.1696 136.345 23.6171ZM124.439 26.496C124.986 26.3567 125.179 26.233 124.867 26.221C124.555 26.2089 124.107 26.3229 123.872 26.4743C123.636 26.6257 123.891 26.6354 124.439 26.496ZM129.425 24.9885C129.148 25.0596 128.868 25.1498 128.647 25.2438C128.184 25.4404 128.524 25.4212 129.401 25.2017C130.278 24.982 130.657 24.821 130.241 24.8444C130.025 24.8564 129.726 24.9113 129.425 24.9885ZM151.073 19.6317C154.904 18.6563 156.451 18.2131 154.51 18.6466C152.569 19.0806 149.434 19.8786 147.544 20.4201C145.654 20.962 147.242 20.6071 151.073 19.6317ZM103.771 30.4061C105.406 30.235 108.228 29.8386 110.041 29.5249C111.855 29.2114 113.492 28.9361 113.679 28.9131C113.867 28.89 113.847 28.7667 113.636 28.6393C113.425 28.5118 112.499 28.593 111.578 28.8198C109.32 29.3755 102.912 30.2468 103.092 29.9728C103.171 29.8525 102.687 29.9708 102.017 30.2358C100.962 30.6523 101.198 30.6752 103.771 30.4061ZM122.31 26.7083C122.858 26.569 123.05 26.4452 122.738 26.4333C122.426 26.4211 121.979 26.5351 121.743 26.6866C121.508 26.8379 121.763 26.8476 122.31 26.7083ZM88.5669 34.8228C88.3889 34.7587 88.0402 34.8355 87.7933 34.9937C87.5202 35.1684 87.6469 35.2142 88.1177 35.1101C88.5427 35.0161 88.7449 34.8869 88.5669 34.8228ZM165.568 14.9621C165.167 14.9516 165.031 15.0419 165.249 15.173C165.457 15.2991 165.796 15.3594 166.002 15.307C166.575 15.1613 166.35 14.9823 165.568 14.9621ZM85.9724 35.0653C85.8652 35.0985 85.758 35.1464 85.665 35.2059C85.487 35.32 85.479 35.3791 85.6262 35.3774C85.7041 35.3766 85.8262 35.3585 85.9894 35.3224C86.4144 35.2284 86.6166 35.0992 86.4386 35.0351C86.3276 34.9951 86.1501 35.01 85.9724 35.0653ZM119.476 26.6237C119.298 26.5596 118.95 26.6365 118.703 26.7946C118.43 26.9694 118.556 27.0152 119.027 26.9111C119.294 26.8521 119.473 26.7793 119.525 26.7175C119.556 26.6805 119.542 26.6476 119.476 26.6237ZM154.664 17.7878C155.43 17.5926 155.715 17.4522 155.297 17.4758C154.879 17.4992 154.253 17.6588 153.904 17.8305C153.555 18.002 153.897 17.9829 154.664 17.7878ZM112.382 28.0834C112.074 28.0713 111.535 28.2032 111.182 28.3765C110.83 28.5498 111.081 28.5598 111.741 28.3984C112.401 28.2371 112.688 28.0956 112.382 28.0834ZM135.012 22.4391C136.216 22.1325 136.683 21.9521 136.049 22.0379C135.416 22.1237 134.43 22.3746 133.86 22.5953C133.29 22.8159 133.808 22.7457 135.012 22.4391ZM109.419 28.6722C109.966 28.5328 110.159 28.4091 109.847 28.3971C109.535 28.385 109.087 28.499 108.852 28.6505C108.616 28.8018 108.871 28.8115 109.419 28.6722ZM79.6557 35.7732C79.4776 35.7091 79.129 35.786 78.8821 35.9441C78.7207 36.0473 78.6985 36.1057 78.8053 36.1144C78.8787 36.1207 79.0141 36.1031 79.2065 36.0606C79.4312 36.0109 79.5938 35.9512 79.6708 35.8965C79.7394 35.8478 79.7394 35.8034 79.6557 35.7732ZM140.783 19.8984C140.21 20.0477 140.182 20.101 140.789 20.0306C142.923 19.7828 146.569 19.0075 146.21 18.8776C146.06 18.8241 144.398 19.1056 142.518 19.5033C141.734 19.669 141.148 19.8032 140.783 19.8984ZM149.124 18.0698C148.816 18.0577 148.277 18.1896 147.924 18.3629C147.572 18.5362 147.823 18.5462 148.483 18.3848C148.82 18.3024 149.06 18.2251 149.173 18.1676C149.281 18.1127 149.274 18.0757 149.124 18.0698ZM180.531 10.2377C181.078 10.0983 181.271 9.9746 180.959 9.96262C180.647 9.95049 180.199 10.0645 179.964 10.216C179.728 10.3673 179.983 10.377 180.531 10.2377ZM84.1067 32.2986C83.9648 32.5137 89.6128 31.9089 95.6149 31.0663C97.6839 30.776 100.005 30.3799 100.772 30.1859C102.038 29.8663 101.991 29.8534 100.261 30.0476C94.5206 30.6924 84.2189 32.1277 84.1067 32.2986ZM108.551 27.7914C108.695 27.7947 108.983 27.7748 109.424 27.7341C109.887 27.6914 110.473 27.6104 111.015 27.5184C111.435 27.447 111.828 27.369 112.116 27.2971C113.113 27.0477 113.028 27.0249 111.606 27.1599C110.668 27.2488 109.456 27.4455 108.914 27.5967C108.458 27.7241 108.326 27.7862 108.551 27.7914ZM138.045 20.3649C137.923 20.0932 134.997 20.8836 133.501 21.5923C132.756 21.9456 133.322 21.8677 135.276 21.3488C136.854 20.9295 138.101 20.4869 138.045 20.3649ZM131.124 21.7016C130.93 21.8016 130.738 21.9124 130.582 22.0179L129.904 22.4735L130.708 22.2871C131.15 22.1847 131.72 21.9037 131.975 21.6632C132.386 21.2745 132.372 21.2447 131.849 21.3941C131.661 21.4476 131.391 21.5641 131.124 21.7016ZM144.991 18.3967C144.863 18.4379 144.746 18.4891 144.659 18.5451C144.424 18.6965 144.679 18.7062 145.227 18.5668C145.774 18.4275 145.967 18.3038 145.655 18.2918C145.458 18.2842 145.208 18.3265 144.991 18.3967ZM148.052 17.6836C147.744 17.6715 147.204 17.8034 146.852 17.9767C146.5 18.15 146.751 18.16 147.411 17.9987C148.07 17.8373 148.358 17.6958 148.052 17.6836ZM92.5738 29.501C92.2855 29.9402 92.6872 29.9358 97.9708 29.439C100.787 29.1745 104.166 28.683 105.479 28.3471L107.866 27.7367L103.832 28.1609C101.614 28.3942 99.2323 28.7184 98.5404 28.8814C97.8483 29.0443 96.2614 29.1919 95.0131 29.2095C93.7648 29.2274 92.6679 29.3583 92.5738 29.501ZM71.5405 36.521C71.3625 36.4569 71.014 36.5339 70.7669 36.6919C70.4938 36.8666 70.6206 36.9124 71.0913 36.8083C71.5163 36.7143 71.7185 36.5851 71.5405 36.521ZM136.026 20.0759C135.611 20.0991 134.893 20.279 134.431 20.4754C133.968 20.6719 134.308 20.6528 135.185 20.4332C136.062 20.2135 136.441 20.0525 136.026 20.0759ZM43.641 38.5285C44.6121 38.6712 51.6528 38.3379 59.769 37.765C63.4459 37.5054 66.7133 37.2411 67.0316 37.1776C68.6314 36.8572 66.3622 36.9361 58.9363 37.4591C54.4404 37.776 49.2887 38.0438 47.4896 38.0543C44.1502 38.0739 42.1905 38.3154 43.641 38.5285ZM99.2643 26.4964C100.466 26.4471 101.926 26.3535 102.508 26.2881L103.884 26.1337C104.058 26.1139 104.146 25.9799 104.079 25.836C103.95 25.5618 102.603 25.6734 99.1461 26.2443L97.0784 26.5859L99.2643 26.4964ZM90.9801 27.6167C90.8021 27.5526 90.4536 27.6296 90.2065 27.7876C90.0432 27.8921 90.0227 27.9504 90.1334 27.9583C90.2081 27.9636 90.3417 27.946 90.5309 27.9041C90.8046 27.8436 90.986 27.7684 91.033 27.7053C91.0585 27.6706 91.0431 27.6396 90.9801 27.6167ZM83.0043 28.2217C82.4634 28.3784 82.5095 28.423 83.2555 28.4641C84.4793 28.5315 84.4933 28.528 84.0516 28.2615C83.9277 28.1866 83.7137 28.1495 83.4847 28.1531C83.3232 28.1558 83.1545 28.1783 83.0043 28.2217Z" fill="#6EB600"/>
<path d="M165.695 58.8901C168.261 58.2367 162.634 59.6693 165.695 58.8901Z" fill="#6EB600"/>
<path d="M91.6772 80.417C91.538 80.4598 91.4104 80.5144 91.3168 80.5746C91.0815 80.7259 91.3366 80.7356 91.884 80.5962C92.4313 80.4569 92.6239 80.3332 92.3119 80.3212C92.124 80.3138 91.887 80.3523 91.6772 80.417Z" fill="#6EB600"/>
<path d="M89.5861 80.7048C89.4081 80.6407 89.0594 80.7175 88.8125 80.8757C88.5394 81.0504 88.6661 81.0962 89.1369 80.9921C89.5618 80.8981 89.7641 80.7689 89.5861 80.7048Z" fill="#6EB600"/>
<path d="M17.9884 97.8458C18.5592 97.97 18.4377 98.0412 17.4639 98.1526L16.1952 98.2976L17.5846 98.41C19.1748 98.5384 20.1379 98.4025 19.0473 98.2036C18.3982 98.0849 18.3828 98.0521 18.9093 97.9092C19.1571 97.8419 19.2849 97.7991 19.2831 97.7599C19.2809 97.7162 19.1148 97.6774 18.7712 97.6148C17.7738 97.4327 17.0591 97.6437 17.9884 97.8458Z" fill="#6EB600"/>
<path d="M85.8656 81.3224C85.6876 81.2583 85.339 81.3351 85.092 81.4933C84.8189 81.6681 84.9457 81.7138 85.4164 81.6098C85.8414 81.5157 86.0436 81.3865 85.8656 81.3224Z" fill="#6EB600"/>
<path d="M77.0924 82.5673C76.9144 82.5032 76.5658 82.58 76.3188 82.7382C76.1341 82.8565 76.1324 82.9158 76.2965 82.9095C76.375 82.9062 76.491 82.8882 76.6432 82.8546C77.0682 82.7606 77.2704 82.6314 77.0924 82.5673Z" fill="#6EB600"/>
<path d="M12.0166 97.4632C13.3935 97.5246 14.951 97.6392 15.4776 97.7174C16.6264 97.8882 17.0987 97.7931 17.6538 97.2787C17.9593 96.9949 17.7392 96.906 16.829 96.9451C16.145 96.9749 15.4366 97.0696 15.2542 97.1556C15.071 97.2419 13.9384 97.2576 12.7368 97.1915C11.5359 97.1247 10.3192 97.1337 10.0333 97.2106C9.74744 97.2878 10.6396 97.4013 12.0166 97.4632Z" fill="#6EB600"/>
<path d="M74.3763 82.9122C74.0686 82.9001 73.5291 83.0319 73.177 83.2053C72.9825 83.301 72.9718 83.3468 73.1122 83.3417C73.2259 83.3375 73.4397 83.2996 73.7355 83.2272C74.3952 83.0659 74.6831 82.9243 74.3763 82.9122Z" fill="#6EB600"/>
<path d="M71.8499 83.2258C71.5422 83.2137 71.0028 83.3456 70.6507 83.5189C70.2985 83.6922 70.5495 83.7022 71.2092 83.5408C71.8689 83.3795 72.1567 83.238 71.8499 83.2258Z" fill="#6EB600"/>
<path d="M68.8869 83.8146C69.4342 83.6752 69.6269 83.5515 69.3149 83.5395C69.0029 83.5274 68.5551 83.6414 68.3198 83.7929C68.0844 83.9442 68.3396 83.9539 68.8869 83.8146Z" fill="#6EB600"/>
<path d="M67.3314 83.8099C67.3527 83.7776 67.3071 83.7564 67.1866 83.7518C66.8746 83.7397 66.4268 83.8537 66.1915 84.0051C65.9561 84.1565 66.2113 84.1662 66.7586 84.0268C67.0945 83.9413 67.2973 83.8615 67.3314 83.8099Z" fill="#6EB600"/>
<path d="M24.7264 90.8356C24.5072 90.8914 24.6575 90.9967 25.0592 91.0701C25.338 91.121 25.6671 91.1436 25.9167 91.1339C26.027 91.1297 26.1212 91.1192 26.1881 91.1022C26.4073 91.0463 26.257 90.9409 25.8553 90.8675C25.4536 90.794 24.9456 90.7798 24.7264 90.8356Z" fill="#6EB600"/>
<path d="M19.4877 91.8344C19.2037 91.91 19.3078 92.013 19.7465 92.0931C20.683 92.2641 20.8206 92.2291 20.3436 91.9411C20.1324 91.8137 19.747 91.7657 19.4877 91.8344Z" fill="#6EB600"/>
<path d="M21.4936 88.6924C21.2743 88.7482 21.4247 88.8535 21.8264 88.927C22.228 89.0004 22.7361 89.0148 22.9553 88.959C23.1745 88.9032 23.0241 88.7977 22.6224 88.7243C22.2208 88.6508 21.7128 88.6366 21.4936 88.6924Z" fill="#6EB600"/>
<path d="M16.86 89.2076C16.6529 89.2576 16.9189 89.398 17.451 89.5195C17.9832 89.6412 18.475 89.6563 18.5418 89.5537C18.685 89.3358 17.4136 89.0742 16.86 89.2076Z" fill="#6EB600"/>
<path d="M9.71188 88.7475C9.38381 88.831 10.4908 89.0537 12.1719 89.2427C13.8531 89.4317 15.498 89.5174 15.8261 89.4338C16.1542 89.3503 15.0472 89.1276 13.3661 88.9387C11.6849 88.7497 10.04 88.664 9.71188 88.7475Z" fill="#6EB600"/>
<path d="M14.5202 88.4399C14.7556 88.4853 15.0664 88.5339 15.4253 88.5792C17.2922 88.8152 17.3185 88.8157 17.2282 88.6231C17.1725 88.5043 15.9848 88.3358 15.0724 88.272C14.6109 88.2398 14.2194 88.2346 14.0806 88.2762C13.976 88.3075 14.1576 88.3699 14.5202 88.4399Z" fill="#6EB600"/>
<path d="M11.5468 87.0948C11.6576 87.2477 13.363 87.5051 15.3361 87.6669C19.1989 87.9839 19.8019 87.9762 19.2068 87.6164C18.9956 87.489 19.0545 87.3196 19.3384 87.2401C19.6214 87.1608 19.2599 87.0226 18.533 86.9331C17.7811 86.8403 16.8955 86.9449 16.4748 87.176C15.9303 87.4754 15.7727 87.4624 15.875 87.1256C15.974 86.7985 15.8457 86.7735 15.4204 87.0376C15.2155 87.1649 15.0725 87.2218 14.9956 87.2082C14.9284 87.1965 14.9116 87.1311 14.9473 87.0124C14.9921 86.8628 14.8874 86.7063 14.6961 86.6029C14.6112 86.5572 14.5102 86.5218 14.3974 86.5021C13.2936 86.3085 12.9765 86.5285 13.8089 86.91C14.4944 87.2249 14.4892 87.2658 13.7635 87.2512C13.3102 87.242 12.8702 87.2522 12.7855 87.2738C12.7008 87.2953 12.6407 87.1059 12.6524 86.8525C12.6648 86.5525 12.1615 86.3958 11.2013 86.4025C10.0172 86.4108 9.88852 86.4518 10.5384 86.6146C10.9821 86.7257 11.4359 86.9418 11.5468 87.0948Z" fill="#6EB600"/>
<path d="M190.831 40.1934C190.932 40.1988 191.135 40.1665 191.413 40.0957C191.96 39.9563 192.153 39.8326 191.841 39.8206C191.529 39.8085 191.081 39.9225 190.846 40.074C190.73 40.1483 190.733 40.1884 190.831 40.1934Z" fill="#6EB600"/>
<path d="M12.9597 84.7965C12.5588 84.7861 12.4219 84.8763 12.64 85.0074C12.8488 85.1335 13.1878 85.1938 13.3938 85.1414C13.966 84.9957 13.7411 84.8167 12.9597 84.7965Z" fill="#6EB600"/>
<path d="M194.202 37.498C193.826 37.5913 193.438 37.7084 193.139 37.824C192.566 38.0457 192.993 38.0008 194.088 37.7245C194.629 37.5879 195.018 37.4744 195.209 37.4013C195.405 37.3264 195.395 37.2935 195.131 37.3213C194.881 37.3475 194.546 37.4129 194.202 37.498Z" fill="#6EB600"/>
<path d="M203.64 32.2216C203.462 32.1575 203.113 32.2344 202.866 32.3925C202.593 32.5673 202.72 32.6131 203.191 32.509C203.616 32.4149 203.818 32.2857 203.64 32.2216Z" fill="#6EB600"/>
<path d="M206.288 31.2178C206.11 31.1537 205.762 31.2305 205.515 31.3887C205.242 31.5635 205.368 31.6092 205.839 31.5052C206.264 31.4111 206.466 31.2819 206.288 31.2178Z" fill="#6EB600"/>
<path d="M199.765 31.5602C199.587 31.4961 199.239 31.5729 198.992 31.7311C198.719 31.9059 198.845 31.9516 199.316 31.8476C199.741 31.7535 199.943 31.6243 199.765 31.5602Z" fill="#6EB600"/>
<path d="M201.756 31.0535C201.578 30.9894 201.229 31.0662 200.982 31.2244C200.709 31.3992 200.836 31.4449 201.306 31.3409C201.731 31.2468 201.934 31.1176 201.756 31.0535Z" fill="#6EB600"/>
<path d="M8.14193 77.9094C7.9227 77.9652 7.91644 78.1152 8.12762 78.2426C8.3388 78.37 8.69094 78.4288 8.9094 78.3731C9.02291 78.3442 9.07927 78.29 9.07829 78.2267C9.07681 78.1678 9.02556 78.1012 8.92371 78.0399C8.89079 78.0198 8.85432 78.0014 8.81527 77.985C8.60513 77.8969 8.32618 77.8625 8.14193 77.9094Z" fill="#6EB600"/>
<path d="M1.21272 78.3319C0.436819 78.2027 0.218666 78.4316 0.78927 78.7762C1.01832 78.9139 1.35135 78.8947 1.52962 78.733C1.73976 78.5427 1.62743 78.4015 1.21272 78.3319Z" fill="#6EB600"/>
<path d="M205.076 26.6702C205.085 26.6425 205.066 26.6178 205.013 26.5987C204.835 26.5345 204.487 26.6114 204.24 26.7695C203.967 26.9443 204.094 26.9901 204.564 26.886C204.863 26.8199 205.052 26.7363 205.076 26.6702Z" fill="#6EB600"/>
<path d="M208.367 25.8917C208.915 25.7523 209.107 25.6286 208.795 25.6166C208.483 25.6045 208.036 25.7185 207.8 25.87C207.565 26.0213 207.82 26.031 208.367 25.8917Z" fill="#6EB600"/>
<path d="M32.0457 67.65C31.9561 67.7873 34.791 67.7161 41.3697 67.4165C44.9305 67.2544 46.9579 66.8863 44.0387 66.932C40.7197 66.9842 32.1464 67.4973 32.0457 67.65Z" fill="#6EB600"/>
<path d="M228.222 20.0307C228.044 19.9666 227.695 20.0434 227.448 20.2015C227.175 20.3763 227.302 20.4221 227.773 20.318C228.198 20.224 228.4 20.0948 228.222 20.0307Z" fill="#6EB600"/>
<path d="M218.256 21.5518C217.842 21.5749 217.124 21.7548 216.661 21.9512C216.199 22.1478 216.539 22.1286 217.416 21.9091C218.293 21.6894 218.672 21.5284 218.256 21.5518Z" fill="#6EB600"/>
<path d="M220.349 20.6312C220.192 20.6783 220.04 20.7358 219.912 20.7988C219.56 20.9721 219.811 20.9821 220.47 20.8207C221.13 20.6594 221.418 20.5178 221.111 20.5057C220.915 20.498 220.626 20.5485 220.349 20.6312Z" fill="#6EB600"/>
<path d="M18.715 71.4762C18.7246 71.504 18.7577 71.5357 18.8149 71.5704C19.0237 71.6965 19.3627 71.7568 19.5687 71.7043C20.1409 71.5587 19.916 71.3797 19.1346 71.3594C18.8394 71.3517 18.6874 71.3986 18.715 71.4762Z" fill="#6EB600"/>
<path d="M222.527 19.9797C223.074 19.8404 223.267 19.7166 222.955 19.7047C222.643 19.6925 222.195 19.8065 221.96 19.958C221.724 20.1093 221.979 20.119 222.527 19.9797Z" fill="#6EB600"/>
<path d="M17.8836 71.2751C17.7056 71.211 17.357 71.2879 17.1101 71.446C16.944 71.5522 16.9254 71.6108 17.0423 71.6171C17.1182 71.6211 17.25 71.6033 17.4345 71.5625C17.8594 71.4684 18.0616 71.3392 17.8836 71.2751Z" fill="#6EB600"/>
<path d="M27.8915 67.6544C27.5152 67.7502 27.632 67.8249 28.2091 67.8566C28.7121 67.8845 29.3928 67.8383 29.7208 67.7548C30.0971 67.659 29.9803 67.5843 29.4032 67.5526C28.9002 67.5247 28.2196 67.5709 27.8915 67.6544Z" fill="#6EB600"/>
<path d="M219.747 18.546C219.439 18.5339 218.899 18.6658 218.547 18.8391C218.195 19.0124 218.446 19.0224 219.106 18.861C219.766 18.6997 220.053 18.5582 219.747 18.546Z" fill="#6EB600"/>
<path d="M221.997 17.6435C221.689 17.6314 221.15 17.7633 220.798 17.9366C220.445 18.11 220.696 18.1199 221.356 17.9586C222.016 17.7972 222.304 17.6557 221.997 17.6435Z" fill="#6EB600"/>
<path d="M24.2201 67.6844C24.0421 67.6203 23.6934 67.6971 23.4465 67.8553C23.1734 68.03 23.3001 68.0758 23.7709 67.9717C24.1958 67.8777 24.3981 67.7485 24.2201 67.6844Z" fill="#6EB600"/>
<path d="M219.75 15.2664C219.572 15.2023 219.223 15.2791 218.976 15.4373C218.703 15.6121 218.83 15.6578 219.301 15.5538C219.726 15.4597 219.928 15.3305 219.75 15.2664Z" fill="#6EB600"/>
<path d="M218.767 12.2208C218.589 12.1566 218.241 12.2335 217.994 12.3916C217.721 12.5664 217.847 12.6122 218.318 12.5081C218.743 12.4141 218.945 12.2849 218.767 12.2208Z" fill="#6EB600"/>
<path d="M224.551 6.66273C224.21 6.74962 223.993 6.95323 224.069 7.11511C224.145 7.27699 224.376 7.36659 224.582 7.31414C224.788 7.26168 225.005 7.05808 225.064 6.86176C225.097 6.75348 225.041 6.67767 224.927 6.64617C224.835 6.62039 224.704 6.62374 224.551 6.66273Z" fill="#6EB600"/>
<path d="M212.176 7.40761C210.58 7.92397 208.821 8.66356 208.268 9.05164C207.323 9.7142 207.397 9.70963 209.498 8.9759C210.181 8.73725 211.026 8.40313 211.801 8.07198C212.421 7.80652 212.996 7.54291 213.405 7.33172L215.077 6.46841L212.176 7.40761Z" fill="#6EB600"/>
<path d="M216.266 5.93637C216.088 5.87226 215.739 5.9491 215.492 6.10725C215.355 6.19546 215.319 6.25078 215.378 6.27055C215.435 6.29014 215.583 6.27527 215.817 6.22373C216.242 6.12969 216.444 6.00048 216.266 5.93637Z" fill="#6EB600"/>
<path d="M193.854 9.6291C193.743 9.71087 193.691 9.79598 193.724 9.86627C193.792 10.0132 194.175 9.97256 194.573 9.77659C194.971 9.58034 195.273 9.36904 195.243 9.30679C195.215 9.24498 194.832 9.28533 194.395 9.39676C194.167 9.45476 193.975 9.54004 193.854 9.6291Z" fill="#6EB600"/>
<path d="M202.006 4.72354C203.21 4.41695 203.677 4.23639 203.043 4.32236C202.409 4.40833 201.424 4.65892 200.854 4.87974C200.283 5.10056 200.801 5.03014 202.006 4.72354Z" fill="#6EB600"/>
<path d="M207.498 2.87821C207.191 2.8661 206.651 2.99798 206.299 3.17131C205.947 3.34464 206.198 3.35461 206.858 3.19325C207.517 3.03189 207.805 2.89038 207.498 2.87821Z" fill="#6EB600"/>
<path d="M160.042 13.4259C163.769 12.5734 166.911 11.9063 167.023 11.9435C167.136 11.9804 167.358 11.8927 167.518 11.7483C167.678 11.6037 167.735 11.465 167.646 11.4399C167.285 11.3384 152.616 14.7414 152.929 14.8542C153.114 14.9211 156.315 14.2784 160.042 13.4259Z" fill="#6EB600"/>
<path d="M175.826 9.70573C179.438 8.78614 180.894 8.36501 179.063 8.77033C177.231 9.17563 174.276 9.92817 172.495 10.4425C170.715 10.9567 172.214 10.6253 175.826 9.70573Z" fill="#6EB600"/>
<path d="M186.441 6.51665C186.102 6.60892 185.772 6.7102 185.502 6.80759C184.818 7.05539 185.333 6.98595 186.647 6.65288C187.962 6.32025 188.522 6.11758 187.892 6.20256C187.511 6.25412 186.964 6.37475 186.441 6.51665Z" fill="#6EB600"/>
<path d="M145.723 16.2993L148.4 15.8334C149.873 15.5771 151.212 15.3587 151.377 15.3481C151.541 15.3376 151.725 15.1685 151.784 14.972C151.853 14.7438 150.779 14.9187 148.807 15.4572L145.723 16.2993Z" fill="#6EB600"/>
<path fill-rule="evenodd" clip-rule="evenodd" d="M130.579 19.637C135.804 18.2961 137.732 17.8937 138.041 18.0796C138.392 18.2901 145.197 16.6036 145.072 16.3373C145.019 16.224 142.961 16.538 140.499 17.0357C137.901 17.561 135.962 17.8139 135.88 17.6388C135.792 17.4501 134.654 17.6592 132.839 18.1988C131.245 18.6726 129.97 18.9605 130.007 18.8389C130.043 18.7171 128.201 18.9933 125.912 19.4526C120.048 20.6291 119.064 20.7974 113.653 21.5498C111.008 21.9176 107.983 22.5217 106.931 22.8922C106.633 22.9972 106.381 23.0823 106.171 23.148C105.401 23.39 105.212 23.3689 105.471 23.1047C105.804 22.7653 105.526 22.7982 104.416 23.2291C103.26 23.678 103.011 23.7029 103.352 23.3352C103.692 22.9678 103.459 22.9905 102.352 23.434C101.473 23.7859 100.948 23.8789 101.01 23.6723C101.136 23.2587 97.5027 23.7123 96.9933 24.1736C96.7844 24.3628 96.679 24.3459 96.7422 24.1338C96.8835 23.6686 93.8541 24.0377 92.4879 24.6522C91.7132 25.0007 91.5857 24.9979 91.9325 24.6388C92.3319 24.2249 92.3165 24.192 91.793 24.3413C91.4691 24.4338 90.8963 24.7026 90.5213 24.9384C89.9512 25.2964 90.0968 25.3395 91.3959 25.1982C92.2522 25.1052 93.4182 24.8191 93.9865 24.5631C94.6396 24.2689 94.8808 24.2414 94.643 24.4878C94.1133 25.0377 106.02 23.7517 109.807 22.8498C113.766 21.9072 118.171 21.258 117.697 21.6867C117.491 21.8738 118.12 21.7467 119.094 21.4036C120.356 20.9597 120.916 20.8853 121.038 21.1446C121.152 21.3876 121.516 21.3615 122.127 21.0668C123.447 20.4301 128.886 19.528 127.697 20.1427C127.185 20.408 128.42 20.1911 130.579 19.637ZM108.356 22.8633C108.178 22.7992 107.83 22.8762 107.582 23.0342C107.309 23.2089 107.436 23.2547 107.907 23.1506C108.332 23.0566 108.534 22.9274 108.356 22.8633Z" fill="#6EB600"/>
<path d="M173.286 9.29858C173.108 9.23446 172.759 9.31145 172.512 9.46946C172.239 9.64423 172.366 9.69001 172.837 9.58593C173.262 9.4919 173.464 9.36269 173.286 9.29858Z" fill="#6EB600"/>
<path d="M127.97 18.5086C127.842 18.7039 141.812 15.8968 152.791 13.5212C164.234 11.0453 165.44 10.7507 165.689 10.3722C165.752 10.2762 165.301 10.3136 164.565 10.4484C164.109 10.532 163.543 10.6533 162.921 10.8036C161.296 11.1966 159.056 11.713 157.942 11.9507C154.198 12.7501 145.785 14.4771 143.106 14.9955C136.351 16.3037 128.171 18.2024 127.97 18.5086Z" fill="#6EB600"/>
<path fill-rule="evenodd" clip-rule="evenodd" d="M164.661 9.92292C170.664 8.55226 173.171 8.08746 173.107 8.35815C173.056 8.5696 173.179 8.51539 173.379 8.2381C173.635 7.88284 175.629 7.24042 180.113 6.06855C183.617 5.15262 187.783 3.96766 189.371 3.43519C192.204 2.48515 192.216 2.47655 189.998 2.98927C188.754 3.27663 187.101 3.60117 186.326 3.71057C185.25 3.86189 185.172 3.90404 185.999 3.88732C186.594 3.87548 181.807 5.21133 175.36 6.85586C168.914 8.50052 164.399 9.54432 165.329 9.17551C166.295 8.79254 164.564 9.17631 161.293 10.0703C157.546 11.0944 156.077 11.4106 157.043 10.9845C158.092 10.5221 157.379 10.6577 154.589 11.4519C151.881 12.222 150.991 12.3944 151.73 12.0054C152.445 11.6281 151.164 11.8941 147.872 12.806C145.161 13.5572 143.709 13.8819 144.646 13.528C146.015 13.0108 145.421 13.0733 141.619 13.8475C139.018 14.3773 136.048 15.0981 135.019 15.4498C133.317 16.0309 133.252 16.0318 134.3 15.4574C134.934 15.1105 135.438 14.7974 135.42 14.7617C135.403 14.7262 133.454 15.1676 131.091 15.7427C126.261 16.9176 119.055 18.1197 107.021 19.7581C94.3258 21.486 86.3957 22.3221 86.5175 21.9194C86.5807 21.7108 86.3998 21.7018 86.0845 21.8978C85.3741 22.3391 79.6383 23.1258 79.4868 22.8027C79.4556 22.7362 79.3718 22.7097 79.2611 22.7205C79.1437 22.7317 78.9956 22.7852 78.8472 22.8772C78.6741 22.9848 78.4076 23.0493 78.1412 23.0603C77.9653 23.0676 77.79 23.0518 77.6398 23.01C76.9871 22.8281 62.1555 23.9138 61.2576 24.2093C61.0224 24.2866 62.1069 24.2926 63.6668 24.2231C67.148 24.0675 66.3648 24.372 62.5584 24.6543C61.0329 24.7675 59.5731 24.9911 59.3149 25.1514C59.0568 25.3118 58.8941 25.284 58.9529 25.0901C59.0479 24.7732 58.0644 24.8713 56.0977 25.3743C55.7255 25.4694 55.4679 25.3897 55.5264 25.1971C55.5914 24.9831 55.293 25.0149 54.7629 25.2782C54.2595 25.5278 52.1782 25.7938 49.8184 25.9097C48.1937 25.9896 46.759 26.0961 46.0708 26.1818C45.8094 26.2145 45.6554 26.2442 45.6396 26.2681C45.4602 26.5406 54.4025 26.2206 60.1925 25.7479C79.5707 24.1658 108.551 20.8139 121.857 18.6155C127.976 17.6048 155.494 12.0163 164.661 9.92292ZM139.027 14.8476C139.793 14.6525 140.078 14.512 139.66 14.5357C139.242 14.5591 138.616 14.7186 138.267 14.8904C137.919 15.0619 138.26 15.0428 139.027 14.8476ZM73.676 23.3851C73.4937 23.3918 73.262 23.4636 73.0833 23.578C72.8102 23.7528 72.9369 23.7986 73.4077 23.6945C73.8327 23.6005 74.0349 23.4712 73.8569 23.4071C73.8077 23.3894 73.7453 23.3826 73.676 23.3851ZM71.7286 23.6194C71.5506 23.5553 71.202 23.6323 70.955 23.7903C70.7555 23.918 70.7692 23.9768 70.9748 23.9587C71.0508 23.9519 71.1525 23.9349 71.2794 23.9068C71.7044 23.8127 71.9066 23.6835 71.7286 23.6194Z" fill="#6EB600"/>
<path d="M111.817 22.6414C111.639 22.5773 111.29 22.6543 111.043 22.8123C110.77 22.9871 110.897 23.0329 111.367 22.9288C111.792 22.8347 111.995 22.7055 111.817 22.6414Z" fill="#6EB600"/>
<path d="M168.509 8.35472C169.056 8.21537 169.249 8.09166 168.937 8.07968C168.625 8.06755 168.177 8.18155 167.941 8.33303C167.706 8.48436 167.961 8.49406 168.509 8.35472Z" fill="#6EB600"/>
<path d="M193.968 1.83538C194.953 1.5846 195.329 1.42471 194.803 1.47956C194.279 1.53483 193.472 1.74029 193.012 1.93559C192.798 2.02676 192.777 2.06572 192.916 2.05597C193.074 2.04463 193.441 1.96938 193.968 1.83538Z" fill="#6EB600"/>
<path d="M117.891 19.6047C112.459 20.8655 112.48 21.0786 117.963 20.287C124 19.4151 127.305 18.6966 127.447 18.2255C127.507 18.0271 126.694 18.1863 125.431 18.6199C124.267 19.0195 123.258 19.2275 123.19 19.0823C123.122 18.9369 122.26 19.0778 121.274 19.3957C120.031 19.7963 119.521 19.8515 119.604 19.5762C119.684 19.3096 119.123 19.3189 117.891 19.6047Z" fill="#6EB600"/>
<path d="M197.03 0.76372C197.577 0.624375 197.77 0.500662 197.458 0.488678C197.146 0.476548 196.698 0.590556 196.463 0.74203C196.227 0.893359 196.483 0.903064 197.03 0.76372Z" fill="#6EB600"/>
<path d="M147.884 12.1403C147.706 12.0762 147.358 12.1532 147.111 12.3112C146.838 12.486 146.965 12.5317 147.435 12.4277C147.727 12.3631 147.914 12.2821 147.945 12.2167C147.959 12.1869 147.94 12.1604 147.884 12.1403Z" fill="#6EB600"/>
<path d="M65.8869 32.283C65.2503 32.4529 65.3116 32.4908 66.2005 32.4767C67.713 32.4526 68.7594 32.1862 67.5936 32.122C67.0906 32.0941 66.3223 32.1668 65.8869 32.283Z" fill="#6EB600"/>
<path d="M107.311 21.8383C107.433 21.8614 107.844 21.8096 108.604 21.7098C111.257 21.3617 112.275 21.091 112.764 20.6037C113.105 20.2648 112.822 20.2711 111.649 20.6278C110.786 20.8905 109.822 21.0629 109.51 21.0106C109.37 20.9875 109.152 21.0115 108.903 21.0701C108.595 21.1426 108.241 21.2684 107.934 21.4228C107.409 21.6867 107.17 21.8118 107.311 21.8383Z" fill="#6EB600"/>
<path d="M64.6768 32.336C64.4988 32.2719 64.1503 32.3489 63.9032 32.5069C63.6301 32.6816 63.7569 32.7274 64.2276 32.6233C64.6526 32.5293 64.8548 32.4001 64.6768 32.336Z" fill="#6EB600"/>
<path d="M106.801 21.1892C106.479 21.2862 105.817 21.5862 105.331 21.8551L104.446 22.3443L105.453 22.1157C105.735 22.0518 106.045 21.9426 106.314 21.8194C106.575 21.7002 106.798 21.5677 106.923 21.4497C107.334 21.061 107.321 21.0321 106.801 21.1892Z" fill="#6EB600"/>
<path d="M103.509 21.6597C103.071 21.7711 102.665 22.023 102.605 22.2194C102.546 22.4158 102.855 22.4853 103.294 22.3737C103.477 22.3269 103.655 22.2558 103.804 22.1742C104.011 22.061 104.163 21.9282 104.198 21.814C104.257 21.6177 103.948 21.5481 103.509 21.6597Z" fill="#6EB600"/>
<path d="M90.3213 23.9606C90.8467 23.8246 93.2808 23.4999 95.7318 23.2391C98.1827 22.978 100.597 22.676 101.098 22.5679C102.597 22.2442 101.889 21.8431 100.187 22.0513C99.6327 22.1191 98.561 22.2444 97.4048 22.377L95.4326 22.6011C82.6762 24.033 82.0737 24.1216 81.2443 24.6837C80.4115 25.248 80.4117 25.2483 81.4242 24.8132C82.8434 24.204 86.0023 23.8198 85.4699 24.3211C85.2183 24.5585 85.6185 24.5081 86.5017 24.1906C87.3522 23.885 87.9022 23.8107 87.8429 24.0089C87.7824 24.2086 88.2436 24.1417 88.9753 23.8442C89.848 23.4896 90.0866 23.4694 89.7888 23.7753C89.4614 24.1107 89.5812 24.1528 90.3213 23.9606Z" fill="#6EB600"/>
<path d="M88.315 25.476C88.8623 25.3366 89.0549 25.2129 88.743 25.2009C88.4309 25.1888 87.9831 25.3028 87.7478 25.4543C87.5125 25.6056 87.7677 25.6153 88.315 25.476Z" fill="#6EB600"/>
<path d="M86.1867 25.6882C86.734 25.5489 86.9266 25.4252 86.6147 25.4132C86.3026 25.4011 85.8548 25.5151 85.6195 25.6666C85.3842 25.8179 85.6394 25.8276 86.1867 25.6882Z" fill="#6EB600"/>
<path d="M90.3956 24.4697C90.2176 24.4056 89.869 24.4826 89.622 24.6406C89.3489 24.8154 89.4756 24.8612 89.9464 24.7571C90.3713 24.6631 90.5736 24.5339 90.3956 24.4697Z" fill="#6EB600"/>
<path d="M84.6091 25.7053C84.6675 25.661 84.6317 25.6311 84.4864 25.6255C84.1743 25.6133 83.7265 25.7273 83.4912 25.8788C83.2559 26.0302 83.5111 26.0399 84.0584 25.9005C84.3507 25.8261 84.5416 25.7562 84.6091 25.7053Z" fill="#6EB600"/>
<path d="M88.2673 24.682C88.0893 24.6179 87.7407 24.6949 87.4937 24.8529C87.2206 25.0277 87.3473 25.0734 87.8181 24.9694C88.2431 24.8753 88.4453 24.7461 88.2673 24.682Z" fill="#6EB600"/>
<path d="M82.1585 25.9077C81.9805 25.8436 81.632 25.9206 81.3849 26.0786C81.1118 26.2534 81.2386 26.2991 81.7093 26.1951C82.1343 26.101 82.3365 25.9718 82.1585 25.9077Z" fill="#6EB600"/>
<path d="M86.139 24.8943C85.961 24.8302 85.6124 24.9072 85.3654 25.0652C85.0923 25.2399 85.2191 25.2857 85.6898 25.1817C86.1148 25.0876 86.317 24.9584 86.139 24.8943Z" fill="#6EB600"/>
<path d="M80.0302 26.12C79.8522 26.0559 79.5037 26.1329 79.2566 26.2909C78.9835 26.4656 79.1103 26.5114 79.581 26.4073C80.006 26.3133 80.2082 26.1841 80.0302 26.12Z" fill="#6EB600"/>
<path d="M84.2189 25.0365C83.9112 25.0244 83.3717 25.1563 83.0196 25.3296C82.6675 25.5029 82.9185 25.5129 83.5782 25.3515C84.2379 25.1902 84.5257 25.0487 84.2189 25.0365Z" fill="#6EB600"/>
<path d="M81.8824 25.3188C81.7044 25.2547 81.3558 25.3317 81.1088 25.4897C80.8357 25.6645 80.9625 25.7103 81.4332 25.6062C81.6469 25.5589 81.8041 25.5027 81.8857 25.4503C81.9659 25.3985 81.9713 25.3506 81.8824 25.3188Z" fill="#6EB600"/>
<path d="M75.5452 26.7496C76.0925 26.6103 76.2851 26.4866 75.9732 26.4746C75.6612 26.4624 75.2134 26.5765 74.9781 26.7279C74.7427 26.8793 74.9979 26.889 75.5452 26.7496Z" fill="#6EB600"/>
<path d="M79.3045 25.5614C79.171 25.6034 79.0487 25.6563 78.9585 25.7145C78.7232 25.8658 78.9783 25.8755 79.5257 25.7362C80.073 25.5969 80.2656 25.4731 79.9536 25.4612C79.7614 25.4538 79.5182 25.494 79.3045 25.5614Z" fill="#6EB600"/>
<path d="M73.4516 26.7316C73.3877 26.7585 73.326 26.7903 73.2698 26.8263C72.9967 27.0011 73.1235 27.0469 73.5942 26.9428C73.8741 26.8809 74.0572 26.8037 74.0987 26.74C74.1205 26.7068 74.1041 26.6773 74.0434 26.6555C73.9062 26.6059 73.6674 26.6405 73.4516 26.7316Z" fill="#6EB600"/>
<path d="M77.3974 25.9485C77.9447 25.8091 78.1373 25.6854 77.8253 25.6734C77.5133 25.6613 77.0655 25.7753 76.8302 25.9268C76.5949 26.0781 76.85 26.0878 77.3974 25.9485Z" fill="#6EB600"/>
<path d="M71.9151 26.8677C71.7371 26.8036 71.3885 26.8806 71.1415 27.0386C70.8684 27.2134 70.9952 27.2592 71.4659 27.1551C71.8909 27.0611 72.0931 26.9318 71.9151 26.8677Z" fill="#6EB600"/>
<path d="M72.0845 26.496L73.3728 26.3928C73.6429 26.371 73.9459 26.3381 74.242 26.2996C74.7236 26.2372 75.1877 26.1598 75.4599 26.0925C76.0854 25.9381 76.0192 25.899 75.1528 25.9129C73.84 25.9341 74.4237 25.6737 77.1798 25.0093L79.1815 24.5271L76.5985 24.7199C73.9079 24.9207 72.0239 25.2736 73.936 25.2182C74.9585 25.1885 74.9319 25.232 73.5597 25.841L72.0845 26.496Z" fill="#6EB600"/>
<path d="M80.3274 24.5955C81.0385 24.2022 81.055 24.1445 80.4118 24.3004C79.9719 24.4071 79.3066 24.6994 78.9343 24.9502C78.0709 25.5309 79.1174 25.2645 80.3274 24.5955Z" fill="#6EB600"/>
<path d="M72.3699 25.6792C72.0418 25.7627 71.4677 26.036 71.0953 26.2868C70.6679 26.5742 70.6386 26.6861 71.0148 26.5903C71.3429 26.5068 71.9171 26.2335 72.2894 25.9828C72.7168 25.6953 72.7461 25.5834 72.3699 25.6792Z" fill="#6EB600"/>
<path d="M70.7159 25.5037L69.5135 26.2521C68.9995 26.5721 68.6851 26.7665 68.7085 26.7921C68.7449 26.8308 69.5637 26.4781 71.6552 25.5803C72.5027 25.2165 71.1871 25.2428 66.1373 25.6907C62.4901 26.0137 59.1534 26.3807 58.722 26.5057C57.6382 26.8202 65.632 26.2833 68.4353 25.8533L70.7159 25.5037Z" fill="#6EB600"/>
<path d="M67.2367 26.61C65.9798 26.5407 65.3509 26.7008 66.2416 26.8633C66.6433 26.9368 67.2381 26.921 67.562 26.8284C67.7677 26.7698 67.8337 26.7213 67.7613 26.6837C67.6961 26.6504 67.5208 26.6257 67.2367 26.61Z" fill="#6EB600"/>
<path d="M20.5489 36.8487C20.3172 36.9077 20.3 37.0604 20.5112 37.1878C20.7225 37.3154 20.9743 37.3995 21.0707 37.375C21.1235 37.3615 21.1527 37.3107 21.1558 37.2411C21.1586 37.1822 21.1431 37.11 21.1083 37.0358C21.0324 36.874 20.7805 36.7897 20.5489 36.8487Z" fill="#6EB600"/>
<path d="M61.2575 26.9445C61.0795 26.8804 60.7309 26.9574 60.4839 27.1154C60.354 27.1983 60.314 27.2523 60.3585 27.2749C60.4085 27.2998 60.5607 27.2867 60.8083 27.2318C61.2333 27.1378 61.4355 27.0086 61.2575 26.9445Z" fill="#6EB600"/>
<path d="M57.1512 26.5816C57.0136 26.613 56.8684 26.6708 56.7473 26.7484C56.4742 26.9231 56.6009 26.9689 57.0717 26.8648C57.2972 26.815 57.4597 26.7553 57.5367 26.7004C57.6045 26.6519 57.6045 26.6075 57.5208 26.5775C57.4298 26.5448 57.295 26.5487 57.1512 26.5816Z" fill="#6EB600"/>
<path d="M60.4129 24.1933C60.2349 24.1292 59.8864 24.2061 59.6393 24.3641C59.3662 24.5389 59.493 24.5847 59.9637 24.4806C60.3887 24.3866 60.5909 24.2574 60.4129 24.1933Z" fill="#6EB600"/>
<path d="M58.3099 24.309C58.1732 24.3406 58.0289 24.3984 57.9091 24.4751C57.636 24.6499 57.7628 24.6956 58.2335 24.5916C58.6585 24.4975 58.8607 24.3683 58.6827 24.3042C58.5914 24.2711 58.4551 24.2754 58.3099 24.309Z" fill="#6EB600"/>
<path d="M56.9524 24.4151C56.7744 24.351 56.4259 24.428 56.1789 24.586C55.9057 24.7608 56.0325 24.8066 56.5032 24.7025C56.9282 24.6085 57.1304 24.4792 56.9524 24.4151Z" fill="#6EB600"/>
<path d="M54.815 24.5393C54.6886 24.5723 54.5584 24.6267 54.4486 24.6969C54.2472 24.826 54.2634 24.8847 54.4751 24.8648C54.5501 24.8576 54.65 24.8406 54.773 24.8134C55.198 24.7194 55.4002 24.5902 55.2222 24.5261C55.1237 24.4905 54.9724 24.4982 54.815 24.5393Z" fill="#6EB600"/>
</g>
</svg>
