<svg width="130" height="99" viewBox="0 0 130 99" fill="none" xmlns="http://www.w3.org/2000/svg">
<path d="M66.7027 1.87251C64.1353 3.25361 63.3906 3.62394 62.2329 4.04529C61.5442 4.29597 61.0179 4.53713 61.0831 4.57956C61.139 4.64193 60.8273 4.78848 60.4023 4.94315C59.6736 5.17529 59.659 5.18062 60.0907 4.9077L60.5664 4.61877L60.0135 4.7869C59.7058 4.89891 59.4726 5.0334 59.5045 5.12104C59.5364 5.20869 59.0888 5.43779 58.444 5.67247C57.8432 5.89115 57.353 6.00339 57.3704 5.91435C57.4586 5.51833 55.9772 6.00786 46.4974 9.50785C45.5743 9.84387 44.3552 10.3703 43.801 10.6712C42.7698 11.212 41.9812 11.4163 42.0427 11.1293C42.06 11.0402 41.6431 11.1258 41.1156 11.3178C40.588 11.5098 40.155 11.7336 40.1376 11.8226C40.115 11.8971 39.8311 12.1658 39.5019 12.4014C39.0422 12.7341 38.8517 12.8035 38.6227 12.7214C38.4137 12.6486 38.1352 12.75 37.3625 13.1801C36.8282 13.4904 36.1181 13.8646 35.7916 14.0165C35.4799 14.1631 35.0322 14.3922 34.7938 14.512C33.1976 15.3246 31.968 15.8218 32.052 15.6423C32.1081 15.5226 32.725 15.1658 33.4217 14.846C34.1385 14.5355 34.79 14.1826 34.8806 14.0669C35.1299 13.7942 34.4558 14.0395 33.1275 14.7215C31.7459 15.4394 31.6059 15.5565 31.8202 15.8259C31.9679 16.0038 31.9332 15.9998 31.6776 15.8447C31.5073 15.7413 31.2995 15.7177 31.2328 15.8081C31.1662 15.8985 30.5773 16.1956 29.9192 16.4847C29.2704 16.754 28.6921 17.0802 28.6455 17.1799C28.5894 17.2996 28.4348 17.422 28.2883 17.4753C28.1418 17.5287 28.0458 17.6298 28.0777 17.7174C28.1043 17.7905 27.999 17.9115 27.8378 17.9702C27.5007 18.0928 26.9091 18.4736 24.4774 20.1362C21.5512 22.1276 20.841 22.6838 21.1086 22.7353C21.2724 22.7749 21.0951 22.9718 20.5674 23.3458C20.1464 23.6479 19.5854 24.0672 19.3495 24.2854C19.1136 24.5036 18.7804 24.7737 18.6205 24.8815C18.4513 25.0093 18.342 25.1649 18.3686 25.2379C18.3951 25.311 18.2112 25.4441 17.9621 25.5347C17.6544 25.6467 17.5306 25.6256 17.556 25.4675C17.568 25.3639 17.4974 25.4888 17.3866 25.7773C17.1825 26.2651 16.7001 26.6723 15.8274 27.0561C15.6129 27.1507 15.3824 27.3835 15.309 27.5922C15.2302 27.7863 15.1876 27.8514 15.209 27.7278C15.2505 27.4315 14.9387 27.5781 14.3137 28.186C13.7512 28.7381 13.7537 29.0184 14.3227 28.5301C14.5346 28.3372 14.6665 28.2892 14.6984 28.3768C14.7303 28.4645 14.6397 28.5802 14.5078 28.6282C14.3666 28.6961 14.0402 28.848 13.787 28.9732C13.5286 29.0838 13.2128 29.2649 13.1022 29.3714C12.9862 29.4632 12.1814 29.9877 11.3034 30.5389C10.4253 31.0901 9.61516 31.6 9.52854 31.6811C9.38861 31.7982 9.31677 31.692 9.1906 31.2086C9.03785 30.6522 9.00725 30.6137 8.79664 30.8557C8.61937 31.0526 8.62326 31.2001 8.83475 31.5532L9.08347 32.0086L8.30266 32.5078C7.86161 32.8007 7.14603 33.3423 6.6876 33.7242C6.23449 34.1207 5.26966 34.9351 4.53138 35.5512C3.78778 36.1527 3.24 36.6994 3.31055 36.7565C3.38109 36.8135 3.45566 36.836 3.4943 36.8054C4.32582 36.1719 5.08899 36.1257 4.31206 36.7724C3.60711 37.3433 3.96412 37.2299 4.71303 36.643C6.07625 35.601 10.2228 32.9503 10.276 33.0964C10.2919 33.1402 10.2172 33.2997 10.1226 33.45C9.93724 33.7159 9.94256 33.7306 10.1823 33.6598C10.5194 33.5371 10.7164 33.7136 10.4193 33.8548C10.1368 33.9907 6.39109 36.6939 5.4103 37.4645C4.28959 38.3521 4.84112 38.1348 6.06441 37.2098C6.70271 36.7294 7.31701 36.2742 7.42361 36.2023C7.88333 35.8696 6.7464 37.0774 5.98945 37.7334C4.86069 38.6901 3.83206 39.3292 3.3206 39.383C2.9077 39.434 2.06412 40.1712 2.15982 40.4341C2.18108 40.4925 2.31699 40.41 2.46094 40.2583C2.75817 39.9351 4.10374 39.3461 4.06496 39.5587C4.04227 39.6332 3.85033 39.8353 3.60783 39.9898C3.332 40.1894 3.21865 40.3796 3.28647 40.5203C3.35429 40.661 3.31824 40.7899 3.21566 40.8273C3.11308 40.8646 2.97445 41.0309 2.91972 41.1997C2.82362 41.4828 2.84359 41.4921 3.12876 41.2725C3.55918 40.9504 3.7432 40.6353 3.58214 40.5119C3.5116 40.4549 3.64362 40.2249 3.89416 40.0014C4.36595 39.565 4.76031 39.3718 4.81879 39.5325C4.86664 39.6639 4.32275 40.3582 3.79896 40.8797C3.6257 41.042 3.47501 41.3119 3.47889 41.4593C3.46813 41.6121 3.35751 41.7186 3.22433 41.7174C2.94331 41.7204 2.46751 42.1914 2.54194 42.3959C2.57384 42.4835 2.69768 42.5046 2.82957 42.4566C2.9468 42.4139 3.00412 42.3434 2.94823 42.2811C2.883 42.2386 2.99362 42.1322 3.16947 42.0682C3.49587 41.9163 3.50119 41.9309 3.413 42.327C3.34621 42.5994 3.20758 42.7657 3.03977 42.7606C2.87728 42.7701 2.84395 42.8153 2.95846 42.8563C3.1675 42.9291 3.39236 43.2277 3.44812 43.4721C3.46005 43.5505 3.56365 43.9263 3.67659 44.2822C3.83868 44.8188 3.80392 44.9968 3.53068 45.2948C3.35341 45.4917 3.24006 45.6818 3.29997 45.7096C3.35457 45.7228 3.56245 45.5645 3.77837 45.337C4.13292 44.9433 4.14758 44.9379 4.10205 45.2688C4.07261 45.4615 3.9699 45.6808 3.85928 45.7873C3.60342 45.9962 3.59484 46.7933 3.86093 47.1596C4.12832 47.5751 4.6652 47.3632 5.32503 46.5771C5.78891 46.0278 5.85686 45.9866 6.1511 46.111C6.31618 46.1998 6.61717 46.2061 6.80767 46.1368C6.99817 46.0674 7.22459 46.0512 7.30045 46.1228C7.37631 46.1945 7.295 46.2902 7.1045 46.3596C6.84073 46.4556 6.82205 46.4954 7.04043 46.5483C7.25881 46.6012 7.30005 46.6689 7.22924 46.9758C7.13301 47.441 7.35281 47.361 7.56628 46.8532C7.68235 46.5793 7.91422 46.3957 8.36849 46.2303C8.72018 46.1023 9.1812 45.8187 9.36782 45.6019C9.5744 45.3944 9.8409 45.2147 9.97407 45.2159C10.2751 45.2221 11.3532 44.2176 11.4907 43.8202C11.5348 43.6222 11.6028 43.5809 11.6453 43.6978C11.6825 43.8 11.7664 43.8026 11.8237 43.7321C12.005 43.5007 12.0634 43.8434 11.9046 44.1824C11.7459 44.5213 10.0547 46.0302 9.09533 46.6771C8.75155 46.918 8.3957 47.2626 8.31166 47.4421C8.21297 47.6269 8.03699 47.8729 7.89175 47.9754C7.7465 48.0779 7.65715 48.2427 7.68905 48.3304C7.71563 48.4034 7.83416 48.4099 7.93013 48.3088C8.04606 48.217 8.14993 48.2288 8.2031 48.3749C8.25095 48.5063 7.99495 48.8972 7.59112 49.2924C7.0047 49.8697 6.63562 50.0868 5.47926 50.5573C4.68393 50.8798 4.08571 51.1968 4.11761 51.2845C4.14419 51.3575 4.28671 51.3387 4.41198 51.227C4.82774 50.9102 4.96468 51.2408 4.59145 51.6744C4.28086 52.0522 4.28345 52.1505 4.53216 52.6058C4.79553 53.0559 4.78347 53.1595 4.47016 53.6209C4.04349 54.2725 3.60553 55.8049 3.73845 56.1701C3.81819 56.3892 3.90741 56.4063 4.12061 56.2626C4.37245 56.0882 4.39242 56.0975 4.3469 56.4283C4.31746 56.621 4.23472 56.8496 4.14277 56.9162C4.03215 57.0226 4.02813 57.0572 4.16002 57.0092C4.25326 56.9918 4.35856 56.8707 4.37594 56.7817C4.388 56.678 4.51327 56.5663 4.63051 56.5236C4.74774 56.4809 4.84227 56.5127 4.82489 56.6017C4.77146 56.8197 5.44009 56.7418 5.80787 56.4756C6.15697 56.2492 6.63367 56.3735 6.76658 56.7387C6.8357 56.9286 6.61576 57.1906 5.92948 57.7216C5.40712 58.1102 4.78607 58.6836 4.51815 58.9962C4.25956 59.2888 3.75704 59.8687 3.4078 60.2771L2.76133 61.0086L3.46213 60.6543C4.08966 60.3267 4.15359 60.3199 4.05217 60.5884C3.98279 60.7626 3.62824 61.1563 3.25242 61.4916C2.87128 61.8123 2.28888 62.3551 1.96766 62.7036C1.64643 63.0521 1.30926 63.3568 1.22133 63.3888C1.13341 63.4208 0.882731 63.8263 0.662655 64.2703C0.447895 64.729 0.357112 65.0267 0.458393 64.9402C0.559676 64.8537 1.4126 64.0966 2.33217 63.2491C3.25175 62.4016 4.4552 61.2854 5.00428 60.7878C5.54803 60.2756 6.36762 59.5637 6.8114 59.1871C7.60298 58.5351 7.63228 58.5244 7.91848 58.718C8.08888 58.8214 8.19664 58.9807 8.15929 59.0605C8.10729 59.1456 7.23569 59.9425 6.18423 60.838C4.1346 62.5931 0.430741 66.3233 0.731728 66.3295C0.844939 66.3214 1.29001 65.994 1.71381 65.6081C2.86928 64.5424 2.95188 64.4958 2.31605 65.2566C1.98147 65.6596 1.78408 66.0292 1.85592 66.1354C1.92777 66.2416 1.88899 66.4542 1.79432 66.6045C1.68499 66.76 1.67293 66.8637 1.76085 66.8317C1.86343 66.7943 1.99273 66.648 2.05809 66.5084C2.19815 66.2093 5.75288 62.4342 6.55782 61.7277C7.16019 61.1941 7.20831 60.9616 6.65534 61.3117C6.02911 61.6885 7.00199 60.8051 7.98407 60.0837C8.9515 59.3677 9.18064 59.2677 9.25507 59.4722C9.28697 59.5598 9.19101 59.6609 9.04849 59.6797C8.87666 59.7092 8.81001 59.7996 8.88185 59.9058C9.04148 60.162 7.96106 62.3914 7.53467 62.679C7.34547 62.7974 7.20684 62.9637 7.23874 63.0513C7.30253 63.2266 6.51757 63.9424 6.0926 64.0971C5.9021 64.1664 5.63159 64.3807 5.46896 64.5722C5.30634 64.7637 4.93713 65.1628 4.63458 65.4714C2.46746 67.6332 1.2024 69.2185 1.32066 69.589C1.40041 69.8081 1.6455 69.752 1.69362 69.5194C1.74303 69.336 5.18442 65.751 5.38958 65.6764C5.81454 65.5217 5.49318 66.0522 4.63883 66.9421C3.75517 67.8427 2.51022 69.2553 1.89435 70.0253C1.77038 70.1863 1.75559 70.3736 1.86737 70.4983C2.03504 70.6855 2.079 70.6695 2.40023 70.3209C2.84141 69.8461 2.90002 69.8247 3.00104 70.1023C3.0861 70.336 2.94618 70.4531 5.10526 68.3604C6.06218 67.4331 7.12142 66.8326 7.23838 67.1539C7.26497 67.227 7.23293 67.3213 7.14501 67.3533C7.07174 67.38 7.04632 67.5381 7.1048 67.6988C7.2324 68.0494 7.76914 68.0194 8.31549 67.6055C8.65928 67.3646 8.65798 67.3155 8.39162 67.3131C8.11994 67.2962 8.1333 67.2417 8.47981 66.9171C8.96625 66.4754 9.09009 66.4965 9.00981 67.0054C8.95495 67.3562 8.98957 67.3602 9.65302 67.0856C10.0234 66.9177 10.6723 66.4665 11.0761 66.0714C11.48 65.6763 12.2835 65.1026 12.8524 64.7963C13.8343 64.2569 14.2354 63.9455 13.7226 64.1322C13.4734 64.2229 12.7716 64.164 12.5706 64.0221C12.5054 63.9797 12.3788 64.0423 12.2882 64.158C12.1789 64.3136 12.1801 64.3627 12.312 64.3147C12.4 64.2827 12.5145 64.3238 12.541 64.3968C12.5783 64.499 12.4757 64.5364 12.2333 64.5088C12.0349 64.4652 11.7165 64.548 11.542 64.6612C11.3728 64.7889 11.2062 64.833 11.1797 64.76C11.0893 64.5116 12.9921 63.1739 13.8433 62.9137C14.5427 62.6923 14.7266 62.5592 14.9719 62.139C15.5333 61.1738 16.0304 60.7613 17.2361 60.2893L18.3831 59.8388L17.8806 60.4187C17.4114 60.9534 17.5392 60.9399 18.2642 60.3783C18.3801 60.2865 18.508 60.2731 18.5345 60.3461C18.5611 60.4191 18.2079 60.862 17.7374 61.3475C16.7244 62.3945 16.7336 62.5565 17.7532 61.5734C18.1424 61.1836 18.762 60.743 19.1177 60.5805C19.7465 60.302 19.7278 60.3419 18.6497 61.3463C18.0486 61.929 17.4356 62.4334 17.3184 62.476C16.9134 62.64 14.6674 65.1778 14.7045 65.4621C14.7084 65.6096 14.467 65.9952 14.1645 66.3038C13.7806 66.7082 13.6726 66.9129 13.8177 66.9924C13.9628 67.072 13.9107 67.3391 13.6812 67.803C13.5038 68.1819 13.2917 68.7389 13.2209 69.0458C13.17 69.3621 12.826 69.9671 12.482 70.39C12.1381 70.8129 11.8675 71.2092 11.8887 71.2676C11.9472 71.4283 12.9504 70.9474 13.3502 70.5868C13.8314 70.1305 14.1351 70.053 14.1775 70.3519C14.2013 70.5086 13.9334 70.8212 13.5083 71.1579C12.4396 71.9604 10.9642 73.4238 10.8161 73.792C10.7321 73.9714 10.3629 74.3705 9.99106 74.6712C9.56596 75.0079 9.31269 75.3151 9.32721 75.4918C9.34173 75.6685 8.96578 76.1858 8.43265 76.7272C7.27977 77.8912 4.56174 81.2295 4.62023 81.3902C4.64149 81.4486 4.87738 81.2304 5.15465 80.8979C6.93961 78.6437 11.8653 74.1214 12.3047 74.3254C12.4045 74.3718 11.6035 75.2258 10.7985 75.9323C10.4467 76.2423 9.90023 76.8382 9.57628 77.2704C9.23768 77.708 8.50056 78.5552 7.91945 79.1472C6.69058 80.4216 5.41462 82.3417 4.38894 84.4023L3.67269 85.854L4.33537 84.8023C4.71003 84.2358 5.28738 83.3144 5.6527 82.7679C5.99805 82.2121 6.51264 81.5285 6.78056 81.2159L7.26973 80.6905L6.95239 81.1865C5.70703 83.1451 5.15224 84.1741 5.25339 84.2697C5.33859 84.3214 5.11967 84.9965 4.79948 85.7582C4.45931 86.5106 4.23508 87.1712 4.29499 87.1991C4.3549 87.2269 4.68287 86.7601 5.03224 86.1698C5.36696 85.5848 5.72826 85.0728 5.80153 85.0461C5.88945 85.0141 6.1387 84.7415 6.35735 84.4303C6.57599 84.1191 6.81059 83.8518 6.8692 83.8304C7.16228 83.7237 7.082 84.2327 6.7312 84.9559C6.51112 85.3999 6.17873 86.4473 5.97434 87.2991C5.7846 88.1457 5.52016 89.1517 5.39203 89.5292C5.15444 90.2443 5.25416 90.4727 5.51301 89.816C6.21488 88.0056 6.38697 87.6121 6.43482 87.7436C6.4614 87.8166 6.37853 88.2273 6.25169 88.6539C6.12486 89.0805 6.06468 89.4167 6.10864 89.4007C6.3431 89.3154 7.13236 88.201 7.60182 87.3023C8.58211 85.3905 8.73812 85.1353 9.04858 84.9395C9.21379 84.8463 9.58702 84.4127 9.86169 83.9819C10.8683 82.5072 10.78 83.0852 9.69022 85.3346C9.07668 86.567 8.71382 87.3938 8.85518 87.1439C9.51786 86.0921 10.9655 84.3245 11.3026 84.2019C11.581 84.1005 11.5997 84.0606 11.3813 84.0078C11.1629 83.9549 11.1523 83.9257 11.3308 83.778C11.4561 83.6663 11.632 83.6023 11.7558 83.6234C11.885 83.6591 11.8088 83.9514 11.5367 84.4806C11.2967 84.9153 11.2099 85.1785 11.3446 85.0468C11.6431 84.7727 12.5115 84.6055 12.5127 84.8367C12.51 84.9204 12.2086 85.4601 11.8486 86.0213C11.4886 86.5824 11.1632 87.1475 11.1418 87.271C11.0884 87.489 11.607 86.7709 12.939 84.7311C13.6923 83.5637 13.9002 83.4053 13.8425 84.0218C13.7941 84.6184 14.0218 84.6513 14.4018 84.0995C14.7858 83.5131 14.9709 83.4291 14.7668 83.917C14.6601 84.1709 14.6733 84.2984 14.8171 84.3288C14.9263 84.3552 14.8009 84.649 14.501 85.0559C13.7011 86.1411 13.8595 86.1661 14.714 85.0941C15.6205 83.9371 16.5001 83.071 16.6599 83.1452C16.7345 83.1677 16.7065 83.2275 16.6185 83.2595C16.516 83.2969 16.4693 83.3966 16.5012 83.4842C16.5331 83.5719 16.6463 83.5637 16.7622 83.4719C17.0514 83.2178 17.0178 83.627 16.6952 84.1084C16.5485 84.3437 16.2007 84.6192 15.9422 84.7298C15.6158 84.8817 15.4959 85.0081 15.573 85.1289C15.6449 85.2351 15.6061 85.4477 15.5114 85.5979C15.3501 85.8386 15.3607 85.8678 15.5512 85.7985C15.6684 85.7558 15.8897 85.543 16.0217 85.313C16.4097 84.692 17.7305 83.3511 18.0676 83.2284C18.2874 83.1484 18.3872 83.1948 18.4164 83.3661C18.4681 83.645 18.3255 83.8458 17.6698 84.4153C17.2314 84.8065 17.246 84.8012 18.0694 84.4188C18.6689 84.151 18.894 84.0856 18.8686 84.2437C18.7925 84.5361 18.9577 84.4428 19.688 83.7138C20.0386 83.3547 20.4303 83.0632 20.5395 83.0896C20.7233 83.1385 18.5403 85.0745 17.7355 85.599C17.5317 85.7228 17.3344 85.9104 17.3224 86.014C17.2863 86.143 17.3995 86.1348 17.6367 85.9658C17.8259 85.8473 18.151 85.6463 18.3695 85.5171C18.724 85.3054 18.724 85.3054 18.4747 85.5781C18.3214 85.7497 18.244 85.9929 18.2919 86.1244C18.3397 86.2558 18.2623 86.499 18.1183 86.6507C17.8731 86.8888 17.9717 86.886 18.675 86.63C19.1346 86.4793 19.5662 86.3884 19.6514 86.4401C19.7273 86.5117 19.9658 86.3918 20.2256 86.1484C20.4762 85.9248 20.7866 85.7291 20.9292 85.7103C21.121 85.6902 21.0596 85.7952 20.7704 86.0493C20.5292 86.2529 20.0294 86.7491 19.6695 87.1283C19.3003 87.5273 18.8859 87.8932 18.754 87.9412C18.6221 87.9892 18.3729 88.2619 18.2275 88.5464C17.9448 89.0463 17.9448 89.0463 18.2871 88.9382C18.756 88.7676 19.7503 87.7605 19.5893 87.6372C19.4282 87.5138 19.5921 87.3715 20.9647 86.3095C21.5497 85.865 21.8802 85.4965 21.871 85.3344C21.8512 85.1432 22.275 84.7573 23.2717 84.0306C24.9414 82.8274 25.5716 82.416 25.6142 82.5329C25.6726 82.6936 25.1183 83.1766 24.5241 83.459C23.8912 83.7721 22.4119 85.088 22.8569 84.9426C22.9941 84.9092 23.4298 84.6017 23.8402 84.2703C24.8011 83.4905 24.8796 83.4785 24.2332 84.21C23.7733 84.7248 23.7453 84.7846 24.073 84.6819C24.3807 84.5699 24.358 84.6443 23.9009 85.0754C23.3051 85.6727 22.6344 86.7935 22.7021 87.1163C22.7485 87.3806 22.6513 87.4325 24.2943 86.1563C25.0872 85.5534 25.8334 85.0502 25.9519 85.0567C26.0851 85.0579 26.5168 84.7849 26.9273 84.4536C27.3377 84.1222 28.0439 83.6005 28.4996 83.3023C28.9553 83.0041 29.435 82.6806 29.5656 82.5835C29.7882 82.4198 29.7935 82.4344 29.6041 82.7349C29.5001 82.9051 29.063 83.3454 28.6232 83.6874C27.773 84.3608 26.7826 85.5153 27.1636 85.3766C27.2955 85.3286 28.1124 84.7004 28.9813 83.9872C29.8501 83.2739 30.8469 82.5472 31.1919 82.3555C31.9021 81.9812 31.8607 82.0955 30.9304 83.0958C30.3745 83.7117 29.9828 84.0031 30.3067 83.5709C30.5973 83.1839 30.175 83.4369 29.6712 83.9677C29.4073 84.2457 28.9195 84.6383 28.6091 84.834C28.2986 85.0297 28.0001 85.3038 27.9294 85.4287C27.8547 85.5883 27.8946 85.6068 28.0879 85.4538C28.3344 85.2648 28.3344 85.2648 28.1597 85.56C28.0464 85.7501 27.7185 86.0348 27.4267 86.1907C27.1256 86.3664 26.8031 86.6658 26.7191 86.8452C26.6403 87.0393 26.379 87.4156 26.1498 87.6976C25.5339 88.4676 25.3737 88.9395 25.6746 89.1278C25.8197 89.2073 25.9274 89.3666 25.9007 89.4755C25.8834 89.5646 25.9392 89.6269 26.0125 89.6003C26.1004 89.5683 26.2056 89.6292 26.2481 89.7461C26.296 89.8776 26.4145 89.8841 26.6037 89.7656C26.8795 89.5659 26.8702 89.5859 26.7205 90.2689C26.6163 90.8031 26.4643 91.0239 26.0952 91.2409C25.473 91.5832 24.8132 92.3692 24.8715 92.7119C24.9205 93.0746 25.6478 92.9753 26.1049 92.5442C26.3168 92.3513 26.4382 92.0921 26.3903 91.9606C26.3159 91.7561 26.3452 91.7454 26.5316 91.8927C26.7685 92.0877 26.5362 92.8173 26.1205 93.1341C25.9899 93.2312 25.9205 93.4054 25.9683 93.5368C26.0321 93.7121 26.1307 93.7093 26.4065 93.5097L26.7703 93.278L26.6035 93.6861C26.4741 94.0145 26.4913 94.1074 26.6698 94.1417C26.8335 94.1814 26.8748 94.2491 26.7788 94.3502C26.5975 94.5816 26.7265 94.7993 26.9903 94.7033C27.1662 94.6393 27.258 94.7547 27.3775 95.1744C27.4745 95.4865 27.682 95.8742 27.8444 96.0467C28.0067 96.2192 28.2728 96.5855 28.4284 96.8762C28.584 97.167 28.8981 97.4828 29.1178 97.5848C29.4373 97.7331 29.5038 97.8247 29.4211 98.0533C29.269 98.4561 29.5607 98.3003 30.3444 97.5353C30.9788 96.9074 32.7684 95.5778 33.1641 95.4338C33.2667 95.3965 33.2279 95.6091 33.0532 95.9043C32.7558 96.4095 32.7611 96.4241 33.0756 96.1939C33.3515 95.9942 35.5358 93.9254 36.3715 93.0754C36.9859 92.4382 36.4676 92.7923 35.4414 93.7116C34.8444 94.2598 34.2008 94.7256 33.9996 94.7658C33.3816 94.8915 39.0615 89.7969 39.8288 89.5342C39.9168 89.5022 39.7888 89.6976 39.5249 89.9757L39.045 90.4811L39.5114 90.2122C39.7592 90.0723 40.075 89.8912 40.1869 89.834C40.4494 89.6888 40.4736 89.2995 40.2098 89.3955C39.8288 89.5342 40.166 89.2295 40.667 88.9645C41.3438 88.6354 41.9315 88.1072 41.7904 87.9931C41.7252 87.9507 41.7612 87.8218 41.8772 87.73C42.0024 87.6182 42.057 87.6314 42.0263 87.7749C41.9902 87.9038 42.0595 87.9117 42.2287 87.784C42.3593 87.6868 42.8817 87.2982 43.38 86.9348C43.8877 86.5515 44.3409 86.155 44.3822 86.0407C44.4849 85.8214 44.3197 85.9146 43.1618 86.7C42.333 87.2497 42.4104 87.0065 43.2526 86.4022C43.6737 86.1001 44.2519 85.7738 44.545 85.6672C44.8381 85.5605 45.2698 85.2876 45.5203 85.064C46.2133 84.4148 48.0614 83.2459 49.1432 82.7529C49.6748 82.5263 50.2091 82.2161 50.3237 82.0751C50.5396 81.8476 50.7567 81.8513 50.8418 82.085C50.895 82.2311 49.2489 83.9551 48.9558 84.0618C48.8679 84.0938 48.7719 84.1949 48.7492 84.2693C48.7412 84.3384 49.2488 84.1371 49.9056 83.7988C50.5425 83.4512 51.1127 83.194 51.1726 83.2218C51.2178 83.255 51.2243 83.5008 51.1722 83.7679C51.0813 84.2476 51.0972 84.2914 51.4167 84.4398C51.7163 84.5789 51.8042 84.5469 52.2147 84.2155C53.0156 83.5436 52.8768 83.8918 51.9825 84.7632C51.5014 85.2196 51.0776 85.6054 51.0336 85.6214C50.8578 85.6854 49.8888 86.7163 49.8487 86.8798C49.7872 87.1668 50.1909 86.9537 50.9532 86.3123C51.5223 85.824 51.7461 85.7095 52.3308 85.629C52.6998 85.5939 53.2592 85.4896 53.5483 85.4175C54.0278 85.276 54.0185 85.2959 53.3296 85.7286C52.9219 85.9763 52.7287 86.1293 52.9245 86.0746C53.3108 85.9505 53.5023 86.2944 53.2198 86.6123C53.0758 86.7639 53.0877 86.8423 53.2315 86.8726C53.3407 86.8991 53.7631 86.6461 54.1389 86.3108C54.5347 85.9848 54.9078 85.7332 54.9824 85.7557C55.1874 85.863 54.6995 86.4376 54.2746 86.5923C54.0548 86.6723 53.8908 86.8146 53.9227 86.9023C53.9812 87.063 55.1269 86.5632 55.5707 86.1867C55.9998 85.8154 55.8263 86.3418 55.4025 86.7276C55.1426 86.9711 54.8361 87.3143 54.7174 87.4898C54.524 87.8248 54.5387 87.8195 55.0636 87.5292C55.3701 87.368 56.1203 86.8303 56.724 86.3459C57.3423 85.8562 58.0059 85.3996 58.211 85.3249C58.4162 85.2503 58.9651 84.9347 59.4355 84.6311C60.8079 83.7512 62.2307 83.1009 62.2279 83.3667C62.2411 83.4942 62.0411 83.7655 61.7999 83.9691C61.4721 84.2538 61.4534 84.2937 61.7399 84.1232C62.7885 83.4935 65.316 82.0938 65.9928 81.7648C66.952 81.2998 66.6174 81.7028 65.6249 82.213C65.2598 82.3955 64.9453 82.6257 64.9333 82.7294C64.9012 82.8237 64.5415 83.0208 64.1019 83.1808C63.6623 83.3408 63.2879 83.5433 63.2758 83.6469C63.2584 83.736 63.329 83.793 63.4369 83.7703C63.7353 83.6782 63.2769 84.0601 61.7004 85.2459C60.9169 85.8289 60.3718 86.2919 60.4997 86.2785C60.7008 86.2384 61.1326 85.9654 62.637 84.8554C64.34 83.607 66.6183 82.298 66.5475 82.605C66.4994 82.8376 66.8564 82.7242 68.1648 82.0329C68.8363 81.6893 69.6182 81.4212 70.6626 81.19C71.5057 80.9989 72.4689 80.6814 72.814 80.4896C73.159 80.2979 73.5014 80.1898 73.5426 80.2575C73.5985 80.3199 73.6918 80.3025 73.7637 80.2266C73.8304 80.1362 74.5325 79.831 75.3238 79.543C76.1298 79.2497 76.7972 78.9406 76.824 78.8316C76.836 78.728 76.4151 78.8481 75.693 79.144C75.0442 79.4132 74.5553 79.5746 74.598 79.5094C74.8047 79.1199 77.9449 77.58 78.483 77.5992C78.784 77.6054 78.7653 77.6453 78.4081 77.9407C77.7805 78.4504 77.9842 78.5086 78.8649 78.0557C79.8428 77.5509 80.012 77.4231 79.9163 77.1602C79.8632 77.0141 80.0324 76.8863 80.5013 76.7157C81.0289 76.5237 81.1474 76.5301 81.1379 76.7321C81.1484 76.9433 81.247 76.9405 81.7479 76.6755C82.0784 76.4891 82.5061 76.2507 82.6953 76.1322C82.8791 75.9991 83.0737 75.8952 83.1229 75.8938C83.1669 75.8778 84.5803 75.4295 86.2375 74.876C88.0319 74.2891 89.9901 73.7418 91.045 73.5398C92.0214 73.3498 93.2375 73.0891 93.737 72.957L94.6428 72.71L93.5946 72.7937C92.015 72.922 91.9351 72.8849 93.1633 72.5206C93.8973 72.3031 94.1651 72.1726 93.9427 72.1542C93.7549 72.1399 93.4699 72.1775 93.3234 72.2308C93.1569 72.2749 92.8905 72.2725 92.736 72.213C92.0983 71.9654 88.4287 72.507 86.9047 73.0616C86.4505 73.227 86.1361 73.2752 86.1974 73.1702C86.2868 73.0053 90.1392 71.9175 90.9211 71.8314C91.1475 71.8152 91.6884 71.5687 92.1294 71.2758L92.9342 70.7513L92.2417 70.6725C91.8556 70.6145 91.219 70.5981 90.8154 70.6292L90.0815 70.6647L91.0542 70.1453L90.018 70.1254C89.456 70.1315 88.3838 70.2405 87.6578 70.3889C86.2406 70.6897 85.5387 70.6309 86.8082 70.3343C87.5728 70.1552 87.3051 70.1038 86.2875 70.226C85.5163 70.3413 85.8614 70.1495 86.6912 70.0129C87.1334 69.9512 87.7048 69.9252 87.9671 69.9621C88.4625 70.0464 88.8169 69.8347 88.3509 69.7397C87.9194 69.6486 88.9866 69.1609 90.3293 68.8376C91.7359 68.5076 92.2395 68.3409 92.105 68.2906C92.065 68.272 91.2259 68.4286 90.2602 68.6477C87.8478 69.1784 87.166 69.1288 89.0696 68.5683C89.8475 68.3347 91.0823 68.0342 91.8083 67.8858C92.5395 67.7519 93.6864 67.4834 94.3765 67.2819C95.0518 67.0857 96.1841 66.8224 96.906 66.7086C97.608 66.5854 98.8494 66.3486 99.6593 66.2027C102.044 65.7319 103.82 65.5981 106.894 65.6538C107.832 65.6765 108.679 65.6328 108.765 65.5517C108.843 65.4904 108.306 65.3384 107.568 65.2264C106.811 65.1052 106.186 64.9851 106.17 64.9413C106.159 64.9121 106.379 64.8321 106.664 64.7945C107.15 64.7168 107.145 64.7022 106.782 64.5698C106.573 64.497 106.132 64.4259 105.811 64.4104C103.446 64.2952 101.784 64.1061 102.432 64.0189C102.703 63.9867 103.35 63.8503 103.899 63.7167C104.453 63.5977 105.091 63.4813 105.312 63.4505C105.623 63.4368 105.738 63.3449 105.739 63.1629C105.748 62.961 105.654 62.9292 105.346 63.0412C105.121 63.1066 104.722 63.1523 104.436 63.1407L103.927 63.1109L104.254 62.777C104.826 62.2049 104.469 61.9543 103.193 62.0051C101.882 62.052 100.696 61.938 101.072 61.7848C101.203 61.7367 101.371 61.7418 101.442 61.7989C101.673 61.9793 102.349 61.7831 102.352 61.5173C102.353 61.3845 102.464 61.2781 102.582 61.2845C102.715 61.2857 102.87 61.1633 102.93 61.0091C103.007 60.7658 103.071 60.7591 103.415 60.8822C103.784 61.0292 103.784 61.0292 103.579 60.7398C103.39 60.4943 103.403 60.4398 103.77 60.3065C104.004 60.2212 104.274 60.1889 104.389 60.2299C104.489 60.2763 104.843 60.2466 105.176 60.1585C105.778 59.989 105.778 59.989 105.559 59.5229C105.354 59.0516 105.369 59.0462 105.826 58.9792C106.081 58.9523 106.281 58.863 106.255 58.79C106.207 58.6585 105.962 58.7146 105.101 58.9948C104.402 59.2162 102.837 59.1572 102.958 58.898C103.033 58.7384 103.121 58.7064 103.301 58.7899C103.64 58.9475 104.04 58.769 104.047 58.4687C104.045 58.2376 104.104 58.2162 104.609 58.2807C104.92 58.3161 105.273 58.4193 105.369 58.5002C105.47 58.5957 105.663 58.6247 105.781 58.582C106.088 58.47 105.802 58.2764 105.123 58.1431C104.464 58.0191 104.594 57.922 105.307 58.01C105.584 58.0416 105.884 57.9987 105.999 57.9068C106.101 57.8203 106.351 57.7788 106.559 57.8025C106.871 57.8379 106.958 57.8059 106.999 57.6425C107.033 57.4644 107.214 57.415 107.791 57.4036C108.481 57.3841 108.525 57.3681 108.377 57.1903C108.23 57.0124 108.283 56.9765 108.72 56.9002C109.005 56.8626 109.293 56.7413 109.354 56.6363C109.477 56.4262 110.036 56.1398 110.897 55.8597C111.347 55.7289 111.466 55.7354 111.461 55.9519C111.453 56.5671 111.749 56.3767 111.801 55.7456C111.825 55.3563 111.92 55.024 112.008 54.992C112.374 54.8587 115.631 54.5501 118.098 54.3967C121.658 54.1927 125.007 54.2308 127.296 54.4563C128.315 54.5652 129.125 54.6014 129.098 54.5283C129.072 54.4553 128.863 54.3825 128.626 54.3695C128.389 54.3566 128.184 54.2492 128.19 54.131C128.197 54.0127 127.963 53.916 127.696 53.9137C127.425 53.8968 127.137 53.8361 127.067 53.7791C126.976 53.7128 127.084 53.69 127.277 53.719C127.47 53.748 127.716 53.741 127.819 53.7037C128.083 53.6077 127.538 53.3427 126.536 53.0956C126.004 52.9581 125.719 52.8137 125.826 52.7418C125.951 52.63 125.89 52.553 125.595 52.3794C125.125 52.1369 125.163 52.1063 125.958 52.1477C126.294 52.1579 126.61 52.1588 126.654 52.1428C126.844 52.0735 126.506 51.601 126.101 51.4009C125.717 51.2101 125.675 51.1424 125.809 50.9615C125.894 50.8312 126.074 50.7327 126.192 50.7392C126.656 50.7359 126.283 50.6235 125.158 50.4044C123.344 50.072 121.678 49.9174 120.253 49.9233C118.897 49.9371 118.584 49.8524 119.429 49.7105C119.9 49.6381 119.88 49.6289 119.143 49.5169C117.86 49.322 118.853 49.1759 120.297 49.3613C120.471 49.381 120.666 49.3262 120.733 49.2358C120.89 49.0297 118.335 48.9839 116.435 49.1458C114.025 49.3616 112.607 49.4804 112.08 49.4904C111.361 49.5205 106.445 50.2843 104.969 50.6065C103.14 51.0074 102.779 50.9734 103.674 50.5152C104.379 50.1263 107.439 49.4593 109.283 49.2842C109.78 49.2357 110.345 49.1459 110.53 49.062C110.721 48.9926 110.193 49.0026 109.367 49.1047C108.542 49.2067 107.7 49.265 107.507 49.236C107.308 49.1924 106.031 49.3761 104.667 49.641C103.303 49.9059 101.909 50.1322 101.569 50.1566C100.87 50.196 100.743 49.8946 101.389 49.7091C101.766 49.605 101.776 49.585 101.489 49.5735C100.99 49.5236 100.424 49.7462 100.625 49.8881C100.721 49.969 100.673 50.0196 100.481 50.0398C100.304 50.0546 99.4845 50.2205 98.6467 50.4262C96.8284 50.8564 96.4888 50.8807 96.9538 50.5626C97.215 50.3683 97.0912 50.3472 96.1908 50.4267C95.5954 50.478 95.1213 50.4521 95.144 50.3776C95.1667 50.3032 95.5691 50.041 96.0807 49.8051C96.8108 49.4401 97.4822 49.2785 99.6972 48.9355C101.205 48.701 102.742 48.4558 103.124 48.3663C103.507 48.2768 104.061 48.1578 104.355 48.1003C105.439 47.8876 102.713 48.1025 100.325 48.4258C97.2042 48.8338 92.8099 49.573 92.2384 49.781C92.004 49.8663 91.6444 49.8814 91.4407 49.8232C91.2516 49.7597 90.9946 49.7375 90.892 49.7748C90.5842 49.8868 90.089 49.6204 90.2916 49.4474C90.3635 49.3716 90.2743 49.3545 90.0692 49.4291C89.8587 49.4892 89.5683 49.5122 89.4245 49.4818C89.2261 49.4382 89.3714 49.3357 89.9522 49.1078L90.7475 48.7852L89.8045 48.9299C89.2837 49.0037 88.9587 49.0227 89.0853 48.9601C89.2119 48.8975 89.3652 48.7259 89.4252 48.5717C89.4852 48.4175 89.6105 48.3058 89.7197 48.3322C89.8236 48.344 89.8276 48.3095 89.7371 48.2432C89.616 48.1384 89.4987 48.181 89.3455 48.3526C89.0775 48.6652 88.2423 48.9692 87.8801 48.886C87.647 48.8385 87.6364 48.8092 87.8056 48.6815C87.9989 48.5284 91.0231 47.0803 91.5214 46.899C91.6533 46.851 91.7239 46.726 91.6627 46.649C91.6056 46.5375 91.8601 46.2794 92.3065 46.0011L93.0433 45.5179L92.1614 45.9216C91.021 46.436 88.7937 47.0647 88.9843 46.8133C89.0603 46.7029 89.5666 46.4525 90.0941 46.2605C90.6217 46.0685 91.7634 45.6033 92.6214 45.2249C94.3719 44.4719 94.1576 44.3845 92.0475 44.9705C91.3722 45.1667 90.5689 45.3764 90.2692 45.4193C89.823 45.5155 89.7777 45.4824 89.9803 45.3094C90.1349 45.187 89.8006 45.2259 89.0266 45.4249C88.3606 45.6012 87.7372 45.7122 87.6227 45.6712C87.5282 45.6395 87.2911 45.6265 87.1087 45.6267C86.9315 45.6416 87.0341 45.6042 87.3232 45.5321C88.49 45.2728 90.1446 44.621 90.31 44.3458C90.3993 44.1809 90.8323 43.9571 91.4584 43.7623C92.0792 43.5529 92.3563 43.4024 92.2125 43.3721C92.0141 43.3285 92.0128 43.2793 92.1714 43.1224C92.4899 42.8575 92.9402 42.7268 92.9986 42.8874C93.0252 42.9605 92.9492 43.0708 92.832 43.1135C92.7148 43.1562 92.6335 43.2519 92.6654 43.3396C92.6973 43.4272 93.4419 43.2389 94.5316 42.8588C98.5733 41.4705 98.275 41.5625 104.023 40.3473C107.907 39.5291 109.68 39.2477 110.323 39.3279C110.793 39.3884 111.66 38.99 111.575 38.7563C111.549 38.6833 111.27 38.6026 110.979 38.5764C110.43 38.528 110.43 38.528 110.852 38.457C111.152 38.4141 111.244 38.3476 111.148 38.2666C111.078 38.2096 110.904 38.1899 110.787 38.2326C110.67 38.2752 110.45 38.1732 110.303 37.9954C110.155 37.8176 109.921 37.7209 109.759 37.7796C109.613 37.8329 109.301 37.7974 109.062 37.6862C108.827 37.5895 108.576 37.5819 108.518 37.6523C108.452 37.7428 108.241 37.8028 108.029 37.8137L107.664 37.8142L107.999 37.5932L108.328 37.3577L107.874 37.341C107.607 37.3387 107.389 37.2858 107.368 37.2274C107.331 37.1251 108.624 36.8033 109.161 36.7733C109.309 36.7691 109.085 36.7017 108.644 36.6305C107.728 36.4843 107.741 36.4298 108.732 36.4165C109.561 36.4127 109.561 36.4128 109.497 36.2375C109.476 36.179 108.991 36.1239 108.423 36.1153C107.847 36.1267 107.056 36.0507 106.659 35.9636C106.257 35.8618 105.419 35.7035 104.805 35.6126C104.191 35.5217 103.655 35.3697 103.643 35.2913C103.626 35.1983 103.808 35.0161 104.056 34.8762C104.298 34.7218 104.429 34.6247 104.336 34.6421C104.248 34.6741 103.842 34.6068 103.46 34.5143C103.072 34.4072 102.533 34.3389 102.252 34.3419C101.985 34.3396 101.708 34.3081 101.643 34.2656C101.573 34.2086 101.226 34.1692 100.867 34.1843C99.3485 34.2076 100.042 33.5583 102.739 32.4441C103.881 31.9789 104.778 31.5698 104.738 31.5513C104.692 31.5181 104.298 31.5293 103.86 31.5564L103.087 31.6226L103.787 31.4011C104.276 31.2397 104.426 31.1518 104.281 31.0723C104.151 30.9874 104.432 30.8024 105.275 30.4293C107.254 29.5272 107.645 29.4178 108.125 29.6403C108.624 29.8722 108.821 29.6846 109.053 28.7729L109.215 28.1682L108.383 27.8425C107.934 27.6584 107.274 27.4852 106.927 27.4458C106.191 27.383 105.978 26.9808 106.566 26.8166C106.776 26.7565 106.839 26.7006 106.72 26.6941C106.552 26.689 106.531 26.6306 106.605 26.4219C106.691 26.1588 106.548 26.1284 104.963 26.0601C104.83 26.0589 105.049 25.9789 105.461 25.8787C105.966 25.7612 106.146 25.6626 106.035 25.587C105.959 25.5154 105.786 25.4957 105.654 25.5437C105.522 25.5917 104.927 25.643 104.316 25.6504C103.399 25.6862 103.161 25.624 102.902 25.3215C102.628 25.0242 102.594 24.8874 102.72 24.5937C102.849 24.2653 102.829 24.2561 102.404 24.4107C102.14 24.5068 101.909 24.5084 101.882 24.4354C101.744 24.0556 105.383 23.2935 109.259 22.9084C110.395 22.7926 110.99 22.5593 110.889 22.2818C110.863 22.2088 110.619 22.132 110.338 22.1351C109.855 22.1291 109.594 21.9594 109.902 21.8474C109.989 21.8154 110.027 21.7356 110.006 21.6772C109.931 21.4727 109.132 21.4657 108.619 21.6524C108.355 21.7484 107.824 21.793 107.414 21.7603C106.92 21.7251 106.061 21.8724 104.836 22.2021C100.121 23.4718 97.9549 23.9955 97.7299 23.8789C97.4903 23.7676 102.913 22.3893 106.278 21.694C106.881 21.5737 108.024 21.3397 108.838 21.1592C109.657 20.9934 110.383 20.845 110.462 20.8329C110.962 20.7499 110.738 20.6333 109.972 20.5812C109.478 20.5459 109.07 20.4296 109.048 20.322C109.045 20.2237 108.915 20.1388 108.787 20.1523C108.575 20.1632 108.58 20.1778 108.824 20.2545C109.068 20.3312 109.058 20.3512 108.812 20.3582C108.649 20.3677 108.472 20.3825 108.443 20.3932C108.399 20.4092 108.378 20.3508 108.395 20.2617C108.418 20.1873 108.134 20.092 107.759 20.0633C107.161 20.0162 107.101 19.9884 107.262 19.7477C107.499 19.3967 107.163 19.1553 106.79 19.4069C106.63 19.5148 106.282 19.6082 106.021 19.6205C105.577 19.6331 105.592 19.6277 106.141 19.4941L106.754 19.3538L106.229 19.2801C105.947 19.234 105.57 19.1561 105.415 19.0965C105.146 18.9959 104.472 19.0593 102.68 19.3313C102.287 19.3916 101.483 19.6013 100.912 19.8093C100.32 20.008 99.7664 20.127 99.6958 20.07C99.4895 19.9135 102.001 19.198 103.426 19.0102C105.2 18.778 105.067 18.5948 103.231 18.75C102.296 18.8256 101.503 18.8333 101.471 18.7457C101.418 18.5996 102.827 18.1859 103.556 18.1358C103.846 18.1128 103.899 18.0769 103.758 17.9628C103.617 17.8487 103.68 17.7929 104.029 17.7486C104.323 17.691 104.498 17.5779 104.556 17.3745C104.628 17.1167 104.907 17.0154 107.325 16.3173C109.052 15.8208 110.141 15.5736 110.394 15.6304C110.627 15.6779 110.828 15.6378 110.928 15.5021C111.248 15.1045 113.161 14.524 113.858 14.6174C114.542 14.7162 115.144 14.5467 115.714 14.1075C116.014 13.8826 116.008 13.868 115.514 14.0147C115.216 14.1068 115.097 14.1003 115.228 14.0032C115.465 13.8341 115.445 13.8249 115.092 13.7217C114.874 13.6688 114.713 13.5455 114.73 13.4565C114.762 13.3621 114.568 13.284 114.302 13.2817C113.986 13.2808 113.886 13.2344 114.001 13.0934C114.101 12.9578 113.832 12.8571 113.158 12.7385C112.118 12.5711 111.838 12.4413 112.553 12.4457C112.791 12.4586 113.12 12.405 113.295 12.341L113.603 12.229L113.174 12.0542C112.94 11.9576 112.643 11.9168 112.491 11.9555C112.33 12.0142 112.285 11.981 112.386 11.8945C112.463 11.8333 112.49 11.7243 112.42 11.6673C112.258 11.544 113.805 11.0968 114.358 11.1107C114.743 11.1195 114.86 11.0769 114.909 10.8934C114.959 10.71 115.023 10.7033 115.258 10.8491C115.514 11.0042 115.558 10.9882 115.65 10.7397C115.733 10.5111 115.646 10.4102 115.18 10.1332C114.865 9.95023 114.521 9.82713 114.413 9.84986C114.291 9.87792 113.83 9.79749 113.373 9.6825C112.529 9.46042 112.239 9.30138 112.717 9.29278C113.122 9.31084 113.073 8.94821 112.651 8.83717C112.134 8.69437 111.985 8.28537 112.443 8.26749C112.739 8.25913 112.758 8.21925 112.558 7.9445C112.277 7.58351 111.56 7.29882 110.59 7.1885C109.828 7.10182 109.365 6.92308 109.887 6.89848C110.409 6.87387 109.321 6.57506 107.781 6.30873C106.185 6.02918 105.865 5.83165 107.27 5.99852C108.244 6.12345 108.323 6.11138 108.254 5.92149C108.227 5.84846 107.905 5.78379 107.555 5.77893C107.184 5.76481 106.828 5.69619 106.737 5.62989C106.667 5.57285 106.435 5.57449 106.244 5.64382C106.054 5.71316 105.822 5.71479 105.752 5.65776C105.676 5.58612 105.313 5.5029 104.962 5.44889C103.581 5.25675 104.784 5.23257 106.446 5.42169C107.424 5.51206 108.086 5.55238 107.921 5.46358C107.307 5.19071 105.206 4.97959 103.022 4.99709C100.664 4.9949 99.7602 4.927 100.63 4.80894C100.9 4.7767 101.817 4.74095 102.674 4.72653C104.479 4.71484 104.336 4.73363 104.267 4.54374C104.235 4.45609 104.006 4.37403 103.749 4.35178C103.483 4.34947 102.888 4.21873 102.411 4.09448C101.452 3.83137 99.3455 3.78765 97.7778 3.99432C97.2077 4.06947 96.5591 4.15669 96.3327 4.17293L95.9344 4.21863L96.2635 3.98303C96.5007 3.814 96.3183 3.81424 95.5297 4.01855C93.8499 4.46451 90.2974 5.32745 89.1545 5.56146C88.5711 5.6911 88.0622 5.84323 88.0049 5.91371C87.9475 5.9842 87.5999 6.07767 87.2163 6.11803C86.838 6.173 85.6325 6.46289 84.5508 6.77387C83.1268 7.19292 82.4302 7.33068 82.1026 7.2514C81.542 7.1246 81.417 6.87234 81.9032 6.79465C82.5958 6.69143 85.3879 5.79096 85.047 5.76617C84.8645 5.76641 83.9188 5.99485 82.9597 6.27777C81.6928 6.67269 81.0548 6.78912 80.634 6.72724C79.8763 6.60601 79.6767 6.33126 80.2761 6.24544C81.2098 6.12065 80.1723 6.05161 79.1055 6.17525C78.5301 6.2358 77.8841 6.2393 77.6951 6.17578C77.3768 6.07656 77.3862 6.05662 77.7991 6.00559C78.0548 5.97868 78.2054 5.8908 78.1735 5.80315C78.1043 5.61327 77.0921 5.75011 76.9254 5.97619C76.8535 6.05201 76.7695 6.04946 76.7376 5.96182C76.7004 5.85957 76.5819 5.85309 76.4806 5.93958C76.3847 6.04067 76.2421 6.05946 76.1716 6.00243C76.0811 5.93612 76.3236 5.78168 76.7339 5.63235C77.388 5.37773 77.4173 5.36706 77.0591 5.24929C76.701 5.13152 76.7103 5.11159 77.2164 5.04316C77.5947 4.98818 77.7066 4.93091 77.5709 4.83145C77.4551 4.74126 77.5617 4.66938 78.0132 4.58774L78.602 4.47271L78.0879 4.42821L77.5792 4.39833L77.9962 4.13074C78.2294 3.99625 78.5957 3.86291 78.8022 3.83739C79.0726 3.80515 79.1259 3.76921 78.9808 3.68969C78.8556 3.61944 78.0712 3.60719 77.2241 3.65082C75.55 3.74736 74.3887 3.65723 74.6299 3.45364C74.8911 3.25933 74.5422 3.12162 74.1319 3.27096C73.9121 3.35096 73.4353 3.40872 73.0704 3.4092L72.4045 3.40344L73.0612 3.24713C73.4142 3.16828 73.9923 3.02403 74.3599 2.93984C75.1591 2.76475 74.7517 2.64838 73.8779 2.80099C73.441 2.87729 73.2772 2.83765 73.2774 2.65564C73.2828 2.48823 73.159 2.46714 72.7926 2.60048C72.1771 2.82449 71.7483 2.8317 71.8017 2.61375C71.8191 2.52471 71.5474 2.5078 71.1944 2.58665C70.4339 2.73114 70.1436 2.57209 70.7591 2.34808C70.9936 2.26275 71.2161 2.09904 71.2335 2.01001C71.2455 1.90636 71.4454 1.81709 71.6665 1.78624C71.9369 1.754 72.0288 1.68745 71.9703 1.52677C71.8161 1.10316 70.0633 1.39377 67.1246 2.34757C65.6139 2.84778 64.86 3.05603 65.4555 2.82275C66.8023 2.2829 69.0166 1.16266 69.2512 0.895313C69.4712 0.633299 67.8113 1.27054 66.7027 1.87251ZM56.0207 6.71991C55.3558 7.12733 54.4804 7.59481 54.0754 7.75876C53.5825 7.95471 53.4519 8.05186 53.669 8.05556C53.97 8.06181 53.9753 8.07641 53.6702 8.28673C53.501 8.41449 53.2531 8.55432 53.1359 8.59699C52.9601 8.66099 52.9494 8.63178 53.0734 8.47086C53.188 8.32988 53.1668 8.27145 53.003 8.23182C52.6261 8.15393 42.6921 11.8193 41.9605 12.3171C41.5968 12.5487 40.5949 13.0788 39.7276 13.4772C38.8749 13.8703 37.9889 14.3085 37.7611 14.4576C37.5039 14.6174 37.396 14.6401 37.4521 14.5205C37.8362 13.7521 46.1268 10.0398 53.6536 7.28369L57.2438 5.97696L56.0207 6.71991ZM35.1849 15.1306C34.1535 15.8534 33.3981 16.1945 33.1918 16.038C33.0054 15.8908 33.7636 15.466 35.7486 14.6277C35.9537 14.553 35.7032 14.7766 35.1849 15.1306ZM43.82 11.9546C43.7027 12.1793 42.4075 12.9981 41.8946 13.1847C41.0887 13.4781 41.7337 12.8794 42.7463 12.3785C43.3258 12.1014 43.8174 11.8563 43.8561 11.8257C43.8854 11.815 43.872 11.8695 43.82 11.9546ZM44.5714 11.648C44.5434 11.7079 44.4168 11.7705 44.2983 11.764C44.1651 11.7628 44.1931 11.703 44.3543 11.6443C44.5102 11.5711 44.6141 11.5829 44.5714 11.648ZM32.8 16.3295C32.4868 16.6089 28.3193 18.8371 28.2048 18.796C28.0796 18.7258 31.8196 16.554 32.4644 16.3193C32.9134 16.1394 32.9826 16.1472 32.8 16.3295ZM39.9883 13.8289C39.8964 13.8955 39.7206 13.9595 39.622 13.9623C39.5035 13.9558 39.5661 13.8999 39.7713 13.8252C39.9764 13.7506 40.0603 13.7531 39.9883 13.8289ZM41.4257 13.3554C41.4523 13.4284 41.2444 13.5868 40.9513 13.6935C40.6436 13.8055 40.4465 13.8111 40.4732 13.7021C40.4853 13.5984 40.6985 13.4547 40.9476 13.364C41.1821 13.2787 41.3938 13.2678 41.4257 13.3554ZM27.8703 19.017C27.833 19.0968 25.6823 20.5743 25.5211 20.633C25.1987 20.7503 25.7332 20.2581 26.47 19.7748C27.3614 19.1692 27.945 18.8575 27.8703 19.017ZM24.9121 21.1028C24.7202 21.305 24.4444 21.5046 24.3272 21.5473C24.2099 21.59 24.2753 21.4504 24.4725 21.2628C24.6791 21.0553 24.9403 20.8609 25.0575 20.8183C25.1748 20.7756 25.124 20.9099 24.9121 21.1028ZM12.081 32.5387C11.9609 32.8471 11.4439 33.2503 11.496 32.9832C11.5134 32.8941 11.6614 32.708 11.8106 32.5709C12.1718 32.241 12.1864 32.2356 12.081 32.5387ZM78.4001 9.16144C78.4267 9.23448 78.5998 9.25418 78.785 9.17023C79.0927 9.05822 79.0874 9.04362 78.7611 9.0135C78.5041 8.99125 78.5574 8.95531 78.965 8.88967C79.2646 8.84676 80.8685 8.32916 82.5351 7.75568C84.3628 7.12353 86.1438 6.59108 87.0323 6.43314C89.1128 6.0398 90.4902 5.72045 91.6744 5.37213C92.2472 5.21327 92.812 5.12351 92.9318 5.17916C93.2114 5.30898 93.5924 5.17031 93.3861 5.01381C93.265 4.90902 93.4261 4.85035 93.9803 4.73137C94.4025 4.6604 94.9167 4.52288 95.1458 4.42294C95.5948 4.24299 95.6919 4.37306 95.4678 4.85163C95.3651 5.07098 95.1812 5.20408 94.9108 5.23632C94.1143 5.32772 92.7597 5.57264 92.0883 5.73428C91.706 5.82379 90.9801 5.97222 90.4699 6.0752C88.8316 6.40685 88.9181 6.5077 90.5924 6.22914C91.4861 6.08581 92.3465 5.98769 92.5103 6.02733C92.7287 6.08019 92.6901 6.11079 92.3317 6.17503C89.9768 6.63517 86.1124 7.64467 86.2788 7.78262C86.344 7.82504 86.982 7.70862 87.7014 7.49642C89.1014 7.10265 92.3516 6.36632 92.4567 6.42729C92.5912 6.4776 88.5322 7.77299 87.3707 8.04688C86.694 8.19392 85.9254 8.40751 85.6323 8.51418C85.1541 8.70479 85.1447 8.72473 85.4776 8.81862C85.8305 8.92178 85.8211 8.94172 85.4055 9.07646C84.858 9.25919 82.5563 9.68338 82.8973 9.52617C83.0239 9.46356 83.1146 9.34785 83.088 9.27482C83.0189 9.08492 82.5353 9.26093 82.4139 9.52016C82.3579 9.63981 82.178 9.73836 82.0249 9.72793C81.7931 9.72957 81.7572 9.67647 81.8865 9.53016C81.9958 9.37457 81.9705 9.35069 81.78 9.42003C81.6481 9.46803 81.5082 9.58513 81.4962 9.68877C81.4521 9.88678 77.658 11.3173 77.4383 11.2153C77.3638 11.1928 76.8842 11.3343 76.362 11.5409C75.7718 11.7888 75.3988 11.8584 75.3669 11.7707C75.335 11.6831 75.4989 11.5407 75.7188 11.4607C75.9386 11.3807 76.1758 11.2117 76.2411 11.0721C76.3158 10.9126 76.4184 10.8752 76.5875 10.9295C76.931 11.0526 79.7258 10.2504 79.7739 10.0179C79.7913 9.92884 79.5342 9.90659 79.1613 9.97617C78.8176 10.0351 78.2743 10.0013 77.9707 9.8967C77.6618 9.77754 77.1877 9.75159 76.9333 9.82766C76.5323 9.95705 76.5709 9.92645 77.0812 9.64146C78.0485 9.10743 78.3416 9.00076 78.4001 9.16144ZM10.0537 34.7653C10.1334 34.9845 8.26237 36.5918 8.04269 36.4898C7.88824 36.4302 8.20817 36.0326 8.53056 35.9152C8.66244 35.8672 8.73844 35.7569 8.69188 35.6745C8.63068 35.5976 8.85062 35.3356 9.17975 35.1C9.98326 34.5263 9.96861 34.5316 10.0537 34.7653ZM68.9291 13.3695C68.9011 13.4294 68.7745 13.492 68.656 13.4855C68.5228 13.4843 68.5508 13.4245 68.712 13.3658C68.8679 13.2926 68.9718 13.3044 68.9291 13.3695ZM70.6343 12.7655C70.3811 12.8907 69.9415 13.0507 69.6818 13.1121C69.4073 13.1789 69.6019 13.075 70.1294 12.883C70.657 12.691 70.8727 12.6456 70.6343 12.7655ZM72.739 12.1648C72.647 12.2314 72.4419 12.306 72.2994 12.3248C72.1369 12.3343 72.2142 12.2731 72.4486 12.1878C72.6977 12.0971 72.8109 12.089 72.739 12.1648ZM74.4028 11.675C74.4066 11.8225 74.5664 11.8967 74.8568 11.8737C75.556 11.8343 73.1567 12.8564 71.5941 13.2597C70.8841 13.452 69.6918 13.8694 68.9405 14.176C67.8774 14.6291 67.6669 14.6891 67.9614 14.4496C68.5597 13.9506 72.6789 12.319 73.0025 12.4328C73.1516 12.4778 73.4167 12.431 73.5965 12.3324C73.7711 12.2193 73.9803 12.11 74.0535 12.0834C74.1068 12.0474 74.0989 11.9345 73.9978 11.839C73.886 11.7142 73.9327 11.6145 74.1232 11.5452C74.299 11.4812 74.3989 11.5276 74.4028 11.675ZM74.909 11.4246C74.9356 11.4976 74.9329 11.5813 74.9036 11.592C74.8596 11.608 74.7598 11.5616 74.6892 11.5046C74.6134 11.433 74.6214 11.3639 74.6947 11.3372C74.7826 11.3052 74.8771 11.337 74.909 11.4246ZM98.3557 4.2141C100.18 4.02968 101.735 4.05951 101.623 4.29879C101.595 4.35861 101.364 4.4094 101.112 4.40176C100.866 4.40874 100.341 4.51704 99.9695 4.63577C99.6032 4.76911 99.0677 4.84821 98.7854 4.80208C98.5084 4.77056 98.1488 4.78565 97.9876 4.84432C97.8264 4.90299 97.4961 4.90741 97.2724 4.83995C97.0541 4.7871 96.7491 4.8154 96.6238 4.92716C96.348 5.12682 96.0484 4.98771 96.1099 4.70066C96.1673 4.44816 96.2313 4.44143 98.3557 4.2141ZM86.5446 8.51297C86.6351 8.57928 86.5245 8.68571 86.3047 8.76571C86.0849 8.84572 85.9317 8.83529 85.9585 8.72632C85.9705 8.62267 86.0811 8.51624 86.1984 8.47357C86.3156 8.4309 86.4688 8.44133 86.5446 8.51297ZM76.6465 12.2314C76.5012 12.3339 76.4705 12.4774 76.557 12.5783C76.7247 12.7654 76.2384 13.0251 76.0267 12.854C75.9615 12.8116 75.7457 12.857 75.5565 12.9755C75.362 13.0794 75.1901 13.1088 75.1582 13.0212C75.1264 12.9336 75.2357 12.778 75.4156 12.6794C75.8233 12.4318 76.9516 12.0211 76.6465 12.2314ZM87.7701 8.23235C87.9564 8.37958 87.3263 8.60892 86.9641 8.5257C86.7657 8.48212 86.8084 8.41697 87.1601 8.28896C87.4092 8.19829 87.6942 8.16071 87.7701 8.23235ZM96.176 5.33828C96.2465 5.39532 96.2438 5.47902 96.1705 5.50568C96.0826 5.53768 95.9828 5.49132 95.9562 5.41828C95.9243 5.33064 95.9323 5.26154 95.9616 5.25088C96.0056 5.23488 96.1001 5.26664 96.176 5.33828ZM87.1677 8.7659C87.522 8.7362 87.8297 8.6242 88.0949 8.39534C88.4228 8.11059 88.516 8.0932 88.7516 8.23903C88.9274 8.35704 89.1245 8.35146 89.299 8.2383C89.4443 8.13581 89.6507 8.11029 89.7465 8.19122C89.8823 8.29067 89.7611 8.36789 89.2562 8.48547C88.8886 8.56966 88.4317 8.63669 88.2586 8.61699C88.0269 8.61862 87.9882 8.64923 88.104 8.73942C88.3609 8.94368 87.856 9.06126 87.0504 8.99058C86.2992 8.93312 86.3606 8.82808 87.1677 8.7659ZM100.56 5.89313C102.018 5.66004 103.585 5.58623 103.495 5.75108C103.491 5.78563 102.351 5.93594 101.003 6.0626C98.2689 6.34654 98.1144 6.28696 100.56 5.89313ZM4.31426 42.8426C4.28625 42.9024 4.15968 42.965 4.04115 42.9585C3.90797 42.9574 3.93598 42.8975 4.09718 42.8389C4.25305 42.7656 4.35693 42.7774 4.31426 42.8426ZM99.5696 8.73489L99.9106 8.75968L99.6175 8.86636C99.4563 8.92502 99.0394 9.01061 98.6957 9.06952L98.0617 9.1514L98.6479 8.93805C98.9702 8.82071 99.3819 8.72053 99.5696 8.73489ZM5.27732 46.2637C5.28795 46.2929 5.21195 46.4032 5.09602 46.4951C4.99474 46.5816 4.9308 46.5883 4.94287 46.4846C4.97763 46.3066 5.23478 46.1468 5.27732 46.2637ZM8.42764 45.481C8.39963 45.5408 8.27306 45.6034 8.15453 45.5969C8.02135 45.5958 8.04936 45.5359 8.21056 45.4773C8.36643 45.404 8.47031 45.4158 8.42764 45.481ZM11.9222 45.5986C12.0633 45.7126 11.4182 46.4934 11.1571 46.5057C10.9453 46.5166 11.3122 45.6552 11.576 45.5592C11.6932 45.5165 11.8317 45.5323 11.9222 45.5986ZM111.789 9.25016C112.255 9.34521 111.95 9.55552 111.425 9.48181C111.019 9.41459 110.993 9.39071 111.228 9.30538C111.384 9.2321 111.64 9.20519 111.789 9.25016ZM66.5549 27.3185C66.3457 27.4277 65.95 27.5717 65.6756 27.6385C65.4012 27.7053 65.5664 27.6121 66.05 27.4361C66.5336 27.2601 66.764 27.2093 66.5549 27.3185ZM113.334 10.6232C113.646 10.6586 114.109 10.6554 114.365 10.6285C114.748 10.5881 114.808 10.6159 114.635 10.7782C114.51 10.89 114.181 10.9436 113.884 10.9028C113.592 10.8766 113.282 10.8903 113.19 10.9568C113.093 11.0088 113.078 11.0141 113.121 10.949C113.169 10.8984 113.067 10.8029 112.878 10.7394C112.411 10.5952 112.671 10.5337 113.334 10.6232ZM63.2665 29.2267C63.0519 29.5033 61.3825 30.3425 61.3347 30.211C61.2762 30.0504 62.125 29.5098 62.8084 29.2446C63.3066 29.0632 63.4198 29.0551 63.2665 29.2267ZM81.9401 23.5384C81.731 23.6476 81.3353 23.7916 81.0609 23.8584C80.7865 23.9252 80.9517 23.832 81.4353 23.6559C81.9189 23.4799 82.1493 23.4291 81.9401 23.5384ZM77.7437 25.2312C77.4466 25.3724 76.919 25.5644 76.5714 25.6579C76.209 25.7567 76.4475 25.6368 77.0923 25.4021C77.7371 25.1674 78.0261 25.0953 77.7437 25.2312ZM71.7485 27.9095C71.5247 28.024 71.173 28.1521 70.9426 28.2028C70.6975 28.259 70.8773 28.1604 71.3169 28.0004C71.7566 27.8404 71.9577 27.8003 71.7485 27.9095ZM69.1773 28.9611C69.1933 29.0049 69.1613 29.0993 69.0893 29.1751C69.032 29.2456 68.9481 29.2431 68.9215 29.17C68.8896 29.0824 68.9363 28.9827 69.0095 28.956C69.0975 28.924 69.1667 28.9319 69.1773 28.9611ZM71.8994 29.1449C72.2909 29.2174 72.3109 29.2267 72.0525 29.3373C71.4663 29.5506 70.6059 29.6488 70.6366 29.5052C70.6794 29.2581 71.4041 29.0605 71.8994 29.1449ZM5.07016 54.4943C4.8794 54.9277 4.65972 54.8257 4.73067 54.3367C4.77749 54.055 4.84946 53.9791 5.00922 54.0533C5.16899 54.1275 5.19687 54.2497 5.07016 54.4943ZM68.9206 32.1314C68.9033 32.2204 68.8273 32.3308 68.7393 32.3628C68.6661 32.3895 68.5809 32.3378 68.5543 32.2647C68.5224 32.1771 68.6037 32.0813 68.7356 32.0333C68.8528 31.9907 68.9327 32.0278 68.9206 32.1314ZM102.499 19.9759C102.952 19.9434 103.175 19.9617 103.013 20.0204C102.588 20.1751 101.063 20.3166 101.404 20.1594C101.566 20.1007 102.066 20.0177 102.499 19.9759ZM84.568 26.8829C84.3882 26.9814 84.0951 27.0881 83.9086 27.1229C83.7075 27.163 83.8434 27.0804 84.2097 26.9471C84.5761 26.8138 84.7332 26.7896 84.568 26.8829ZM85.5938 26.5095C85.5018 26.5761 85.326 26.6401 85.2274 26.6428C85.1089 26.6364 85.1716 26.5805 85.3767 26.5058C85.5819 26.4311 85.6658 26.4337 85.5938 26.5095ZM104.604 19.7393C104.576 19.7991 104.449 19.8617 104.331 19.8552C104.198 19.8541 104.226 19.7943 104.387 19.7356C104.543 19.6623 104.646 19.6741 104.604 19.7393ZM105.336 19.6546C105.244 19.7212 105.069 19.7852 104.97 19.788C104.851 19.7815 104.914 19.7256 105.119 19.6509C105.324 19.5763 105.408 19.5788 105.336 19.6546ZM88.4693 26.3396C87.963 26.5901 87.6912 26.7552 87.863 26.7257C88.4318 26.6014 86.6692 27.458 84.6935 28.2763C83.4492 28.7788 82.9457 28.9456 83.2854 28.7392C83.5813 28.5488 83.8783 28.4076 83.9529 28.4301C84.0222 28.438 84.206 28.3049 84.3447 28.1386C84.6273 27.8207 86.3859 26.9987 88.2856 26.2907L89.3846 25.8907L88.4693 26.3396ZM92.5803 24.9591C92.3565 25.0737 92.0048 25.2017 91.7744 25.2525C91.5293 25.3086 91.7091 25.2101 92.1487 25.0501C92.5884 24.89 92.7895 24.8499 92.5803 24.9591ZM81.2032 29.6294C81.2297 29.7025 81.1737 29.8221 81.1017 29.8979C80.8699 30.0816 80.5143 30.0621 80.5584 29.8641C80.5972 29.6515 81.1394 29.4542 81.2032 29.6294ZM95.6426 24.3905L96.1247 24.3473L95.6851 24.5073C95.4506 24.5927 95.0337 24.6782 94.7634 24.7105L94.2812 24.7536L94.7208 24.5936C94.9699 24.5029 95.3869 24.4174 95.6426 24.3905ZM96.7296 24.0941C96.7015 24.1539 96.575 24.2165 96.4565 24.21C96.3233 24.2089 96.3513 24.1491 96.5125 24.0904C96.6684 24.0171 96.7722 24.0289 96.7296 24.0941ZM103.042 22.9711C104.116 22.7292 104.975 22.5819 104.956 22.6218C104.891 22.7614 100.254 23.837 100.059 23.7589C99.8397 23.6569 99.9329 23.6395 103.042 22.9711ZM105.854 22.4439C105.762 22.5105 105.557 22.5851 105.414 22.6039C105.252 22.6134 105.329 22.5522 105.563 22.4669C105.812 22.3762 105.926 22.3681 105.854 22.4439ZM6.45206 58.8382C6.12021 59.1575 5.88574 59.2428 6.08571 58.9715C6.17636 58.8558 6.36025 58.7227 6.47748 58.6801C6.62402 58.6267 6.61066 58.6812 6.45206 58.8382ZM30.5895 52.2034C30.4549 52.3351 30.2417 52.4789 30.1244 52.5215C29.9926 52.5695 29.9859 52.5058 30.1499 52.3634C30.2845 52.2317 30.4977 52.0879 30.6149 52.0453C30.7468 51.9973 30.7534 52.061 30.5895 52.2034ZM12.1929 61.4798C12.0836 61.6353 12.0769 61.7536 12.1501 61.7269C12.238 61.6949 12.2207 61.784 12.13 61.8997C11.9061 62.1962 11.7156 62.2656 11.7637 62.033C11.8158 61.7659 11.6999 61.8577 11.2413 62.4216C10.8441 62.8805 10.5976 63.0695 9.41837 63.7964L9.01597 64.0587L9.27067 63.6186C9.41734 63.3833 9.6133 63.1465 9.71587 63.1092C9.81845 63.0718 10.0397 62.859 10.197 62.6529C10.4876 62.2659 10.5023 62.2605 10.4901 62.5462C10.4858 62.9448 10.7483 62.7996 11.0004 62.2612C11.1218 62.002 11.299 61.8051 11.3976 61.8023C11.4961 61.7995 11.6894 61.6465 11.8174 61.451C12.112 61.0295 12.4676 61.0489 12.1929 61.4798ZM20.6574 58.5643C20.6294 58.6242 20.5029 58.6868 20.3843 58.6803C20.2511 58.6791 20.2792 58.6193 20.4404 58.5606C20.5962 58.4874 20.7001 58.4992 20.6574 58.5643ZM21.895 58.1801C21.9216 58.2531 21.6816 58.5059 21.3472 58.7268C21.0127 58.9478 20.7236 59.202 20.7062 59.291C20.6888 59.38 20.5782 59.4865 20.4463 59.5345C20.0799 59.6678 20.2373 59.4617 21.0462 58.7206C21.8938 57.9489 21.8259 57.9902 21.895 58.1801ZM8.00034 63.32C8.01097 63.3492 7.90696 63.5194 7.76302 63.6711C7.51377 63.9438 7.49911 63.9491 7.60987 63.6607C7.7153 63.3576 7.94186 63.1594 8.00034 63.32ZM13.5795 61.3225C13.6273 61.4539 12.5223 62.7494 12.3025 62.8294C12.2145 62.8614 12.1293 62.8097 12.1028 62.7367C12.0709 62.649 12.1375 62.5586 12.2401 62.5213C12.3427 62.4839 12.5919 62.2113 12.7959 61.9054C13.1466 61.3642 13.505 61.118 13.5795 61.3225ZM19.7993 59.1248C19.6406 59.4638 18.697 60.3366 18.6492 60.2051C18.5854 60.0298 18.8134 59.6987 19.2478 59.3421C19.7595 58.9242 19.9207 58.8656 19.7993 59.1248ZM20.0838 59.8153C20.0718 59.9189 19.9265 60.0214 19.76 60.0655C19.3977 60.1643 19.4498 59.8972 19.8308 59.7585C19.992 59.6998 20.1159 59.7209 20.0838 59.8153ZM14.2075 62.1361C14.2872 62.3552 13.7915 62.8168 13.4905 62.8106C13.2534 62.7976 13.2761 62.7232 13.5693 62.4345C14.0264 62.0034 14.1384 61.9462 14.2075 62.1361ZM5.87351 66.8236C5.85613 66.9126 5.76549 67.0283 5.69222 67.055C5.60429 67.087 5.56306 67.0193 5.58044 66.9303C5.5925 66.8266 5.68846 66.7255 5.76173 66.6988C5.84966 66.6668 5.88558 66.7199 5.87351 66.8236ZM100.58 32.6675C100.805 32.4201 100.899 32.4027 101.145 32.5777C101.431 32.7713 101.407 32.7966 100.544 33.1604C99.5634 33.5669 98.9453 33.6926 98.8656 33.4735C98.8018 33.2982 99.8103 32.8319 100.103 32.9072C100.218 32.9483 100.442 32.8337 100.58 32.6675ZM4.50731 68.3134C4.53389 68.3864 4.50186 68.4808 4.41393 68.5128C4.34066 68.5394 4.24081 68.4931 4.21423 68.42C4.18233 68.3324 4.23433 68.2473 4.3076 68.2206C4.39552 68.1886 4.47541 68.2257 4.50731 68.3134ZM10.0557 66.4593C10.1462 66.5257 10.0063 66.6427 9.74251 66.7388C9.47874 66.8348 9.29628 66.835 9.32299 66.726C9.33506 66.6224 9.48964 66.5 9.63618 66.4466C9.78272 66.3933 9.97983 66.3877 10.0557 66.4593ZM100.718 38.8371C101.263 38.9201 101.704 38.8092 101.272 38.7181C100.841 38.627 101.364 38.4696 103.392 38.1122C105.605 37.72 105.739 37.7211 105.456 38.039C105.26 38.2758 104.441 38.4416 103.126 38.523C102.865 38.5353 102.375 38.6476 102.038 38.7702C101.701 38.8929 100.996 39.0998 100.482 39.2373C99.7176 39.4163 99.5697 39.4205 99.6431 39.2118C99.7672 38.8689 100.09 38.7516 100.718 38.8371ZM92.4453 41.9143C92.6265 41.8649 92.7996 41.8846 92.8315 41.9723C92.8687 42.0745 92.4491 42.2438 91.5726 42.4801C89.7956 42.978 89.2322 42.9349 90.8414 42.4319C91.5408 42.2105 92.2548 41.9837 92.4453 41.9143ZM99.3845 39.5045C99.5789 39.5826 98.5799 39.847 98.3362 39.7702C98.1378 39.7267 98.2351 39.6747 98.6866 39.5931C99.0303 39.5342 99.3446 39.4859 99.3845 39.5045ZM96.4229 40.8967C98.5076 40.2868 99.8863 40.0166 100.868 40.0233C101.849 40.03 105.753 39.403 106.545 39.115C107.072 38.923 109.463 38.698 109.388 38.8575C109.37 38.8974 108.903 38.9844 108.348 39.0542C107.787 39.1094 105.434 39.6187 103.13 40.1757C99.2395 41.1122 97.6544 41.4079 98.6203 41.0067C99.4063 40.7041 98.4513 40.7705 97.1832 41.1163C95.1957 41.6742 93.7731 41.9604 93.5335 41.8491C93.3884 41.7696 93.5735 41.6857 94.1663 41.5361C94.6219 41.4199 95.6449 41.1302 96.4229 40.8967ZM93.4454 42.0631C93.516 42.1202 93.4839 42.2145 93.352 42.2625C93.2202 42.3105 93.135 42.2588 93.1523 42.1698C93.1644 42.0662 93.2164 41.9811 93.2457 41.9704C93.275 41.9597 93.3696 41.9915 93.4454 42.0631ZM87.1652 44.779C87.1372 44.8389 87.0106 44.9015 86.8921 44.895C86.7589 44.8938 86.787 44.834 86.9482 44.7753C87.104 44.7021 87.2079 44.7139 87.1652 44.779ZM85.3054 45.6876C85.288 45.7766 84.9335 45.9883 84.5379 46.1323C84.0836 46.2977 83.8132 46.3299 83.84 46.2209C83.852 46.1173 84.2118 45.9202 84.6074 45.7762C85.0617 45.6108 85.3321 45.5786 85.3054 45.6876ZM96.237 41.8907C96.0984 42.057 95.8786 42.137 95.5776 42.1307C95.1634 42.1326 95.1781 42.1273 95.7882 41.8887C96.3158 41.6966 96.3997 41.6992 96.237 41.8907ZM110.102 38.8127C110.246 38.8431 110.317 38.9001 110.229 38.9321C110.155 38.9588 109.953 38.9498 109.809 38.9194C109.665 38.889 109.609 38.8267 109.683 38.8C109.771 38.768 109.958 38.7824 110.102 38.8127ZM88.3821 47.1648C88.2462 47.2474 88.0117 47.3327 87.8692 47.3515C87.7067 47.361 87.8133 47.2891 88.0917 47.1878C88.3702 47.0865 88.498 47.073 88.3821 47.1648ZM30.1592 70.4902C30.0978 70.5952 27.8488 71.8935 27.4531 72.0375C26.6618 72.3256 28.6564 71.1033 30.0007 70.4651C30.1179 70.4225 30.1872 70.4304 30.1592 70.4902ZM29.3966 71.4956C29.2128 71.6287 28.7798 71.8524 28.4134 71.9858C27.7487 72.2112 27.7487 72.2112 28.2243 71.9223C28.4815 71.7625 28.9291 71.5334 29.2076 71.4321C29.6765 71.2614 29.6965 71.2707 29.3966 71.4956ZM17.7798 76.0546C17.5559 76.3512 17.0723 76.5272 17.1204 76.2946C17.1325 76.191 17.331 76.0525 17.5508 75.9725C17.8586 75.8605 17.9132 75.8737 17.7798 76.0546ZM15.7029 76.9594C15.5948 77.1642 13.8236 78.8179 13.6718 78.8566C13.5492 78.8847 15.4752 76.9265 15.6603 76.8426C15.7429 76.796 15.7589 76.8398 15.7029 76.9594ZM19.3433 76.2465C18.7555 76.7747 18.0706 77.3549 17.8187 77.5292C17.5522 77.7089 17.1564 78.035 16.9205 78.2532L16.4874 78.6589L16.947 78.5082C17.1961 78.4175 17.6571 78.1339 17.9516 77.8944C18.2608 77.6495 18.5366 77.4499 18.5766 77.4684C18.7017 77.5387 17.257 78.8585 16.4336 79.4229C14.608 80.6994 14.2696 80.955 13.6844 81.5815C13.3486 81.9353 13.046 82.2439 13.002 82.2599C12.8995 82.2973 12.8332 81.8417 12.9372 81.6715C12.9746 81.5917 12.9999 81.6156 12.9731 81.7246C12.9143 82.1099 13.1408 81.9117 14.663 80.1666C15.4868 79.2382 16.7316 78.0076 17.4019 77.4328C18.0869 76.8526 18.8492 76.2113 19.0851 75.9931C19.321 75.7749 19.7287 75.5272 19.9631 75.4419C20.2949 75.3046 20.1376 75.5108 19.3433 76.2465ZM16.6418 77.0312C16.663 77.0897 15.6501 78.1366 14.3906 79.3725C13.1644 80.5632 13.683 79.8451 15.0518 78.4536C16.3434 77.1233 16.5939 76.8998 16.6418 77.0312ZM24.2285 74.303C24.2004 74.3628 24.0739 74.4254 23.9554 74.4189C23.8222 74.4178 23.8502 74.358 24.0114 74.2993C24.1673 74.226 24.2711 74.2378 24.2285 74.303ZM21.5293 75.5501C21.4293 75.6857 21.4506 75.7442 21.6343 75.7931C21.8873 75.8499 21.5275 76.229 20.7613 76.7229C20.3003 77.0065 20.3418 76.7102 20.8015 76.3774C20.9467 76.2749 20.8002 76.3283 20.4885 76.4748C20.0701 76.6933 19.8637 76.7188 19.7519 76.594C19.6654 76.4932 19.6761 76.3404 19.7774 76.2539C20.0666 75.9997 20.2677 75.9596 20.2237 76.1576C20.1849 76.3703 20.3807 76.3155 20.6939 76.0361C20.8964 75.8631 20.8911 75.8485 20.5955 75.8569C20.413 75.8571 20.5582 75.7546 20.9739 75.6199C21.3455 75.5012 21.5959 75.4597 21.5293 75.5501ZM62.7212 60.9214C62.7371 60.9652 62.7051 61.0596 62.6331 61.1354C62.5758 61.2059 62.4919 61.2034 62.4653 61.1303C62.4334 61.0427 62.4801 60.943 62.5534 60.9163C62.6413 60.8843 62.7105 60.8922 62.7212 60.9214ZM10.2531 80.4979C10.2291 80.5232 10.1105 80.6987 9.99183 80.8742C9.78783 81.1801 9.78783 81.1801 9.88795 80.8624C9.94268 80.6936 10.0613 80.5181 10.1493 80.4861C10.2372 80.4541 10.2718 80.458 10.2531 80.4979ZM95.203 49.8103C95.3029 49.8566 94.8792 50.0605 94.1652 50.2873C93.4858 50.518 92.8678 50.6437 92.7426 50.5735C92.4777 50.4383 94.9235 49.6804 95.203 49.8103ZM18.9968 78.2584C19.0674 78.3154 19.006 78.4204 18.8448 78.4791C18.669 78.5431 18.5105 78.5181 18.4839 78.4451C18.4521 78.3574 18.5187 78.267 18.6359 78.2243C18.7532 78.1816 18.921 78.1867 18.9968 78.2584ZM18.3504 78.9899C18.377 79.063 18.2863 79.1787 18.1544 79.2267C17.9346 79.3067 17.9093 79.2828 18.0573 79.0966C18.2719 78.82 18.2866 78.8147 18.3504 78.9899ZM17.8174 79.3493C17.844 79.4224 17.768 79.5328 17.6361 79.5808C17.5188 79.6234 17.4337 79.5717 17.451 79.4827C17.4631 79.379 17.5444 79.2833 17.6323 79.2513C17.7056 79.2246 17.7855 79.2617 17.8174 79.3493ZM20.13 78.5903C20.0113 78.7659 19.7848 78.9641 19.6182 79.0082C19.3984 79.0882 19.4358 79.0084 19.749 78.729C20.318 78.2407 20.3766 78.2194 20.13 78.5903ZM96.0039 51.0076C95.912 51.0741 95.7361 51.1381 95.6376 51.1409C95.5191 51.1344 95.5817 51.0785 95.7868 51.0039C95.992 50.9292 96.0759 50.9317 96.0039 51.0076ZM8.6938 83.828C8.37244 84.3585 8.22032 84.7613 8.31213 84.8767C8.41327 84.9723 8.22782 85.4202 7.84914 86.0212C7.23444 87.0225 6.86926 87.387 7.11877 86.7503C7.21215 86.5509 7.21228 86.3688 7.15237 86.341C7.09246 86.3132 7.15509 86.2573 7.30163 86.204C7.43884 86.1706 7.55879 86.0442 7.56022 85.9114C7.55633 85.7639 7.50174 85.7507 7.39644 85.8717C7.08053 86.2348 7.47931 85.4611 8.23667 84.2591C8.64867 83.6128 9.02865 83.061 9.0966 83.0197C9.16987 82.9931 8.98714 83.3573 8.6938 83.828ZM16.7283 80.6886C16.2058 81.2593 16.1308 81.7828 16.5705 81.6228C16.7023 81.5748 16.797 81.4246 16.7984 81.2917C16.8145 81.1535 16.8799 81.0139 16.9825 80.9766C17.0704 80.9446 17.3502 80.7104 17.5755 80.463C17.9114 80.1092 18.0526 80.0412 18.2323 80.1247C18.4174 80.2227 18.356 80.3278 17.9789 80.6139C17.7178 80.8082 17.3086 81.1887 17.0833 81.4361C16.8581 81.6836 16.4476 82.0149 16.1905 82.1747C15.7734 82.4423 15.7388 82.4383 15.8349 82.1552C15.9817 81.7379 15.9284 81.7738 14.9768 82.7157C13.664 83.9875 13.6537 83.5943 14.944 82.0328C15.2786 81.6299 15.4906 81.2549 15.4201 81.1979C15.3349 81.1462 15.4028 81.1049 15.536 81.1061C15.6692 81.1072 15.8784 80.998 15.993 80.857C16.1077 80.716 16.4088 80.5403 16.6432 80.4549L17.0829 80.2949L16.7283 80.6886ZM12.4237 82.7682C12.4928 82.9581 12.2568 83.3583 12.0516 83.433C11.8904 83.4916 11.8638 83.4186 11.9013 83.1568C11.9468 82.826 12.3386 82.5345 12.4237 82.7682ZM13.0759 83.1925C13.1504 83.397 12.909 83.7826 12.6306 83.8839C12.2936 84.0066 12.2457 83.8751 12.4924 83.5041C12.6911 83.1837 13.0121 83.0172 13.0759 83.1925ZM22.3596 81.9805C22.2115 82.3487 21.0454 83.3852 21.1069 83.0982C21.1243 83.0091 21.059 82.9667 20.9565 83.004C20.4582 83.1854 21.7124 81.9349 22.2346 81.7283C22.4931 81.6177 22.4984 81.6323 22.3596 81.9805ZM20.3111 83.9668C20.2925 84.0066 19.9606 84.3259 19.5848 84.6612C19.209 84.9965 18.9425 85.1762 18.9838 85.0619C19.0399 84.9423 19.3038 84.6643 19.5836 84.4301C20.1047 83.9923 20.3912 83.8218 20.3111 83.9668ZM21.7563 83.7882C21.8095 83.9342 20.7992 84.8974 20.5488 84.939C20.3917 84.9631 20.5676 84.7171 20.9728 84.3711C21.7724 83.65 21.7244 83.7005 21.7563 83.7882ZM105.511 54.1477C105.483 54.2075 105.356 54.2701 105.238 54.2636C105.105 54.2625 105.133 54.2026 105.294 54.144C105.45 54.0707 105.553 54.0825 105.511 54.1477ZM107.132 53.723C107.52 53.6481 107.865 53.6384 107.891 53.7114C107.923 53.799 107.767 53.8723 107.506 53.8846C107.25 53.9115 106.75 53.9946 106.362 54.0695C105.479 54.242 106.152 53.9475 107.132 53.723ZM109.892 53.281C111.97 52.9713 112.353 52.931 112.513 53.0052C112.942 53.18 112.491 53.3107 110.723 53.5575C109.676 53.6905 108.742 53.8152 108.624 53.8088C108.264 53.8238 108.467 53.4689 108.83 53.4192C109.022 53.399 109.499 53.3413 109.892 53.281ZM115.264 52.583C118.03 52.3867 121.278 52.3293 122.751 52.4549C123.571 52.5202 124.229 52.5951 124.211 52.635C124.192 52.6748 122.788 52.7391 121.058 52.7733C117.238 52.8568 115.127 53.0296 114.395 53.2963C114.028 53.4296 113.663 53.4301 113.335 53.3017C112.299 52.9178 112.694 52.7737 115.264 52.583ZM103.165 56.8212C103.137 56.881 103.01 56.9436 102.892 56.9371C102.759 56.936 102.787 56.8761 102.948 56.8175C103.104 56.7442 103.208 56.756 103.165 56.8212ZM103.41 57.1291C103.716 57.1499 103.721 57.1645 103.384 57.2872C103.179 57.3619 102.894 57.3994 102.75 57.3691C102.532 57.3162 102.521 57.287 102.776 57.2109C102.937 57.1523 103.222 57.1147 103.41 57.1291ZM87.4168 63.1154C87.7444 63.1947 87.5099 63.28 87.0504 63.2488C86.828 63.2304 86.7828 63.1973 86.9293 63.144C87.0466 63.1013 87.273 63.085 87.4168 63.1154ZM104.282 56.9273C104.157 57.0391 104.178 57.0975 104.369 57.2102C104.534 57.299 104.56 57.372 104.458 57.4093C104.238 57.4893 103.996 57.2797 104.049 57.0618C104.061 56.9581 104.172 56.8517 104.265 56.8343C104.382 56.7917 104.393 56.8209 104.282 56.9273ZM108.95 55.7082C109.024 55.9127 108.98 55.9287 108.751 55.8466C108.597 55.787 108.457 55.7221 108.446 55.6929C108.436 55.6637 108.528 55.5971 108.645 55.5544C108.762 55.5118 108.902 55.5767 108.95 55.7082ZM109.638 55.4575C109.61 55.5173 109.484 55.5799 109.365 55.5734C109.232 55.5723 109.26 55.5124 109.421 55.4538C109.577 55.3805 109.681 55.3923 109.638 55.4575ZM107.266 56.5527C107.335 56.7426 107.174 56.8012 106.826 56.7127C106.608 56.6598 106.612 56.6253 106.89 56.524C107.066 56.46 107.234 56.465 107.266 56.5527ZM111.002 55.1926C111.073 55.2497 111.07 55.3334 110.997 55.36C110.909 55.392 110.809 55.3457 110.783 55.2726C110.751 55.185 110.759 55.1159 110.788 55.1052C110.832 55.0892 110.927 55.121 111.002 55.1926ZM108.239 56.6285C108.211 56.6883 108.085 56.7509 107.966 56.7444C107.833 56.7432 107.861 56.6834 108.022 56.6248C108.178 56.5515 108.282 56.5633 108.239 56.6285ZM101.176 60.5225C101.5 60.6363 101.505 60.6509 101.244 60.6632C101.082 60.6727 100.846 60.7089 100.729 60.7516C100.597 60.7996 100.526 60.7426 100.544 60.6535C100.601 60.401 100.738 60.3676 101.176 60.5225ZM104.627 59.3329C104.653 59.4059 104.577 59.5163 104.46 59.5589C104.343 59.6016 104.214 59.5659 104.187 59.4929C104.155 59.4052 104.236 59.3095 104.354 59.2668C104.471 59.2241 104.595 59.2452 104.627 59.3329ZM102.856 60.2585C102.764 60.3251 102.588 60.3891 102.49 60.3919C102.371 60.3854 102.434 60.3295 102.639 60.2548C102.844 60.1802 102.928 60.1827 102.856 60.2585ZM53.2714 79.7781C53.2434 79.8379 53.1168 79.9005 52.9983 79.8941C52.8651 79.8929 52.8931 79.8331 53.0543 79.7744C53.2102 79.7011 53.3141 79.713 53.2714 79.7781ZM65.3406 75.7327C65.2487 75.7992 65.0435 75.8739 64.901 75.8927C64.7385 75.9022 64.8158 75.841 65.0503 75.7556C65.2994 75.6649 65.4126 75.6568 65.3406 75.7327ZM63.3435 76.6746C63.0597 76.9433 61.0532 77.9052 61.2692 77.6777C61.4278 77.5207 62.8174 76.7337 63.2717 76.5684C63.6327 76.4204 63.6327 76.4204 63.3435 76.6746ZM59.3584 78.9025C59.2665 78.9691 59.0906 79.0331 58.9921 79.0359C58.8736 79.0294 58.9362 78.9735 59.1414 78.8988C59.3465 78.8241 59.4304 78.8267 59.3584 78.9025ZM86.3879 69.5443C86.3599 69.6041 86.2333 69.6667 86.1148 69.6603C85.9816 69.6591 86.0096 69.5993 86.1708 69.5406C86.3267 69.4673 86.4306 69.4792 86.3879 69.5443ZM52.795 84.7156C52.8056 84.7449 52.7296 84.8552 52.6137 84.9471C52.5124 85.0335 52.4485 85.0403 52.4605 84.9366C52.4953 84.7586 52.7524 84.5988 52.795 84.7156ZM74.2347 77.3258C74.3704 77.4252 72.9249 78.1499 71.606 78.6299C71.1371 78.8006 70.3431 79.1723 69.8275 79.4427C69.3172 79.7277 68.3273 80.1541 67.6426 80.3702L66.3811 80.7798L67.9972 79.9765C69.496 79.2159 72.1179 78.0301 73.5034 77.4596C73.8404 77.3369 74.1641 77.2687 74.2347 77.3258ZM84.3005 73.7945C84.0767 73.909 83.725 74.037 83.4945 74.0878C83.2494 74.1439 83.4293 74.0454 83.8689 73.8854C84.3085 73.7254 84.5097 73.6852 84.3005 73.7945ZM55.4574 84.5075C55.44 84.5966 55.3494 84.7123 55.2761 84.7389C55.1882 84.7709 55.147 84.7032 55.1643 84.6142C55.1764 84.5106 55.2724 84.4095 55.3456 84.3828C55.4336 84.3508 55.4695 84.4039 55.4574 84.5075ZM65.5455 81.4478C65.351 81.5517 64.9299 81.8538 64.5915 82.1094C64.0211 82.5486 62.9913 82.9564 63.4591 82.5546C63.9415 82.1474 64.7623 81.6667 65.3045 81.4694C65.6415 81.3467 65.7347 81.3293 65.5455 81.4478ZM74.6268 78.3576C74.6094 78.4466 74.4895 78.573 74.3722 78.6156C74.255 78.6583 74.1405 78.6173 74.1139 78.5442C74.082 78.4566 74.1926 78.3502 74.3685 78.2862C74.5297 78.2275 74.6389 78.2539 74.6268 78.3576ZM71.1724 79.7637C71.1323 79.9272 70.4687 80.3838 70.4262 80.2669C70.4049 80.2085 70.9007 79.7468 71.0859 79.6629C71.1538 79.6216 71.1897 79.6747 71.1724 79.7637ZM69.8973 80.4098C69.9679 80.4668 69.9358 80.5612 69.8186 80.6039C69.6867 80.6519 69.5576 80.6162 69.531 80.5431C69.4991 80.4555 69.5364 80.3757 69.6097 80.349C69.6976 80.317 69.8215 80.3381 69.8973 80.4098ZM68.2933 81.1094C68.2014 81.1759 67.9962 81.2506 67.8537 81.2694C67.6912 81.2789 67.7685 81.2177 68.003 81.1324C68.2521 81.0417 68.3653 81.0336 68.2933 81.1094ZM81.9746 76.2952C81.8827 76.3618 81.6775 76.4364 81.535 76.4552C81.3725 76.4647 81.4498 76.4035 81.6843 76.3182C81.9334 76.2275 82.0466 76.2194 81.9746 76.2952ZM65.8684 82.4717C65.8404 82.5315 65.7138 82.5941 65.5953 82.5877C65.4621 82.5865 65.4901 82.5267 65.6513 82.468C65.8072 82.3947 65.9111 82.4066 65.8684 82.4717ZM64.3628 83.3505C64.3348 83.4104 64.2082 83.473 64.0897 83.4665C63.9565 83.4653 63.9845 83.4055 64.1457 83.3468C64.3016 83.2736 64.4055 83.2854 64.3628 83.3505Z" fill="#FFA100"/>
</svg>
