<svg width="132" height="79" viewBox="0 0 132 79" fill="none" xmlns="http://www.w3.org/2000/svg">
<path d="M88.3409 0.209255C85.456 0.628956 84.6295 0.722225 83.3975 0.722225C82.6646 0.722225 82.0876 0.768856 82.1344 0.831036C82.1656 0.908756 81.8225 0.939846 81.3702 0.939846C80.6061 0.908756 80.5905 0.908756 81.0895 0.799946L81.6353 0.691136L81.0584 0.660046C80.7309 0.660046 80.4658 0.706684 80.4658 0.799946C80.4658 0.893215 79.9668 0.955395 79.2806 0.955395C78.6412 0.955395 78.1422 0.893215 78.189 0.815495C78.4073 0.473515 76.8479 0.426876 66.7427 0.473515C65.7603 0.473515 64.4348 0.551235 63.811 0.644505C62.657 0.799946 61.8461 0.722225 62.002 0.473515C62.0488 0.395786 61.6278 0.333614 61.0664 0.333614C60.505 0.333614 60.0215 0.395786 59.9748 0.473515C59.928 0.535694 59.5693 0.691136 59.1795 0.799946C58.6336 0.955395 58.4309 0.955395 58.2438 0.799946C58.0723 0.660046 57.776 0.660046 56.9027 0.799946C56.2945 0.908756 55.4992 1.01757 55.1405 1.04866C54.7974 1.07975 54.2984 1.14193 54.0333 1.17302C52.2556 1.39064 50.93 1.43728 51.0704 1.29737C51.1639 1.20411 51.8657 1.07975 52.6298 1.01757C53.4095 0.970936 54.1425 0.862126 54.2672 0.784405C54.5947 0.613415 53.8774 0.613415 52.3959 0.799946C50.8521 1.00203 50.6805 1.06421 50.7897 1.39064C50.8677 1.60827 50.8365 1.59272 50.6493 1.35955C50.5246 1.20411 50.3374 1.11084 50.2439 1.17302C50.1503 1.2352 49.4953 1.31292 48.778 1.35955C48.0763 1.39064 47.4213 1.49945 47.3433 1.57718C47.2498 1.67044 47.0626 1.73262 46.9067 1.73262C46.7507 1.73262 46.626 1.7948 46.626 1.88807C46.626 1.96579 46.4856 2.04351 46.3141 2.04351C45.9554 2.04351 45.2693 2.19896 42.4155 2.92955C38.9847 3.80004 38.1271 4.07985 38.361 4.21975C38.5013 4.31301 38.2674 4.43737 37.6436 4.60836C37.1446 4.74826 36.474 4.95034 36.1778 5.07469C35.8815 5.19905 35.476 5.33895 35.2889 5.38558C35.0861 5.44776 34.9302 5.55657 34.9302 5.6343C34.9302 5.71202 34.7119 5.7742 34.4468 5.7742C34.1193 5.7742 34.0101 5.71202 34.0881 5.57212C34.1349 5.47885 34.0257 5.57212 33.823 5.80529C33.4643 6.1939 32.8717 6.41152 31.9205 6.4737C31.6866 6.48925 31.3903 6.62915 31.2499 6.80014C31.1096 6.95558 31.0472 7.00221 31.1096 6.8934C31.2499 6.62915 30.9069 6.66023 30.1115 7.01776C29.3942 7.34419 29.3006 7.60845 30.0024 7.34419C30.2675 7.23538 30.4078 7.23538 30.4078 7.32865C30.4078 7.42192 30.2831 7.49964 30.1427 7.49964C29.9868 7.51518 29.6281 7.54627 29.3474 7.57736C29.0667 7.59291 28.708 7.65508 28.5677 7.71726C28.4274 7.7639 27.4917 7.98152 26.4781 8.19914C25.4644 8.41677 24.5288 8.61884 24.4196 8.66548C24.2481 8.72766 24.2169 8.6033 24.2637 8.10588C24.3104 7.53073 24.2948 7.48409 24.0141 7.63954C23.7802 7.7639 23.7334 7.9038 23.8114 8.30795L23.8894 8.82092L22.9849 9.023C22.4703 9.14736 21.6126 9.41161 21.0512 9.61369C20.4898 9.83132 19.3046 10.2666 18.4002 10.593C17.4957 10.9039 16.794 11.2303 16.8407 11.308C16.8875 11.3858 16.9499 11.4324 16.9967 11.4169C17.9947 11.106 18.7277 11.3236 17.7764 11.6656C16.9187 11.9609 17.293 11.9765 18.1974 11.6811C19.8349 11.1681 24.6379 10.0956 24.6379 10.251C24.6379 10.2976 24.5132 10.422 24.3728 10.5308C24.1077 10.7174 24.1077 10.7329 24.3572 10.7484C24.7159 10.7484 24.8406 10.9816 24.5132 11.0127C24.2013 11.0438 19.7569 12.3029 18.5717 12.6915C17.215 13.1423 17.8076 13.1268 19.2735 12.676C20.0376 12.4428 20.7705 12.2252 20.8953 12.1941C21.4411 12.0386 19.9596 12.7848 19.0239 13.1423C17.636 13.6553 16.4509 13.904 15.9519 13.7796C15.5464 13.6864 14.5016 14.0905 14.5016 14.3703C14.5016 14.4325 14.6575 14.4014 14.8447 14.3081C15.2345 14.1061 16.7004 14.0128 16.5912 14.1993C16.5444 14.2615 16.2949 14.3859 16.0142 14.448C15.6868 14.5413 15.5152 14.6812 15.5308 14.8367C15.5464 14.9921 15.4684 15.1009 15.3593 15.1009C15.2501 15.1009 15.063 15.2097 14.9538 15.3496C14.7667 15.5828 14.7823 15.5983 15.1254 15.4895C15.64 15.3341 15.9207 15.1009 15.8115 14.9299C15.7647 14.8522 15.9674 14.6812 16.2793 14.5569C16.8719 14.3081 17.3086 14.2615 17.3086 14.4325C17.3086 14.5724 16.56 15.0387 15.8895 15.3496C15.6712 15.4429 15.4372 15.645 15.3905 15.7849C15.3281 15.9248 15.1877 15.9869 15.063 15.9403C14.7979 15.847 14.1897 16.1268 14.1897 16.3445C14.1897 16.4377 14.2989 16.4999 14.4392 16.4999C14.564 16.4999 14.6419 16.4533 14.6107 16.3756C14.564 16.3134 14.7043 16.2512 14.8914 16.2512C15.2501 16.2201 15.2501 16.2357 15.0318 16.5776C14.8758 16.8108 14.6887 16.9196 14.5328 16.8574C14.3768 16.8108 14.33 16.8419 14.4236 16.9196C14.5951 17.0595 14.7043 17.417 14.6731 17.6658C14.6575 17.7435 14.6263 18.1321 14.6107 18.5052C14.5795 19.0648 14.486 19.2202 14.1273 19.4067C13.8934 19.5311 13.7219 19.671 13.7686 19.7176C13.8154 19.7487 14.0649 19.671 14.3456 19.5311C14.8135 19.2824 14.8291 19.2824 14.6731 19.5777C14.5795 19.7487 14.408 19.9197 14.2677 19.9819C13.9558 20.0907 13.6751 20.8368 13.7998 21.2721C13.909 21.754 14.486 21.7384 15.3749 21.2254C15.9986 20.8679 16.0766 20.8524 16.3105 21.07C16.4353 21.2099 16.716 21.3187 16.9187 21.3187C17.1214 21.3187 17.3398 21.3809 17.3865 21.4742C17.4333 21.5674 17.3242 21.6296 17.1214 21.6296C16.8407 21.6296 16.8095 21.6607 16.9967 21.7851C17.1838 21.9094 17.1994 21.9871 17.0279 22.2514C16.7784 22.6555 17.0123 22.6555 17.3865 22.2514C17.5893 22.0338 17.87 21.9405 18.3534 21.9405C18.7277 21.9405 19.2579 21.8317 19.5074 21.6918C19.7725 21.5674 20.0844 21.4897 20.2091 21.5363C20.4898 21.6452 21.8465 21.07 22.1116 20.7436C22.2208 20.5726 22.2988 20.557 22.2988 20.6814C22.2988 20.7902 22.3767 20.8213 22.4547 20.7747C22.7042 20.6192 22.6418 20.9612 22.3767 21.2254C22.1116 21.4897 20.0064 22.3291 18.8836 22.6089C18.4781 22.7177 18.0259 22.9198 17.8856 23.0597C17.7296 23.1996 17.4801 23.3706 17.3086 23.4172C17.137 23.4639 16.9967 23.5882 16.9967 23.6815C16.9967 23.7592 17.1058 23.8058 17.2306 23.7437C17.3709 23.697 17.4645 23.7437 17.4645 23.8991C17.4645 24.039 17.0902 24.3188 16.5756 24.552C15.8271 24.894 15.4061 24.9717 14.1585 25.0183C13.3008 25.0494 12.6303 25.1427 12.6303 25.2359C12.6303 25.3137 12.7706 25.3447 12.9265 25.2826C13.4256 25.1271 13.4412 25.4846 12.9421 25.7645C12.5211 26.0132 12.4899 26.1064 12.5679 26.6194C12.6614 27.1324 12.6147 27.2256 12.1624 27.5521C11.5386 28.0184 10.603 29.3086 10.603 29.6972C10.603 29.9304 10.681 29.977 10.9305 29.9148C11.2268 29.8371 11.2424 29.8527 11.0864 30.148C10.9928 30.319 10.8369 30.5055 10.7277 30.5366C10.5874 30.5988 10.5718 30.6299 10.7121 30.6299C10.8057 30.6454 10.9461 30.5677 10.9928 30.49C11.0396 30.3967 11.1956 30.3345 11.3203 30.3345C11.4451 30.3345 11.5231 30.3967 11.4763 30.4744C11.3515 30.661 12.0065 30.8164 12.4431 30.6921C12.8486 30.5988 13.254 30.8786 13.254 31.2672C13.254 31.4693 12.9577 31.6403 12.1312 31.9045C11.5075 32.0911 10.7277 32.4175 10.3691 32.6196C10.026 32.8061 9.35544 33.1792 8.8876 33.4434L8.02991 33.9098L8.80963 33.8165C9.51138 33.7232 9.57376 33.7388 9.38662 33.9564C9.26187 34.0963 8.79404 34.345 8.32621 34.5316C7.85838 34.7026 7.12544 35.0134 6.70439 35.2311C6.28334 35.4487 5.8623 35.6197 5.76873 35.6197C5.67516 35.6197 5.3009 35.915 4.94223 36.257C4.58356 36.6145 4.39643 36.8632 4.52118 36.8166C4.64594 36.77 5.70635 36.3503 6.86034 35.8684C8.01432 35.3865 9.52697 34.7492 10.2131 34.4694C10.8993 34.174 11.9129 33.7854 12.4587 33.5833C13.4256 33.2414 13.4568 33.2414 13.6595 33.5212C13.7842 33.6766 13.831 33.8631 13.7686 33.9253C13.6907 33.9875 12.5991 34.4383 11.3047 34.9202C8.77844 35.8684 4.02216 38.1068 4.30286 38.2156C4.41202 38.2467 4.94223 38.0913 5.47244 37.8736C6.92271 37.2674 7.01628 37.2519 6.15859 37.7493C5.70635 38.0135 5.39446 38.2933 5.42565 38.4177C5.45684 38.542 5.34768 38.7286 5.20733 38.8374C5.05139 38.9462 5.00461 39.0395 5.09817 39.0395C5.20733 39.0395 5.37887 38.9462 5.48803 38.8374C5.72195 38.6042 10.3535 36.2725 11.3515 35.8839C12.1 35.5886 12.2248 35.3865 11.5854 35.5264C10.8681 35.6663 12.0845 35.1689 13.254 34.8269C14.408 34.4849 14.6575 34.4694 14.6575 34.687C14.6575 34.7803 14.5328 34.8425 14.3924 34.8114C14.2209 34.7803 14.1273 34.8425 14.1585 34.9668C14.2209 35.2622 12.4431 36.9876 11.9441 37.112C11.7258 37.1586 11.5386 37.2674 11.5386 37.3607C11.5386 37.5472 10.5562 37.9514 10.104 37.9514C9.90124 37.9514 9.57376 38.0602 9.35544 38.1845C9.13711 38.3089 8.65369 38.5576 8.26383 38.7441C5.48803 40.0343 3.75706 41.0914 3.74146 41.48C3.74146 41.7131 3.99097 41.7442 4.11573 41.5421C4.22489 41.3867 8.68488 39.1949 8.9032 39.1949C9.35544 39.1949 8.87201 39.5835 7.76481 40.1276C6.62642 40.6716 4.97342 41.5732 4.13132 42.0862C3.95978 42.195 3.88181 42.366 3.94419 42.5214C4.03775 42.7546 4.08454 42.7546 4.50559 42.537C5.08258 42.2416 5.14496 42.2416 5.14496 42.537C5.14496 42.7857 4.97342 42.8479 7.71803 41.6199C8.93439 41.0758 10.1352 40.8737 10.1352 41.2157C10.1352 41.2934 10.0728 41.3712 9.97921 41.3712C9.90124 41.3712 9.82327 41.5111 9.82327 41.682C9.82327 42.0551 10.3379 42.2106 10.9928 42.0085C11.3983 41.8997 11.4139 41.853 11.1644 41.7598C10.9149 41.651 10.9461 41.6043 11.3827 41.4178C11.9909 41.1691 12.1 41.2313 11.8505 41.682C11.679 41.9929 11.7102 42.0085 12.4275 41.9774C12.833 41.9463 13.5971 41.7442 14.1117 41.5111C14.6263 41.2779 15.5776 41.0136 16.217 40.9204C17.3242 40.7494 17.8076 40.5939 17.2618 40.5939C16.9967 40.5939 16.3573 40.2986 16.217 40.0965C16.1702 40.0343 16.0298 40.0499 15.9051 40.1276C15.7491 40.2364 15.7335 40.283 15.8739 40.283C15.9674 40.283 16.061 40.3608 16.061 40.4385C16.061 40.5473 15.9519 40.5473 15.7335 40.4385C15.562 40.3297 15.2345 40.2986 15.0318 40.3452C14.8291 40.4074 14.6575 40.3918 14.6575 40.3141C14.6575 40.0499 16.9031 39.4436 17.792 39.4903C18.5249 39.5214 18.7432 39.4592 19.1175 39.1483C19.9752 38.4332 20.5834 38.2156 21.8777 38.1845L23.1097 38.1534L22.4391 38.5265C21.8153 38.8685 21.9401 38.8996 22.8134 38.6198C22.9537 38.5731 23.0785 38.6042 23.0785 38.6819C23.0785 38.7597 22.5951 39.055 21.9869 39.3504C20.6769 39.9877 20.6302 40.1431 21.9245 39.568C22.4235 39.3348 23.1565 39.1327 23.5463 39.1017C24.2325 39.055 24.2013 39.0861 22.8446 39.6613C22.0804 40.0032 21.3319 40.2675 21.2072 40.2675C20.7705 40.283 17.792 41.8997 17.7296 42.1795C17.6828 42.3194 17.3242 42.5992 16.9343 42.7857C16.4353 43.0344 16.2637 43.1899 16.3729 43.3142C16.4821 43.4386 16.3417 43.6717 15.9674 44.0293C15.6712 44.3246 15.2813 44.7754 15.1098 45.0397C14.9538 45.3195 14.4236 45.7703 13.9558 46.0501C13.4879 46.3299 13.0981 46.6097 13.0981 46.6718C13.0981 46.8428 14.2053 46.734 14.7043 46.5319C15.3125 46.2677 15.6244 46.2988 15.562 46.5941C15.5308 46.7496 15.1721 46.9516 14.6575 47.1226C13.3788 47.5112 11.4919 48.3817 11.2268 48.6771C11.0864 48.817 10.603 49.0657 10.1507 49.2211C9.63613 49.3921 9.29306 49.5942 9.24627 49.7652C9.19949 49.9362 8.66928 50.2937 7.98313 50.6201C6.50167 51.3196 2.8058 53.527 2.8058 53.698C2.8058 53.7601 3.10209 53.6358 3.47636 53.4182C5.92467 51.9103 12.1 49.3455 12.4431 49.6875C12.5211 49.7652 11.4763 50.2937 10.4782 50.6823C10.0416 50.8533 9.32425 51.2264 8.87201 51.5217C8.40418 51.8171 7.42173 52.3611 6.6732 52.7187C5.08258 53.4959 3.22685 54.8638 1.55825 56.4493L0.388672 57.5685L1.37112 56.8069C1.91692 56.4027 2.77461 55.7343 3.30482 55.3457C3.81943 54.9415 4.53677 54.4752 4.89545 54.2731L5.53481 53.9467L5.06698 54.3042C3.22685 55.7187 2.35356 56.496 2.41594 56.6203C2.47832 56.6981 2.04168 57.2577 1.48028 57.8639C0.903286 58.4546 0.466644 58.9986 0.513427 59.0453C0.56021 59.0919 1.02804 58.7655 1.55825 58.3302C2.07286 57.895 2.58748 57.5375 2.66545 57.5375C2.75902 57.5375 3.0865 57.3665 3.39839 57.1488C3.71027 56.9312 4.02216 56.7602 4.08454 56.7602C4.39643 56.7602 4.14692 57.211 3.56992 57.7706C3.21125 58.1126 2.5407 58.9831 2.05727 59.7137C1.58944 60.4443 0.996852 61.2992 0.747342 61.6101C0.279511 62.2008 0.295106 62.4495 0.762937 61.921C2.04168 60.4598 2.33797 60.1489 2.33797 60.2888C2.33797 60.3666 2.11965 60.7241 1.85454 61.0816C1.58944 61.4391 1.4179 61.7345 1.46468 61.7345C1.71419 61.7345 2.83699 60.9573 3.58552 60.2733C5.16055 58.8121 5.39446 58.6256 5.75314 58.5479C5.94027 58.5168 6.43929 58.237 6.84474 57.9261C8.29502 56.8846 8.01432 57.3976 6.22097 59.1385C5.22293 60.0868 4.59915 60.7396 4.81747 60.5531C5.79992 59.7914 7.76481 58.6256 8.12348 58.6256C8.41977 58.6256 8.45096 58.5945 8.26383 58.4701C8.0767 58.3458 8.0767 58.3147 8.29502 58.237C8.45096 58.1748 8.63809 58.1748 8.74726 58.237C8.85642 58.3147 8.68488 58.5634 8.24824 58.9676C7.87397 59.294 7.70243 59.5116 7.87397 59.4339C8.24824 59.2784 9.12152 59.4183 9.04355 59.636C9.01236 59.7137 8.54453 60.1178 8.01432 60.522C7.48411 60.9262 6.98509 61.3459 6.92271 61.4547C6.79796 61.6412 7.53089 61.1438 9.48019 59.6826C10.5874 58.8432 10.8369 58.7655 10.5718 59.3251C10.3223 59.8691 10.525 59.9779 11.0708 59.5893C11.6322 59.1696 11.8349 59.1541 11.4763 59.5427C11.2891 59.7448 11.2579 59.8691 11.3827 59.9469C11.4763 60.009 11.2579 60.2422 10.8369 60.522C9.71411 61.2681 9.85445 61.3459 11.024 60.6308C12.2716 59.8536 13.3944 59.3406 13.5191 59.465C13.5815 59.5116 13.5347 59.5582 13.4412 59.5582C13.332 59.5582 13.254 59.636 13.254 59.7292C13.254 59.8225 13.3632 59.8536 13.5035 59.807C13.8622 59.6671 13.6907 60.0401 13.2228 60.3821C13.0045 60.5531 12.5835 60.693 12.3028 60.7085C11.9441 60.7396 11.7882 60.8174 11.8193 60.9573C11.8505 61.0816 11.7414 61.2681 11.601 61.377C11.3671 61.5479 11.3671 61.579 11.5698 61.579C11.6946 61.579 11.9753 61.4547 12.178 61.2837C12.755 60.8329 14.4548 60.0246 14.8135 60.0246C15.0474 60.0246 15.1254 60.1023 15.0942 60.2733C15.0474 60.5531 14.8447 60.693 14.0337 61.0039C13.4879 61.2215 13.5035 61.2215 14.408 61.1438C15.063 61.0972 15.2969 61.1127 15.2189 61.2526C15.0474 61.5013 15.2345 61.4702 16.1702 61.035C16.6224 60.8173 17.0902 60.6775 17.1838 60.7396C17.3398 60.8484 14.6263 61.921 13.6907 62.1386C13.4568 62.1853 13.2072 62.2941 13.1605 62.3873C13.0825 62.4962 13.1917 62.5272 13.4723 62.4495C13.6907 62.4029 14.0649 62.3252 14.3144 62.2785C14.7199 62.2008 14.7199 62.2008 14.3924 62.3718C14.1897 62.4806 14.0337 62.6827 14.0337 62.8226C14.0337 62.9625 13.8778 63.1646 13.6907 63.2578C13.3788 63.3977 13.4723 63.4288 14.2209 63.4288C14.7043 63.4444 15.1409 63.5066 15.2033 63.5843C15.2501 63.6775 15.5152 63.6465 15.8427 63.5066C16.1546 63.3822 16.5133 63.3045 16.6536 63.3356C16.8407 63.3822 16.7472 63.4599 16.3885 63.5998C16.0922 63.7086 15.4528 64.004 14.985 64.2371C14.5016 64.4859 13.987 64.6879 13.8466 64.6879C13.7063 64.6879 13.3788 64.8589 13.1449 65.0765C12.7082 65.4496 12.7082 65.4496 13.0669 65.4652C13.5659 65.4652 14.8447 64.8589 14.7355 64.6879C14.6263 64.5169 14.8291 64.4392 16.4821 63.9107C17.1838 63.6931 17.6205 63.4599 17.6672 63.3045C17.714 63.1179 18.2442 62.9003 19.4294 62.5583C21.4099 61.9987 22.1428 61.8277 22.1428 61.9521C22.1428 62.1231 21.4567 62.3873 20.8017 62.4495C20.1 62.5272 18.2598 63.2578 18.7277 63.2734C18.868 63.2889 19.3826 63.149 19.8816 62.978C21.0512 62.5739 21.1292 62.5894 20.2715 63.0558C19.6633 63.3822 19.6165 63.4288 19.9596 63.4444C20.2871 63.4444 20.2403 63.5066 19.6633 63.7553C18.8992 64.1128 17.8856 64.9366 17.8388 65.2631C17.792 65.5273 17.6828 65.5429 19.6633 64.9056C20.6146 64.6102 21.4879 64.3926 21.597 64.4392C21.7218 64.4859 22.2208 64.377 22.7198 64.2061C23.2188 64.0351 24.0609 63.7864 24.5911 63.662C25.1213 63.5376 25.6827 63.3977 25.8387 63.3511C26.1038 63.2734 26.1038 63.2889 25.8231 63.5066C25.6671 63.6309 25.1058 63.8952 24.5755 64.0662C23.5463 64.4081 22.2208 65.1543 22.6262 65.1543C22.7666 65.1543 23.749 64.8434 24.8095 64.4703C25.8699 64.0972 27.055 63.7553 27.4449 63.6931C28.2402 63.5843 28.1622 63.6775 26.9459 64.2993C26.213 64.6879 25.7451 64.8278 26.1974 64.5325C26.6028 64.2682 26.1194 64.3615 25.4644 64.6879C25.1213 64.8589 24.5288 65.061 24.1701 65.1387C23.8114 65.2164 23.4372 65.3719 23.328 65.4652C23.2032 65.5895 23.2344 65.6206 23.4683 65.5429C23.7646 65.4496 23.7646 65.4496 23.4995 65.6672C23.328 65.8071 22.9225 65.9626 22.5951 66.0092C22.252 66.0714 21.8465 66.2424 21.7062 66.3823C21.5658 66.5377 21.1916 66.802 20.8797 66.9885C20.0376 67.5015 19.7257 67.8901 19.944 68.1699C20.0532 68.2943 20.1 68.4808 20.0376 68.5741C19.9908 68.6518 20.022 68.7295 20.1 68.7295C20.1935 68.7295 20.2715 68.8228 20.2715 68.9471C20.2715 69.087 20.3807 69.1337 20.599 69.087C20.9265 68.9938 20.9109 69.0093 20.5366 69.6C20.2559 70.0663 20.0376 70.2218 19.6165 70.2995C18.9148 70.4083 18.0259 70.9213 17.9635 71.2633C17.8856 71.6208 18.6029 71.7762 19.1799 71.5275C19.445 71.4187 19.6477 71.2166 19.6477 71.0767C19.6477 70.8591 19.6789 70.8591 19.8037 71.0612C19.9596 71.3254 19.4918 71.9317 18.9928 72.0871C18.8368 72.1338 18.7121 72.2737 18.7121 72.4136C18.7121 72.6001 18.8056 72.6312 19.1331 72.5379L19.5542 72.4446L19.2579 72.7711C19.0239 73.0353 19.0084 73.1286 19.1643 73.2219C19.3046 73.3151 19.3202 73.3929 19.1955 73.455C18.946 73.6105 18.9928 73.8592 19.2735 73.8592C19.4606 73.8592 19.5074 73.9991 19.4762 74.4343C19.4606 74.7608 19.523 75.196 19.6165 75.4137C19.7101 75.6313 19.8349 76.0665 19.8816 76.393C19.9284 76.7194 20.1156 77.1236 20.2871 77.2945C20.5366 77.5433 20.5678 77.6521 20.4118 77.8386C20.1311 78.165 20.4586 78.1184 21.4567 77.6676C22.2676 77.2945 24.404 76.6572 24.8251 76.6572C24.9342 76.6572 24.8251 76.8438 24.5599 77.0614C24.1077 77.4344 24.1077 77.45 24.482 77.3412C24.8095 77.2479 27.5697 76.051 28.6457 75.538C29.441 75.1494 28.8328 75.3048 27.5541 75.8178C26.8055 76.1287 26.0414 76.3463 25.8387 76.3152C25.2149 76.222 32.2948 73.3773 33.1057 73.3929C33.1992 73.3929 33.0121 73.5328 32.669 73.7038L32.0452 74.0146L32.5755 73.9214C32.8562 73.8747 33.2148 73.8126 33.3396 73.797C33.6359 73.7504 33.7918 73.3929 33.5111 73.3929C33.1057 73.3929 33.5267 73.2219 34.0881 73.1442C34.8366 73.0664 35.5696 72.7711 35.476 72.6156C35.4292 72.5535 35.5072 72.4447 35.6475 72.398C35.8035 72.3358 35.8503 72.3669 35.7723 72.4913C35.6943 72.6001 35.7567 72.6312 35.9594 72.569C36.1154 72.5224 36.7392 72.3358 37.3317 72.1648C37.9399 71.9783 38.5013 71.7607 38.5793 71.6674C38.7508 71.4964 38.5637 71.5275 37.207 71.8695C36.2401 72.1027 36.3961 71.9006 37.3941 71.6208C37.8931 71.4809 38.5481 71.3721 38.86 71.3721C39.1719 71.3721 39.6709 71.2633 39.9828 71.1389C40.8561 70.7658 42.9925 70.2995 44.1777 70.2062C44.7547 70.1751 45.3628 70.0663 45.5188 69.9731C45.7995 69.8332 46.0022 69.9109 46.0022 70.1596C46.0022 70.3151 43.8658 71.3721 43.5539 71.3721C43.4603 71.3721 43.3356 71.4343 43.2888 71.4964C43.2576 71.5586 43.8034 71.5431 44.5363 71.4498C45.2537 71.341 45.8775 71.2944 45.9242 71.341C45.9554 71.3876 45.8775 71.6208 45.7371 71.854C45.4876 72.2737 45.4876 72.3203 45.7371 72.569C45.971 72.8022 46.0646 72.8022 46.5636 72.6312C47.5461 72.2737 47.2965 72.5535 46.1582 73.0664C45.55 73.3307 45.0198 73.5483 44.973 73.5483C44.7858 73.5483 43.5227 74.1856 43.4291 74.3255C43.2732 74.5743 43.7254 74.5121 44.6611 74.1701C45.3628 73.9058 45.6124 73.8748 46.1893 73.9991C46.548 74.0924 47.1094 74.1856 47.4057 74.2167C47.9047 74.2478 47.8891 74.2634 47.0938 74.4343C46.626 74.5276 46.3921 74.6053 46.5948 74.6209C47.0002 74.6364 47.0626 75.025 46.6884 75.2271C46.5012 75.3204 46.4856 75.3981 46.6104 75.4758C46.704 75.538 47.1874 75.4447 47.6552 75.2582C48.1386 75.0872 48.5753 74.9784 48.6377 75.025C48.7936 75.196 48.1386 75.5691 47.6864 75.5691C47.4525 75.5691 47.2498 75.6468 47.2498 75.7401C47.2498 75.9111 48.4973 75.8334 49.0431 75.6313C49.5733 75.4292 49.2302 75.8644 48.7 76.0821C48.3726 76.222 47.9671 76.4396 47.7956 76.5639C47.4993 76.8127 47.5149 76.8127 48.1074 76.7194C48.4505 76.6728 49.3394 76.4241 50.0723 76.1753C50.8209 75.9266 51.6006 75.7245 51.8189 75.7245C52.0372 75.7245 52.661 75.6157 53.2068 75.4914C54.7974 75.1339 56.3569 75.0095 56.2633 75.2582C56.2321 75.3826 55.9514 75.5691 55.6551 75.6779C55.2497 75.8334 55.2185 75.8644 55.546 75.8023C56.7467 75.5691 59.6005 75.1183 60.349 75.0406C61.4094 74.9318 60.9572 75.196 59.85 75.3359C59.4446 75.3826 59.0703 75.4914 59.0235 75.5846C58.9611 75.6624 58.5557 75.7245 58.0878 75.7245C57.62 75.7245 57.199 75.7867 57.1522 75.88C57.1054 75.9577 57.1522 76.0354 57.2613 76.051C57.5732 76.0665 57.0118 76.2686 55.1249 76.8438C54.1893 77.1236 53.5187 77.3723 53.6435 77.4034C53.8462 77.4344 54.3452 77.3256 56.1385 76.7971C58.1658 76.2064 60.7545 75.7556 60.5829 76.0199C60.4582 76.222 60.8325 76.2375 62.2983 76.0354C63.0469 75.9422 63.8734 75.9577 64.9338 76.0976C65.7915 76.2064 66.8051 76.2375 67.195 76.1753C67.5848 76.1132 67.9435 76.1287 67.9591 76.2064C67.9903 76.2842 68.0838 76.2997 68.1774 76.2531C68.271 76.1909 69.0351 76.1442 69.8772 76.1442C70.7349 76.1442 71.4678 76.0821 71.5302 75.9888C71.577 75.8955 71.1403 75.8644 70.3606 75.8955C69.6589 75.9266 69.1443 75.9111 69.2066 75.8644C69.5341 75.5691 73.0117 75.196 73.5107 75.3981C73.7914 75.5069 73.7602 75.538 73.3235 75.6935C72.5594 75.9577 72.731 76.0821 73.7134 75.9577C74.805 75.8178 75.0077 75.7556 75.0077 75.4758C75.0077 75.3204 75.2105 75.2582 75.7095 75.2582C76.2709 75.2582 76.38 75.3048 76.3021 75.4914C76.2397 75.6935 76.3333 75.7245 76.8947 75.6468C77.2689 75.5846 77.7523 75.5069 77.9707 75.4603C78.189 75.3981 78.4073 75.367 78.4541 75.3826C78.5009 75.3826 79.9823 75.4447 81.7289 75.4914C83.6158 75.5536 85.6431 75.709 86.7035 75.88C87.686 76.0354 88.9179 76.2064 89.4325 76.2531L90.3682 76.3308L89.3546 76.051C87.8263 75.6313 87.7639 75.5691 89.0427 75.6468C89.8068 75.6935 90.1031 75.6624 89.9004 75.5691C89.7288 75.4914 89.4481 75.4292 89.2922 75.4292C89.1206 75.4137 88.8711 75.3204 88.7464 75.2116C88.2318 74.7608 84.5983 74.0146 82.9765 74.0146C82.493 74.0146 82.1812 73.9525 82.2747 73.8747C82.4151 73.7504 86.4072 74.0457 87.1713 74.2323C87.3897 74.2944 87.9823 74.2478 88.4969 74.1235L89.4325 73.9058L88.8088 73.5949C88.4657 73.4084 87.8731 73.1752 87.4832 73.0664L86.7815 72.8488L87.8731 72.6934L86.9062 72.3203C86.376 72.1338 85.3312 71.8695 84.5983 71.7607C83.1636 71.5586 82.5242 71.2633 83.8186 71.4187C84.5983 71.512 84.3644 71.3721 83.3663 71.1389C82.6022 70.9835 82.9921 70.9213 83.8186 71.0767C84.2552 71.17 84.801 71.341 85.0349 71.4653C85.4716 71.7141 85.877 71.6363 85.4716 71.3876C85.0973 71.1545 86.2669 71.0612 87.6392 71.2166C89.0739 71.3876 89.6041 71.4032 89.4949 71.3099C89.4637 71.2788 88.6216 71.1389 87.6392 71.0146C85.1909 70.6881 84.5671 70.4083 86.5476 70.5327C87.3585 70.5793 88.6216 70.7192 89.3546 70.828C90.0875 70.9524 91.2571 71.0923 91.9744 71.1389C92.6762 71.1855 93.8301 71.3254 94.5475 71.4653C95.2492 71.5897 96.4968 71.7918 97.3077 71.9317C99.7092 72.3047 101.425 72.7866 104.294 73.8903C105.167 74.2323 105.978 74.481 106.087 74.4343C106.181 74.4033 105.729 74.0768 105.074 73.7193C104.403 73.3462 103.857 73.0198 103.857 72.9732C103.857 72.9421 104.091 72.9421 104.372 73.0043C104.855 73.0975 104.855 73.082 104.559 72.8333C104.388 72.6934 103.998 72.4757 103.701 72.3514C101.518 71.4343 100.021 70.6881 100.66 70.828C100.926 70.8902 101.581 70.9835 102.142 71.0456C102.703 71.1234 103.343 71.2322 103.561 71.2788C103.857 71.3721 103.998 71.3254 104.06 71.1545C104.138 70.9679 104.06 70.9057 103.733 70.9057C103.499 70.8902 103.109 70.7969 102.844 70.6881L102.376 70.486L102.797 70.284C103.53 69.942 103.28 69.5845 102.064 69.1958C100.816 68.7917 99.7404 68.2787 100.146 68.2632C100.286 68.2632 100.442 68.3254 100.489 68.4031C100.645 68.6518 101.347 68.6984 101.44 68.4497C101.487 68.3254 101.627 68.2632 101.736 68.3098C101.861 68.3564 102.048 68.2943 102.158 68.1699C102.313 67.9678 102.376 67.9834 102.657 68.2165C102.953 68.4808 102.953 68.4808 102.859 68.1388C102.766 67.8435 102.797 67.7968 103.187 67.7968C103.436 67.7968 103.701 67.859 103.795 67.9367C103.873 68.0145 104.216 68.1077 104.559 68.1388C105.183 68.1854 105.183 68.1855 105.136 67.6725C105.105 67.1595 105.12 67.1595 105.573 67.2528C105.822 67.315 106.041 67.2994 106.041 67.2217C106.041 67.0818 105.791 67.0507 104.887 67.0196C104.154 66.9885 102.703 66.3978 102.906 66.1958C103.031 66.0714 103.124 66.0714 103.265 66.2113C103.53 66.4756 103.966 66.4445 104.076 66.1647C104.154 65.947 104.216 65.947 104.668 66.1802C104.949 66.3201 105.245 66.5377 105.308 66.6465C105.37 66.7709 105.542 66.8642 105.666 66.8642C105.994 66.8642 105.791 66.5844 105.198 66.2268C104.621 65.8849 104.777 65.8382 105.417 66.1647C105.666 66.289 105.963 66.3512 106.103 66.3046C106.228 66.2579 106.477 66.3046 106.664 66.3978C106.945 66.5377 107.039 66.5377 107.132 66.3978C107.226 66.2424 107.413 66.2579 107.959 66.4445C108.614 66.6621 108.66 66.6621 108.582 66.4445C108.504 66.2268 108.567 66.2113 109.003 66.289C109.284 66.3512 109.596 66.3357 109.69 66.2579C109.877 66.1025 110.501 66.0248 111.405 66.0559C111.873 66.0869 111.982 66.1336 111.904 66.3357C111.686 66.9108 112.029 66.8331 112.294 66.2579C112.45 65.9004 112.653 65.6206 112.746 65.6206C113.136 65.6206 116.302 66.4445 118.672 67.144C122.087 68.1699 125.222 69.3513 127.296 70.3461C128.216 70.7969 128.964 71.1078 128.964 71.0301C128.964 70.9524 128.793 70.8125 128.574 70.7192C128.356 70.6259 128.2 70.4549 128.247 70.3461C128.294 70.2373 128.107 70.0663 127.857 69.9731C127.608 69.8643 127.358 69.7088 127.311 69.6311C127.249 69.5378 127.358 69.5534 127.53 69.6466C127.701 69.7399 127.935 69.8176 128.044 69.8176C128.325 69.8176 127.904 69.3824 127.046 68.8072C126.594 68.4963 126.376 68.2632 126.5 68.2321C126.656 68.1699 126.625 68.0766 126.407 67.8124C126.048 67.4238 126.095 67.4082 126.828 67.7191C127.14 67.8435 127.436 67.9523 127.483 67.9523C127.686 67.9523 127.53 67.3927 127.218 67.0662C126.921 66.7554 126.906 66.6776 127.093 66.5533C127.218 66.46 127.42 66.4289 127.53 66.4756C127.966 66.631 127.654 66.3978 126.672 65.8071C125.081 64.8745 123.569 64.1594 122.228 63.6775C120.949 63.2267 120.684 63.0402 121.526 63.1957C121.994 63.2889 121.978 63.2734 121.323 62.9159C120.185 62.2941 121.167 62.4962 122.461 63.1646C122.617 63.2423 122.82 63.2578 122.914 63.1957C123.132 63.0558 120.746 62.1386 118.906 61.6412C116.567 61.0194 115.194 60.6464 114.695 60.4754C114.009 60.2577 109.128 59.294 107.631 59.0919C105.775 58.8432 105.448 58.6877 106.446 58.5634C107.241 58.439 110.345 58.8587 112.138 59.3251C112.621 59.4494 113.183 59.5582 113.385 59.5427C113.588 59.5427 113.089 59.3717 112.278 59.1852C111.467 58.9986 110.656 58.7655 110.485 58.6722C110.313 58.5634 109.05 58.2991 107.678 58.0815C106.306 57.8639 104.918 57.5996 104.59 57.5064C103.92 57.3043 103.904 56.9779 104.575 57.0245C104.965 57.0556 104.98 57.04 104.715 56.9312C104.263 56.7136 103.655 56.7291 103.795 56.9312C103.857 57.04 103.795 57.0711 103.608 57.0245C103.436 56.9779 102.61 56.8535 101.752 56.7602C99.8964 56.5426 99.5689 56.4493 100.115 56.3094C100.427 56.2162 100.317 56.154 99.4441 55.9208C98.8671 55.7654 98.4305 55.5788 98.4773 55.5167C98.5241 55.4545 98.9919 55.3457 99.5533 55.299C100.364 55.2058 101.05 55.2835 103.249 55.7187C104.746 56.0141 106.274 56.3094 106.664 56.3561C107.054 56.4027 107.616 56.4804 107.912 56.5271C109.003 56.6981 106.368 55.9675 104.013 55.4545C100.941 54.7705 96.5592 53.9622 95.951 53.9622C95.7015 53.9622 95.3584 53.8534 95.1869 53.729C95.0309 53.6047 94.797 53.4959 94.6878 53.4959C94.3604 53.4959 93.9861 53.0762 94.2356 52.9829C94.3292 52.9363 94.2512 52.8896 94.0329 52.8896C93.8146 52.8741 93.5339 52.7964 93.4091 52.7187C93.2376 52.6098 93.4091 52.5632 94.0329 52.5477L94.8906 52.5166L93.9549 52.33C93.4403 52.2212 93.1284 52.128 93.2687 52.1124C93.4091 52.0969 93.6118 51.9881 93.721 51.8637C93.8301 51.7393 93.9861 51.6772 94.0797 51.7393C94.1732 51.786 94.1888 51.7549 94.1264 51.6616C94.0485 51.5217 93.9237 51.5217 93.721 51.6305C93.3623 51.8326 92.4734 51.8326 92.1616 51.6305C91.9588 51.5062 91.9588 51.4751 92.1616 51.4129C92.3955 51.3352 95.7327 51.0088 96.2629 51.0088C96.4032 51.0088 96.5124 50.9155 96.4812 50.8222C96.4656 50.6979 96.7931 50.5424 97.3077 50.4336L98.1654 50.2315L97.1985 50.3093C95.951 50.4025 93.643 50.2315 93.9081 50.0605C94.0173 49.9828 94.5787 49.9206 95.1401 49.9206C95.7015 49.9206 96.9334 49.874 97.8691 49.8118C99.7716 49.703 99.6001 49.5476 97.4169 49.3766C96.7151 49.3299 95.8886 49.2522 95.5923 49.19C95.1401 49.1279 95.1089 49.0812 95.3584 48.988C95.5455 48.9258 95.218 48.8481 94.4227 48.7703C93.7366 48.7082 93.1128 48.5994 93.0192 48.5216C92.9413 48.4595 92.7229 48.3662 92.5514 48.304C92.3799 48.2574 92.489 48.2574 92.7853 48.2885C93.9705 48.4439 95.7483 48.3973 95.9978 48.1952C96.1381 48.0708 96.6215 48.0087 97.2765 48.0398C97.9315 48.0553 98.2434 48.0087 98.1186 47.9309C97.9471 47.8221 97.9627 47.7755 98.1654 47.6822C98.5552 47.5423 99.0231 47.5734 99.0231 47.7444C99.0231 47.8221 98.9139 47.8999 98.7892 47.8999C98.6644 47.8999 98.5552 47.962 98.5552 48.0553C98.5552 48.1486 99.3194 48.2263 100.473 48.2418C104.746 48.3196 104.434 48.304 110.251 49.1279C114.181 49.6875 115.943 50.0295 116.52 50.3248C116.941 50.5424 117.892 50.4647 117.892 50.216C117.892 50.1383 117.658 49.9673 117.393 49.8429C116.894 49.6098 116.894 49.6098 117.315 49.6875C117.612 49.7497 117.721 49.7186 117.658 49.6097C117.612 49.532 117.456 49.4543 117.331 49.4543C117.206 49.4543 117.035 49.2833 116.957 49.0657C116.879 48.8481 116.691 48.6771 116.52 48.6771C116.364 48.6771 116.083 48.5372 115.896 48.3506C115.709 48.1797 115.475 48.0864 115.397 48.133C115.304 48.1952 115.085 48.1797 114.883 48.1175L114.539 47.9931L114.929 47.8999L115.319 47.791L114.898 47.62C114.649 47.5268 114.462 47.4024 114.462 47.3402C114.462 47.2314 115.787 47.3713 116.302 47.5268C116.442 47.5734 116.255 47.4335 115.865 47.2159C115.054 46.7651 115.085 46.7185 116.021 47.0449C116.801 47.3247 116.801 47.3247 116.801 47.1382C116.801 47.076 116.364 46.8584 115.834 46.6563C115.288 46.4698 114.571 46.1278 114.228 45.9102C113.885 45.677 113.152 45.2417 112.606 44.9464C112.06 44.651 111.608 44.3246 111.623 44.2469C111.639 44.1536 111.873 44.0448 112.154 43.9982C112.434 43.936 112.59 43.8894 112.497 43.8738C112.403 43.8738 112.044 43.6717 111.717 43.4541C111.389 43.221 110.906 42.9722 110.641 42.879C110.391 42.7857 110.142 42.6613 110.095 42.5992C110.048 42.5214 109.736 42.366 109.393 42.2572C107.959 41.7598 108.832 41.3867 111.748 41.2623C112.98 41.2157 113.962 41.138 113.931 41.1069C113.9 41.0603 113.526 40.9359 113.105 40.8116L112.356 40.6095L113.089 40.6406C113.604 40.6561 113.775 40.625 113.666 40.5007C113.573 40.3763 113.9 40.2986 114.82 40.2364C116.988 40.0654 117.393 40.0965 117.768 40.4696C118.157 40.8582 118.407 40.7494 118.937 39.9721L119.296 39.4592L118.625 38.8685C118.267 38.542 117.705 38.1534 117.393 37.998C116.723 37.6871 116.66 37.2363 117.268 37.2829C117.487 37.2985 117.565 37.2674 117.456 37.2208C117.3 37.1586 117.3 37.0964 117.44 36.9254C117.612 36.7078 117.487 36.6301 116.021 36.0238C115.896 35.9772 116.13 35.9772 116.551 36.0238C117.066 36.086 117.268 36.0549 117.191 35.9461C117.144 35.8528 116.988 35.7751 116.847 35.7751C116.707 35.7751 116.13 35.6197 115.553 35.4176C114.68 35.1378 114.477 34.9979 114.337 34.6248C114.181 34.2518 114.196 34.1119 114.415 33.8787C114.649 33.6144 114.633 33.5989 114.181 33.5989C113.9 33.5989 113.682 33.5212 113.682 33.4434C113.682 33.0393 117.362 33.5678 121.136 34.5316C122.243 34.8114 122.882 34.7958 122.882 34.5005C122.882 34.4227 122.68 34.2673 122.415 34.174C121.962 34.003 121.775 33.7543 122.103 33.7543C122.196 33.7543 122.259 33.6922 122.259 33.63C122.259 33.4124 121.51 33.1326 120.964 33.1326C120.684 33.1326 120.169 32.9927 119.795 32.8217C119.343 32.6196 118.485 32.4641 117.222 32.3553C112.356 31.9356 110.142 31.6869 109.97 31.5004C109.783 31.3138 115.35 31.8734 118.75 32.3709C119.358 32.4641 120.512 32.6351 121.339 32.7439C122.165 32.8683 122.898 32.9771 122.976 32.9927C123.475 33.0859 123.304 32.8994 122.602 32.5885C122.15 32.3864 121.806 32.1377 121.822 32.0289C121.853 31.9356 121.76 31.8113 121.635 31.7802C121.432 31.718 121.432 31.7335 121.635 31.889C121.838 32.0444 121.822 32.06 121.588 31.9823C121.432 31.9356 121.261 31.889 121.229 31.889C121.183 31.889 121.183 31.8268 121.229 31.7491C121.276 31.6869 121.042 31.5004 120.699 31.3449C120.153 31.0962 120.107 31.0496 120.341 30.8786C120.684 30.6299 120.45 30.2879 120.013 30.3967C119.826 30.4434 119.467 30.4123 119.218 30.3345C118.797 30.1946 118.812 30.1946 119.374 30.2568L119.998 30.3345L119.53 30.0858C119.28 29.9459 118.953 29.7438 118.828 29.635C118.61 29.4485 117.955 29.2775 116.177 28.92C115.787 28.8423 114.961 28.7645 114.352 28.7645C113.729 28.749 113.167 28.6713 113.12 28.5936C112.98 28.3759 115.584 28.5625 116.988 28.8734C118.734 29.262 118.672 29.0443 116.894 28.5625C115.99 28.3138 115.241 28.0495 115.241 27.9562C115.241 27.8008 116.707 27.8941 117.409 28.0961C117.69 28.1739 117.752 28.1583 117.658 28.0029C117.565 27.8474 117.643 27.8163 117.986 27.8941C118.282 27.9407 118.485 27.8941 118.61 27.7231C118.766 27.5054 119.062 27.5054 121.573 27.6764C123.366 27.8008 124.473 27.9407 124.691 28.0806C124.894 28.2049 125.097 28.236 125.237 28.1428C125.674 27.8785 127.67 27.9873 128.294 28.3138C128.902 28.6402 129.526 28.6868 130.212 28.4692C130.57 28.3604 130.57 28.3448 130.056 28.3138C129.744 28.2982 129.635 28.2516 129.791 28.2049C130.071 28.1272 130.056 28.1117 129.76 27.8941C129.572 27.7697 129.463 27.5987 129.51 27.521C129.572 27.4433 129.417 27.3034 129.167 27.2101C128.871 27.1013 128.793 27.0236 128.949 26.9303C129.089 26.837 128.871 26.6505 128.278 26.3085C127.358 25.7955 127.14 25.5779 127.81 25.8266C128.029 25.9199 128.356 25.9821 128.543 25.9821H128.871L128.528 25.6712C128.34 25.5002 128.075 25.3603 127.919 25.3447C127.748 25.3447 127.717 25.2981 127.841 25.2515C127.935 25.2204 127.997 25.1271 127.951 25.0494C127.841 24.8784 129.448 24.9872 129.962 25.1893C130.321 25.3292 130.446 25.3292 130.555 25.1738C130.664 25.0183 130.726 25.0339 130.898 25.2515C131.085 25.4846 131.132 25.4846 131.303 25.2826C131.459 25.096 131.413 24.9717 131.07 24.552C130.836 24.2722 130.555 24.039 130.446 24.0235C130.321 24.0079 129.916 23.7748 129.526 23.5105C128.808 23.0131 128.59 22.7644 129.042 22.9198C129.417 23.0752 129.494 22.7177 129.136 22.469C128.699 22.1581 128.699 21.7229 129.136 21.8628C129.417 21.956 129.448 21.925 129.354 21.5985C129.214 21.1633 128.637 20.6503 127.763 20.2151C127.077 19.8731 126.703 19.5466 127.202 19.7021C127.701 19.8575 126.781 19.2047 125.424 18.4274C124.021 17.6191 123.787 17.3238 125.05 17.9611C125.923 18.4119 126.001 18.4274 126.001 18.2254C126.001 18.1476 125.721 17.9766 125.393 17.8523C125.05 17.7124 124.738 17.5259 124.676 17.4326C124.629 17.3549 124.411 17.2771 124.208 17.2771C124.005 17.2771 123.787 17.1994 123.74 17.1217C123.693 17.0284 123.381 16.8264 123.07 16.6554C121.838 16.0025 122.976 16.3911 124.473 17.1372C125.362 17.5569 125.97 17.8212 125.845 17.6813C125.362 17.215 123.459 16.2978 121.401 15.5672C119.187 14.7589 118.36 14.3859 119.218 14.5724C119.483 14.6346 120.356 14.9144 121.167 15.1942C122.867 15.8004 122.727 15.7693 122.727 15.5672C122.727 15.474 122.539 15.3185 122.305 15.2097C122.056 15.1165 121.541 14.79 121.136 14.5102C120.325 13.9351 118.36 13.1734 116.816 12.8314C116.255 12.7071 115.615 12.5672 115.397 12.505L115.007 12.4117L115.397 12.3029C115.678 12.2252 115.506 12.163 114.695 12.0853C112.964 11.9298 109.331 11.5257 108.177 11.3547C107.584 11.277 107.054 11.2459 106.976 11.2925C106.898 11.3391 106.54 11.308 106.165 11.2148C105.791 11.1371 104.559 10.9972 103.436 10.9194C101.955 10.8262 101.253 10.7174 100.972 10.5308C100.489 10.2199 100.458 9.94013 100.941 10.0334C101.627 10.1733 104.559 10.2821 104.247 10.1422C104.076 10.08 103.109 9.97122 102.111 9.90904C100.785 9.84686 100.146 9.73805 99.7716 9.53597C99.101 9.1629 99.0075 8.83647 99.6001 8.96082C100.52 9.1629 99.5689 8.7432 98.5241 8.49449C97.9627 8.35459 97.3545 8.13696 97.1985 8.01261C96.9334 7.81053 96.949 7.79498 97.3545 7.88825C97.604 7.95043 97.7755 7.91934 97.7755 7.82607C97.7755 7.624 96.7775 7.40637 96.5436 7.56182C96.45 7.60845 96.372 7.57736 96.372 7.48409C96.372 7.37528 96.2629 7.32865 96.1381 7.37528C96.0134 7.43746 95.873 7.40637 95.8262 7.32865C95.7638 7.23538 96.0445 7.1732 96.4812 7.1732C97.1829 7.15766 97.2141 7.15766 96.9178 6.92449C96.6215 6.69132 96.6371 6.67578 97.1362 6.78459C97.5104 6.86231 97.6352 6.84677 97.5416 6.70687C97.4636 6.58251 97.5884 6.55142 98.0406 6.62915L98.6332 6.72241L98.1654 6.50479L97.6975 6.30271L98.181 6.1939C98.4461 6.14727 98.8359 6.14727 99.0387 6.1939C99.3038 6.25608 99.3661 6.24053 99.257 6.11618C99.1634 6.00737 98.4305 5.72756 97.6196 5.47885C96.0134 4.99697 94.9529 4.51509 95.2492 4.40628C95.5611 4.31301 95.2804 4.0643 94.8438 4.0643C94.6099 4.0643 94.142 3.95549 93.799 3.83113L93.1752 3.59797L93.8457 3.67569C94.2044 3.72232 94.797 3.7845 95.1713 3.83113C95.9822 3.93994 95.6391 3.69123 94.7658 3.53579C94.3292 3.45806 94.1888 3.3648 94.2512 3.19381C94.3136 3.03836 94.2044 2.97618 93.8146 2.97618C93.1596 2.97618 92.7541 2.83628 92.8789 2.64975C92.9257 2.57203 92.6762 2.46322 92.3175 2.41658C91.5534 2.29223 91.335 2.04351 91.99 2.04351C92.2395 2.04351 92.5046 1.96579 92.5514 1.88807C92.5982 1.7948 92.8165 1.77926 93.0348 1.82589C93.2999 1.88807 93.4091 1.85698 93.4091 1.68599C93.4091 1.2352 91.6625 0.908756 88.5748 0.799946C86.9842 0.753315 86.2045 0.691136 86.8439 0.675594C88.2941 0.628956 90.7581 0.333614 91.0699 0.162624C91.3662 -0.00836551 89.5885 0.0227243 88.3409 0.209255ZM76.6451 1.11084C75.881 1.26629 74.8986 1.40619 74.4619 1.42173C73.9317 1.43728 73.7758 1.48391 73.9785 1.56163C74.2592 1.67044 74.2592 1.68599 73.9005 1.77926C73.6978 1.84143 73.4171 1.88807 73.2924 1.88807C73.1052 1.88807 73.1052 1.85698 73.2768 1.74817C73.4327 1.6549 73.4327 1.59272 73.2924 1.49945C72.9649 1.29737 62.3763 1.34401 61.5186 1.56163C61.0976 1.6549 59.9748 1.81034 59.0235 1.88807C58.0878 1.96579 57.1054 2.0746 56.8403 2.13678C56.544 2.19896 56.4348 2.18341 56.5284 2.09015C57.1522 1.49945 66.2125 0.846584 74.228 0.831036H78.0486L76.6451 1.11084ZM54.1893 1.88807C52.9729 2.2145 52.1464 2.27668 52.006 2.05906C51.8813 1.85698 52.739 1.71708 54.891 1.60827C55.1093 1.60827 54.7974 1.73262 54.1893 1.88807ZM63.3899 1.85698C63.2028 2.02797 61.7057 2.3544 61.1599 2.3544C60.3022 2.3544 61.1132 2.01242 62.236 1.88807C62.8753 1.82589 63.4211 1.76371 63.4679 1.74817C63.4991 1.74817 63.4679 1.7948 63.3899 1.85698ZM64.2008 1.82589C64.1541 1.87252 64.0137 1.88807 63.9045 1.84143C63.7798 1.7948 63.8266 1.74817 63.9981 1.74817C64.1697 1.73262 64.2632 1.77926 64.2008 1.82589ZM51.5382 2.19896C51.1483 2.3544 46.47 3.02282 46.3765 2.9451C46.2829 2.83628 50.5402 2.0746 51.2263 2.0746C51.7097 2.05906 51.7721 2.09015 51.5382 2.19896ZM59.1483 2.30777C59.0391 2.33886 58.852 2.33886 58.7584 2.30777C58.6492 2.26114 58.7272 2.23005 58.9455 2.23005C59.1639 2.23005 59.2418 2.26114 59.1483 2.30777ZM60.6609 2.3544C60.6609 2.43213 60.4114 2.50985 60.0995 2.50985C59.772 2.50985 59.5849 2.44767 59.6473 2.3544C59.6941 2.26114 59.9436 2.19896 60.2087 2.19896C60.4582 2.19896 60.6609 2.26114 60.6609 2.3544ZM45.9866 3.03836C45.9242 3.10054 43.3979 3.75341 43.2264 3.75341C42.8833 3.75341 43.5539 3.47361 44.4116 3.27153C45.4564 3.00727 46.1114 2.91401 45.9866 3.03836ZM42.4935 3.98658C42.244 4.11093 41.9165 4.2042 41.7917 4.2042C41.667 4.2042 41.7761 4.09539 42.0256 3.98658C42.2907 3.86222 42.6026 3.76895 42.7274 3.76895C42.8521 3.76895 42.7586 3.87777 42.4935 3.98658ZM26.5248 10.3443C26.3065 10.593 25.6827 10.7951 25.8231 10.5619C25.8699 10.4842 26.0726 10.3598 26.2597 10.2821C26.712 10.0956 26.7276 10.0956 26.5248 10.3443ZM96.8399 11.0593C96.8399 11.1371 96.9958 11.2148 97.1985 11.1992C97.526 11.1992 97.526 11.1837 97.2297 11.0438C96.9958 10.935 97.0582 10.9194 97.4636 10.9972C97.7599 11.0593 99.4441 11.1215 101.206 11.1526C103.14 11.1837 104.996 11.2925 105.885 11.4479C107.974 11.7899 109.378 11.9609 110.61 12.0386C111.202 12.0853 111.764 12.1941 111.857 12.2873C112.076 12.505 112.481 12.505 112.341 12.2873C112.263 12.1474 112.434 12.1474 112.996 12.2252C113.417 12.3029 113.947 12.3495 114.196 12.334C114.68 12.3184 114.727 12.4739 114.352 12.847C114.181 13.0179 113.962 13.0801 113.697 13.0179C112.918 12.8314 111.561 12.5982 110.875 12.5205C110.485 12.4739 109.752 12.3651 109.237 12.2873C107.584 12.0386 107.631 12.163 109.3 12.4739C110.189 12.6449 111.031 12.847 111.171 12.9402C111.358 13.0646 111.311 13.0801 110.953 13.0179C108.582 12.6449 104.606 12.2718 104.715 12.4583C104.762 12.5205 105.401 12.6293 106.15 12.676C107.6 12.7848 110.906 13.2045 110.984 13.2977C111.093 13.391 106.836 13.22 105.651 13.0801C104.965 12.9869 104.169 12.9247 103.857 12.9247C103.343 12.9402 103.327 12.9558 103.608 13.1578C103.904 13.3755 103.889 13.391 103.452 13.3755C102.875 13.3599 100.567 12.9713 100.941 12.9402C101.082 12.9247 101.206 12.847 101.206 12.7692C101.206 12.5672 100.692 12.5672 100.489 12.7692C100.395 12.8625 100.193 12.8936 100.052 12.8314C99.834 12.7537 99.8184 12.6915 99.9899 12.5982C100.146 12.4894 100.13 12.4583 99.9275 12.4583C99.7872 12.4583 99.6157 12.5205 99.5689 12.6138C99.4597 12.7848 95.4052 12.8314 95.2336 12.6604C95.1713 12.6138 94.6722 12.5827 94.1108 12.5982C93.4715 12.6293 93.0972 12.5672 93.0972 12.4739C93.0972 12.3806 93.2999 12.3029 93.5339 12.3029C93.7678 12.3029 94.0485 12.2252 94.1576 12.1164C94.2824 11.992 94.3915 11.992 94.5319 12.1008C94.8126 12.334 97.7131 12.5361 97.8379 12.334C97.8847 12.2563 97.6508 12.1474 97.2765 12.0853C96.9334 12.0231 96.4344 11.8055 96.1849 11.6034C95.9354 11.3858 95.4987 11.1992 95.2336 11.1837C94.8126 11.1681 94.8594 11.1526 95.4364 11.0593C96.528 10.8883 96.8399 10.8883 96.8399 11.0593ZM23.8582 11.7433C23.8582 11.9765 21.5502 12.847 21.3787 12.676C21.2539 12.5672 21.6906 12.3029 22.0337 12.3029C22.174 12.3029 22.2832 12.2252 22.2676 12.1319C22.2364 12.0386 22.5327 11.8676 22.9225 11.7588C23.8738 11.4946 23.8582 11.4946 23.8582 11.7433ZM86.5008 11.7744C86.454 11.821 86.3137 11.8366 86.2045 11.7899C86.0797 11.7433 86.1265 11.6967 86.2981 11.6967C86.4696 11.6811 86.5632 11.7277 86.5008 11.7744ZM88.3097 11.7899C88.029 11.821 87.5612 11.821 87.2961 11.7899C87.0154 11.7588 87.2337 11.7277 87.7951 11.7277C88.3565 11.7277 88.5748 11.7588 88.3097 11.7899ZM90.493 11.9454C90.3838 11.9765 90.1655 11.9765 90.0251 11.9454C89.8692 11.8987 89.9627 11.8676 90.2122 11.8676C90.4774 11.8676 90.5865 11.8987 90.493 11.9454ZM92.2239 12.0542C92.1771 12.1941 92.3019 12.3184 92.5826 12.3962C93.2532 12.5982 90.6489 12.7381 89.0427 12.5827C88.3097 12.5205 87.0466 12.505 86.2357 12.5361C85.0817 12.5982 84.8634 12.5827 85.2221 12.4583C85.955 12.1941 90.3838 12.0697 90.6489 12.2873C90.7737 12.3806 91.0388 12.4272 91.2415 12.3962C91.4442 12.3495 91.6781 12.3184 91.7561 12.3184C91.8185 12.3029 91.8497 12.1941 91.7873 12.0697C91.7249 11.9143 91.8029 11.8366 92.0056 11.8366C92.1927 11.8366 92.2707 11.9143 92.2239 12.0542ZM92.7853 11.992C92.7853 12.0697 92.7541 12.1474 92.7229 12.1474C92.6762 12.1474 92.5982 12.0697 92.5514 11.992C92.5046 11.8987 92.5358 11.8366 92.6138 11.8366C92.7074 11.8366 92.7853 11.8987 92.7853 11.992ZM117.284 13.2356C119.062 13.6864 120.512 14.246 120.325 14.4325C120.278 14.4791 120.044 14.448 119.81 14.3548C119.576 14.2771 119.046 14.1993 118.656 14.1838C118.267 14.1838 117.736 14.075 117.487 13.9351C117.237 13.8107 116.894 13.7019 116.723 13.7019C116.551 13.7019 116.239 13.5931 116.052 13.4532C115.865 13.3288 115.569 13.2511 115.413 13.3133C115.085 13.4066 114.851 13.1734 115.007 12.9247C115.148 12.7071 115.21 12.7226 117.284 13.2356ZM104.715 13.2356C104.777 13.3288 104.637 13.391 104.403 13.391C104.169 13.391 104.029 13.3288 104.091 13.2356C104.138 13.1423 104.278 13.0801 104.403 13.0801C104.528 13.0801 104.668 13.1423 104.715 13.2356ZM94.142 13.3444C93.9705 13.391 93.8925 13.5154 93.9393 13.6397C94.0329 13.8729 93.4871 13.9506 93.3467 13.7174C93.2999 13.6553 93.0816 13.6242 92.8633 13.6708C92.645 13.7019 92.4734 13.6708 92.4734 13.5775C92.4734 13.4843 92.6294 13.3755 92.8321 13.3444C93.2999 13.2511 94.5007 13.2511 94.142 13.3444ZM105.963 13.391C106.087 13.5931 105.417 13.5931 105.105 13.391C104.933 13.2822 104.996 13.2356 105.37 13.2356C105.635 13.2356 105.916 13.2977 105.963 13.391ZM114.851 13.5465C114.898 13.6242 114.867 13.7019 114.789 13.7019C114.695 13.7019 114.617 13.6242 114.617 13.5465C114.617 13.4532 114.649 13.391 114.68 13.391C114.727 13.391 114.805 13.4532 114.851 13.5465ZM105.214 13.6864C105.557 13.7796 105.885 13.7796 106.212 13.6553C106.618 13.4998 106.711 13.5154 106.883 13.733C107.007 13.904 107.195 13.9662 107.397 13.9195C107.569 13.8729 107.772 13.9195 107.834 14.0283C107.927 14.1682 107.787 14.1993 107.272 14.1371C106.898 14.0905 106.446 13.9972 106.29 13.9195C106.072 13.8418 106.025 13.8573 106.103 13.9817C106.274 14.2615 105.76 14.1993 105.027 13.8573C104.341 13.5465 104.434 13.4687 105.214 13.6864ZM118.781 15.5672C120.231 15.847 121.728 16.3134 121.588 16.4377C121.573 16.4688 120.45 16.2201 119.14 15.8781C116.473 15.2097 116.348 15.1009 118.781 15.5672ZM15.7023 17.3704C15.6556 17.417 15.5152 17.4326 15.4061 17.386C15.2813 17.3393 15.3281 17.2927 15.4996 17.2927C15.6712 17.2771 15.7647 17.3238 15.7023 17.3704ZM116.879 17.8989L117.191 18.0388H116.879C116.707 18.0388 116.286 17.9766 115.943 17.9145L115.319 17.7746H115.943C116.286 17.7746 116.707 17.8212 116.879 17.8989ZM15.4372 20.9146C15.4372 20.9456 15.3281 21.0234 15.1877 21.07C15.063 21.1166 15.0006 21.1011 15.0474 21.0078C15.1409 20.8524 15.4372 20.7902 15.4372 20.9146ZM18.6653 21.2565C18.6185 21.3032 18.4781 21.3187 18.369 21.2721C18.2442 21.2254 18.291 21.1788 18.4625 21.1788C18.6341 21.1633 18.7277 21.2099 18.6653 21.2565ZM21.9089 22.5623C22.0025 22.7177 21.1292 23.2307 20.8797 23.153C20.6769 23.0908 21.3163 22.4068 21.597 22.4068C21.7218 22.4068 21.8465 22.469 21.9089 22.5623ZM128.185 22.5623C128.59 22.811 128.231 22.9043 127.763 22.6555C127.405 22.4535 127.389 22.4224 127.639 22.4224C127.81 22.4068 128.06 22.469 128.185 22.5623ZM79.4989 24.0701C79.265 24.1012 78.844 24.1012 78.5633 24.0701C78.2826 24.039 78.4697 24.0079 78.9843 24.0079C79.4989 24.0079 79.7328 24.039 79.4989 24.0701ZM129.167 24.381C129.448 24.5209 129.884 24.6763 130.134 24.7385C130.508 24.8318 130.555 24.8784 130.337 24.9717C130.181 25.0339 129.853 24.9717 129.588 24.8318C129.323 24.7074 129.027 24.6142 128.917 24.6452C128.808 24.6608 128.793 24.6608 128.855 24.6142C128.917 24.5831 128.855 24.4587 128.699 24.3344C128.309 24.039 128.574 24.0701 129.167 24.381ZM75.7563 24.7385C75.46 24.925 73.6042 25.1427 73.6042 25.0028C73.6042 24.8318 74.5867 24.6142 75.3196 24.5986C75.8498 24.5986 75.959 24.6297 75.7563 24.7385ZM95.2492 25.78C95.0153 25.8111 94.5943 25.8111 94.3136 25.78C94.0329 25.7489 94.22 25.7178 94.7346 25.7178C95.2492 25.7178 95.4831 25.7489 95.2492 25.78ZM90.7269 25.9354C90.3994 25.9665 89.838 25.9665 89.4793 25.9354C89.105 25.9044 89.3702 25.8733 90.0563 25.8733C90.7425 25.8733 91.0388 25.9044 90.7269 25.9354ZM84.1772 26.4018C83.9277 26.4329 83.5535 26.4329 83.3195 26.4018C83.07 26.3707 83.2728 26.3396 83.7406 26.3396C84.2084 26.3396 84.4111 26.3707 84.1772 26.4018ZM81.4014 26.5106C81.4014 26.5572 81.3391 26.6349 81.2455 26.6816C81.1675 26.7282 81.0895 26.6971 81.0895 26.6194C81.0895 26.5261 81.1675 26.4484 81.2455 26.4484C81.3391 26.4484 81.4014 26.4795 81.4014 26.5106ZM83.8965 27.6143C84.2396 27.8163 84.2552 27.8319 83.9745 27.8474C83.3507 27.8474 82.5086 27.6453 82.5866 27.521C82.7114 27.3034 83.4599 27.3655 83.8965 27.6143ZM12.4275 28.578C12.1 28.92 11.9285 28.749 12.1624 28.3138C12.3028 28.065 12.3963 28.0184 12.5211 28.1428C12.6458 28.2671 12.6303 28.3915 12.4275 28.578ZM80.0759 29.4019C80.0291 29.4796 79.92 29.5573 79.8264 29.5573C79.7484 29.5573 79.6861 29.4796 79.6861 29.4019C79.6861 29.3086 79.7952 29.2464 79.9356 29.2464C80.0603 29.2464 80.1227 29.3086 80.0759 29.4019ZM115.787 29.464C116.224 29.5884 116.426 29.6817 116.255 29.6817C115.803 29.6817 114.321 29.2931 114.695 29.262C114.867 29.262 115.366 29.3552 115.787 29.464ZM96.5748 29.8216C96.372 29.8527 96.0601 29.8527 95.873 29.8216C95.6703 29.7905 95.8262 29.7594 96.2161 29.7594C96.6059 29.7594 96.7619 29.7905 96.5748 29.8216ZM97.6664 29.8216C97.5572 29.8527 97.3701 29.8527 97.2765 29.8216C97.1673 29.7749 97.2453 29.7438 97.4636 29.7438C97.682 29.7438 97.7599 29.7749 97.6664 29.8216ZM117.845 29.9615C117.799 30.0081 117.658 30.0237 117.549 29.977C117.424 29.9304 117.471 29.8838 117.643 29.8838C117.814 29.8682 117.908 29.9148 117.845 29.9615ZM118.563 30.1325C118.454 30.1636 118.267 30.1636 118.173 30.1325C118.064 30.0858 118.142 30.0547 118.36 30.0547C118.578 30.0547 118.656 30.0858 118.563 30.1325ZM100.427 30.6454C99.8652 30.7076 99.5533 30.7698 99.7248 30.8009C100.302 30.8786 98.3525 31.0807 96.2161 31.1739C94.875 31.2206 94.3448 31.205 94.7346 31.1273C95.0777 31.0496 95.4052 31.0185 95.4676 31.0651C95.5299 31.0962 95.7483 31.034 95.9354 30.9252C96.3097 30.7232 98.2434 30.5522 100.271 30.5366H101.44L100.427 30.6454ZM104.762 30.7542C104.512 30.7853 104.138 30.7853 103.904 30.7542C103.655 30.7232 103.857 30.6921 104.325 30.6921C104.793 30.6921 104.996 30.7232 104.762 30.7542ZM92.4734 31.2517C92.4734 31.3294 92.3799 31.4227 92.2863 31.4693C92.0056 31.5626 91.6781 31.4227 91.7873 31.2517C91.8964 31.0651 92.4734 31.0651 92.4734 31.2517ZM107.834 31.2672L108.302 31.3916H107.834C107.584 31.3916 107.163 31.3294 106.898 31.2672L106.43 31.1429H106.898C107.163 31.1429 107.584 31.205 107.834 31.2672ZM108.957 31.3605C108.91 31.4071 108.77 31.4227 108.66 31.376C108.536 31.3294 108.582 31.2828 108.754 31.2828C108.925 31.2672 109.019 31.3138 108.957 31.3605ZM115.272 32.4641C116.364 32.604 117.222 32.7595 117.191 32.7906C117.081 32.8994 112.356 32.3242 112.2 32.1843C112.029 32.0133 112.122 32.0289 115.272 32.4641ZM118.095 32.9305C117.986 32.9616 117.768 32.9616 117.627 32.9305C117.471 32.8838 117.565 32.8528 117.814 32.8528C118.079 32.8528 118.189 32.8838 118.095 32.9305ZM12.2404 33.1326C11.8193 33.3191 11.5698 33.3191 11.8505 33.1326C11.9753 33.0548 12.1936 32.9927 12.3184 32.9927C12.4743 32.9927 12.4431 33.0393 12.2404 33.1326ZM37.1914 35.1533C37.0199 35.2311 36.7703 35.2932 36.6456 35.2932C36.5052 35.2932 36.5208 35.2311 36.7236 35.1533C36.8951 35.0756 37.1446 35.0134 37.2694 35.0134C37.4097 35.0134 37.3941 35.0756 37.1914 35.1533ZM16.7316 37.5783C16.5756 37.6871 16.5288 37.7959 16.6068 37.7959C16.7004 37.7959 16.6536 37.8736 16.5288 37.9514C16.217 38.1534 16.0142 38.1534 16.139 37.9514C16.2793 37.7182 16.139 37.7648 15.5152 38.1379C14.985 38.4332 14.6887 38.5265 13.332 38.8063L12.8642 38.9151L13.254 38.5887C13.4723 38.4177 13.7375 38.2622 13.8466 38.2622C13.9558 38.2622 14.2365 38.1379 14.4548 37.998C14.8602 37.7337 14.8758 37.7337 14.7667 37.998C14.6263 38.3711 14.9226 38.3244 15.3437 37.9047C15.5464 37.7026 15.7803 37.5783 15.8739 37.6094C15.9674 37.6405 16.2014 37.5627 16.3885 37.4228C16.8095 37.1275 17.137 37.2674 16.7316 37.5783ZM25.6827 37.7337C25.636 37.7804 25.4956 37.7959 25.3864 37.7493C25.2617 37.7026 25.3085 37.656 25.48 37.656C25.6516 37.6405 25.7451 37.6871 25.6827 37.7337ZM26.9771 37.7959C26.9771 37.8736 26.6652 38.0291 26.2753 38.1223C25.8855 38.2156 25.5268 38.3555 25.48 38.4332C25.4332 38.511 25.2929 38.5731 25.1525 38.5731C24.7627 38.5731 24.981 38.4332 25.9946 38.0135C27.055 37.5783 26.9771 37.5938 26.9771 37.7959ZM12.1624 37.8736C12.1624 37.9047 12.0065 38.0291 11.8193 38.1223C11.4919 38.2933 11.4763 38.2933 11.679 38.0602C11.8817 37.8115 12.1624 37.7026 12.1624 37.8736ZM18.0883 37.9047C18.0883 38.0446 16.6068 38.884 16.3729 38.884C16.2793 38.884 16.217 38.8063 16.217 38.7286C16.217 38.6353 16.3105 38.5731 16.4197 38.5731C16.5288 38.5731 16.8563 38.4021 17.1526 38.1845C17.6672 37.7959 18.0883 37.6871 18.0883 37.9047ZM24.6847 37.9669C24.4196 38.2312 23.2344 38.7286 23.2344 38.5887C23.2344 38.4021 23.5619 38.169 24.0921 37.9824C24.7159 37.7648 24.8874 37.7648 24.6847 37.9669ZM24.7159 38.713C24.6691 38.8063 24.4976 38.8529 24.326 38.8374C23.9518 38.8063 24.0921 38.5731 24.4976 38.5731C24.6691 38.5731 24.7783 38.6353 24.7159 38.713ZM18.4002 38.884C18.4002 39.1172 17.7764 39.3815 17.4957 39.2726C17.2774 39.1794 17.3242 39.1172 17.6984 38.9462C18.2754 38.6975 18.4002 38.6819 18.4002 38.884ZM8.96558 40.4385C8.91879 40.5162 8.79404 40.5939 8.71607 40.5939C8.6225 40.5939 8.60691 40.5162 8.65369 40.4385C8.70047 40.3452 8.82523 40.283 8.9032 40.283C8.99677 40.283 9.01236 40.3452 8.96558 40.4385ZM109.643 40.7338C109.939 40.5784 110.033 40.5939 110.204 40.8426C110.407 41.1224 110.376 41.138 109.44 41.1846C108.38 41.2313 107.756 41.138 107.756 40.9048C107.756 40.7183 108.863 40.625 109.113 40.796C109.206 40.8737 109.456 40.8426 109.643 40.7338ZM7.17222 41.3712C7.17222 41.4489 7.10985 41.5266 7.01628 41.5266C6.93831 41.5266 6.86034 41.4489 6.86034 41.3712C6.86034 41.2779 6.93831 41.2157 7.01628 41.2157C7.10985 41.2157 7.17222 41.2779 7.17222 41.3712ZM13.0201 41.5266C13.0825 41.6199 12.911 41.682 12.6303 41.682C12.3496 41.682 12.178 41.6199 12.2404 41.5266C12.2872 41.4333 12.4743 41.3712 12.6303 41.3712C12.7862 41.3712 12.9733 41.4333 13.0201 41.5266ZM107.662 46.5786C108.146 46.8428 108.598 46.8895 108.224 46.6563C107.849 46.4231 108.395 46.4542 110.423 46.8117C112.637 47.2003 112.762 47.247 112.387 47.4491C112.122 47.6045 111.296 47.4802 110.033 47.1071C109.783 47.0294 109.284 46.9672 108.925 46.9672C108.567 46.9672 107.834 46.9205 107.304 46.8739C106.524 46.7806 106.384 46.734 106.524 46.563C106.758 46.2832 107.101 46.2832 107.662 46.5786ZM98.8359 46.6407C99.0231 46.6563 99.179 46.734 99.179 46.8273C99.179 46.9361 98.7268 46.9516 97.8223 46.8739C95.9822 46.734 95.4676 46.5008 97.1517 46.5786C97.8847 46.6097 98.6332 46.6407 98.8359 46.6407ZM106.181 46.7496C106.337 46.8895 105.308 46.7962 105.105 46.6407C104.933 46.5319 105.043 46.5164 105.495 46.5941C105.838 46.6563 106.15 46.7185 106.181 46.7496ZM102.922 47.0449C105.089 47.1848 106.477 47.4024 107.397 47.7444C108.317 48.0864 112.2 48.8325 113.042 48.8325C113.604 48.8325 115.927 49.4388 115.803 49.5631C115.771 49.5942 115.304 49.5165 114.758 49.3921C114.212 49.2522 111.826 48.9258 109.471 48.6615C105.495 48.2107 103.904 47.9465 104.949 47.8999C105.791 47.8843 104.871 47.62 103.561 47.5112C101.503 47.3558 100.068 47.1382 99.8808 46.9516C99.7716 46.8273 99.9743 46.8117 100.583 46.8739C101.05 46.9205 102.111 46.9983 102.922 47.0449ZM99.7248 47.1226C99.7716 47.2003 99.7092 47.2781 99.5689 47.2781C99.4285 47.2781 99.3661 47.2003 99.4129 47.1226C99.4597 47.0294 99.5377 46.9672 99.5689 46.9672C99.6001 46.9672 99.678 47.0294 99.7248 47.1226ZM92.8945 47.5268C92.8477 47.5734 92.7074 47.589 92.5982 47.5423C92.4734 47.4957 92.5202 47.4491 92.6918 47.4491C92.8633 47.4335 92.9569 47.4801 92.8945 47.5268ZM90.836 47.7444C90.7892 47.8221 90.3838 47.8999 89.9627 47.8999C89.4793 47.8999 89.2142 47.8377 89.2766 47.7444C89.3234 47.6511 89.7288 47.589 90.1499 47.589C90.6333 47.589 90.8984 47.6511 90.836 47.7444ZM102.407 47.9154C102.22 48.0242 101.986 48.0242 101.705 47.9154C101.315 47.7755 101.331 47.7755 101.986 47.76C102.547 47.76 102.625 47.791 102.407 47.9154ZM116.489 49.7652C116.614 49.8429 116.66 49.9206 116.567 49.9206C116.489 49.9206 116.302 49.8429 116.177 49.7652C116.052 49.6875 116.021 49.6097 116.099 49.6097C116.192 49.6097 116.364 49.6875 116.489 49.7652ZM93.222 50.1849C93.066 50.216 92.8165 50.216 92.6762 50.1849C92.5202 50.1383 92.645 50.1072 92.9413 50.1072C93.2376 50.1072 93.3623 50.1383 93.222 50.1849ZM30.5326 52.1901C30.439 52.2679 27.8815 52.7187 27.4605 52.7187C26.6184 52.7187 28.9108 52.2523 30.3922 52.1124C30.517 52.1124 30.5794 52.1435 30.5326 52.1901ZM29.4722 52.8741C29.2539 52.9363 28.7704 52.9985 28.3806 52.9985C27.6788 52.9829 27.6788 52.9829 28.2246 52.8741C28.5209 52.8119 29.0199 52.7497 29.3162 52.7497C29.8153 52.7497 29.8308 52.7653 29.4722 52.8741ZM16.9967 53.185C16.6848 53.3871 16.1702 53.3871 16.2949 53.185C16.3417 53.0917 16.5756 53.0295 16.8095 53.0295C17.137 53.0295 17.1838 53.0606 16.9967 53.185ZM14.7355 53.3249C14.564 53.4803 12.334 54.4286 12.178 54.413C12.0533 54.3975 14.5328 53.2161 14.7355 53.2005C14.8291 53.185 14.8291 53.2316 14.7355 53.3249ZM18.4002 53.9C17.6672 54.1954 16.8251 54.5063 16.5288 54.584C16.217 54.6617 15.7335 54.8327 15.4372 54.9571L14.8914 55.1902L15.3749 55.2058C15.64 55.2058 16.1702 55.097 16.5288 54.9726C16.9031 54.8483 17.2306 54.755 17.2618 54.7861C17.3553 54.8949 15.5464 55.641 14.5795 55.8897C12.4275 56.4649 12.0221 56.5892 11.2579 56.9779C10.8213 57.1955 10.4314 57.382 10.3847 57.382C10.2755 57.382 10.3691 56.9312 10.525 56.8069C10.5874 56.7447 10.603 56.7758 10.5406 56.869C10.3535 57.211 10.6342 57.1022 12.6614 55.983C13.753 55.3923 15.3437 54.6617 16.1702 54.3508C17.0123 54.0399 17.9479 53.698 18.2442 53.5736C18.5405 53.4492 19.0084 53.356 19.2579 53.356C19.6165 53.3404 19.3982 53.4803 18.4002 53.9ZM15.5932 53.7135C15.5932 53.7757 14.2833 54.413 12.677 55.1436C11.1176 55.8431 11.8505 55.3457 13.6127 54.5063C15.2813 53.698 15.5932 53.5736 15.5932 53.7135ZM23.6555 53.7446C23.6087 53.7912 23.4683 53.8068 23.3592 53.7601C23.2344 53.7135 23.2812 53.6669 23.4527 53.6669C23.6243 53.6513 23.7179 53.698 23.6555 53.7446ZM20.6925 53.9933C20.5522 54.0866 20.5522 54.1487 20.7081 54.2576C20.9265 54.3975 20.4586 54.6306 19.5697 54.8327C19.0395 54.9415 19.1799 54.6773 19.7257 54.5218C19.8972 54.4752 19.7413 54.4752 19.3982 54.5063C18.9304 54.5685 18.7277 54.5218 18.6653 54.3664C18.6185 54.242 18.6809 54.1021 18.8056 54.0555C19.1643 53.9156 19.367 53.9467 19.2579 54.1177C19.1487 54.3042 19.3514 54.3197 19.7413 54.1643C19.9908 54.071 19.9908 54.0555 19.7101 53.9622C19.5386 53.9 19.7101 53.8534 20.1467 53.8689C20.5366 53.8845 20.7861 53.9311 20.6925 53.9933ZM64.4036 54.3353C64.4036 54.3819 64.3412 54.4596 64.2476 54.5063C64.1697 54.5529 64.0917 54.5218 64.0917 54.4441C64.0917 54.3508 64.1697 54.2731 64.2476 54.2731C64.3412 54.2731 64.4036 54.3042 64.4036 54.3353ZM8.40418 54.7861C8.37299 54.8016 8.20145 54.926 8.02991 55.0503C7.73362 55.268 7.73362 55.268 7.93635 55.0037C8.04551 54.8638 8.21705 54.7394 8.31061 54.7394C8.40418 54.7394 8.43537 54.755 8.40418 54.7861ZM98.7268 55.0037C98.8047 55.0814 98.3369 55.1281 97.5884 55.097C96.871 55.0814 96.2473 54.9882 96.1537 54.8793C95.951 54.6617 98.5085 54.7861 98.7268 55.0037ZM17.3865 55.6721C17.4333 55.7498 17.3398 55.8276 17.1682 55.8276C16.9811 55.8276 16.8407 55.7498 16.8407 55.6721C16.8407 55.5788 16.9343 55.5167 17.0591 55.5167C17.1838 55.5167 17.3398 55.5788 17.3865 55.6721ZM16.5288 56.1385C16.5288 56.2162 16.4041 56.2939 16.2637 56.2939C16.0298 56.2939 16.0142 56.2628 16.217 56.1385C16.5133 55.9519 16.5288 55.9519 16.5288 56.1385ZM15.9051 56.2939C15.9051 56.3716 15.7959 56.4493 15.6556 56.4493C15.5308 56.4493 15.4684 56.3716 15.5152 56.2939C15.562 56.2006 15.6712 56.1385 15.7647 56.1385C15.8427 56.1385 15.9051 56.2006 15.9051 56.2939ZM18.3378 56.3716C18.1663 56.496 17.8856 56.6048 17.714 56.5892C17.4801 56.5892 17.5425 56.5271 17.9323 56.3716C18.6341 56.1074 18.6965 56.1074 18.3378 56.3716ZM99.0699 56.4027C98.9607 56.4338 98.7736 56.4338 98.68 56.4027C98.5708 56.3561 98.6488 56.325 98.8671 56.325C99.0854 56.325 99.1634 56.3561 99.0699 56.4027ZM5.79992 57.382C5.31649 57.7706 5.03579 58.0971 5.08258 58.237C5.14496 58.3613 4.81747 58.7188 4.25608 59.1541C3.33601 59.8847 2.86818 60.1023 3.32041 59.5893C3.47636 59.4339 3.53873 59.2629 3.49195 59.2163C3.44517 59.1696 3.52314 59.1385 3.67908 59.1385C3.81943 59.1541 3.97538 59.0764 4.02216 58.952C4.06894 58.8121 4.02216 58.781 3.88181 58.8587C3.46076 59.0919 4.10013 58.5012 5.22293 57.6307C5.83111 57.1644 6.37691 56.7758 6.45488 56.7602C6.53285 56.7602 6.23656 57.04 5.79992 57.382ZM14.4236 57.1799C13.7375 57.5375 13.4879 58.0038 13.9558 58.0038C14.0961 58.0038 14.2365 57.895 14.2833 57.7706C14.3456 57.6463 14.4548 57.5375 14.564 57.5375C14.6575 57.5375 15.0006 57.4131 15.2969 57.2577C15.7335 57.04 15.8895 57.0245 16.0298 57.1644C16.1702 57.3198 16.0766 57.3976 15.6244 57.5375C15.3125 57.6307 14.7979 57.8483 14.5016 58.0038C14.2053 58.1592 13.7063 58.3302 13.41 58.3924C12.9265 58.5012 12.8954 58.4857 13.0825 58.2525C13.3632 57.9105 13.3008 57.9261 12.0845 58.4857C10.4159 59.2318 10.5406 58.8587 12.2872 57.8328C12.7394 57.5685 13.0669 57.2887 13.0201 57.211C12.9577 57.1333 13.0357 57.1178 13.1605 57.1644C13.2852 57.211 13.5191 57.1799 13.6751 57.0867C13.831 56.9934 14.1741 56.9312 14.4236 56.9312H14.8914L14.4236 57.1799ZM9.66732 57.6618C9.66732 57.8639 9.30865 58.1592 9.09033 58.1592C8.91879 58.1592 8.91879 58.0815 9.04355 57.8483C9.19949 57.553 9.66732 57.4131 9.66732 57.6618ZM10.1352 58.2836C10.1352 58.5012 9.77648 58.781 9.48019 58.781C9.12152 58.781 9.12152 58.6411 9.48019 58.3769C9.77648 58.1437 10.1352 58.0971 10.1352 58.2836ZM19.2735 60.3199C19.0084 60.6153 17.5581 61.1904 17.714 60.9417C17.7608 60.864 17.714 60.8018 17.6049 60.8018C17.0746 60.8018 18.6809 60.0557 19.2423 60.0401C19.523 60.0246 19.523 60.0401 19.2735 60.3199ZM16.6692 61.4858C16.638 61.5169 16.217 61.7034 15.7491 61.8899C15.2813 62.0765 14.9694 62.1542 15.0474 62.0609C15.1409 61.9676 15.484 61.7967 15.8271 61.6723C16.4665 61.4391 16.794 61.377 16.6692 61.4858ZM18.0883 61.8122C18.0883 61.9676 16.8095 62.5272 16.56 62.4806C16.4041 62.4495 16.6536 62.2785 17.1526 62.092C18.1507 61.6878 18.0883 61.7189 18.0883 61.8122ZM106.929 62.605C106.883 62.6516 106.742 62.6671 106.633 62.6205C106.508 62.5739 106.555 62.5272 106.727 62.5272C106.898 62.5117 106.992 62.5583 106.929 62.605ZM108.598 62.7604C108.988 62.8226 109.315 62.9314 109.315 63.0091C109.315 63.1024 109.144 63.1179 108.894 63.0402C108.645 62.978 108.146 62.8848 107.756 62.8226C106.867 62.6827 107.6 62.6361 108.598 62.7604ZM111.343 63.2889C113.401 63.7086 113.775 63.8019 113.9 63.9263C114.243 64.2371 113.775 64.2061 112.029 63.833C111 63.5998 110.079 63.3977 109.97 63.3511C109.627 63.2423 109.939 62.978 110.298 63.0558C110.485 63.1024 110.953 63.2112 111.343 63.2889ZM116.629 64.4703C119.296 65.232 122.368 66.289 123.709 66.9108C124.457 67.2528 125.05 67.5481 125.019 67.5792C124.988 67.6103 123.647 67.1906 122.009 66.631C118.391 65.403 116.348 64.8434 115.569 64.8434C115.179 64.8434 114.836 64.719 114.571 64.4859C113.729 63.7708 114.15 63.7708 116.629 64.4703ZM103.811 64.3149C103.764 64.3615 103.623 64.377 103.514 64.3304C103.389 64.2838 103.436 64.2371 103.608 64.2371C103.779 64.2216 103.873 64.2682 103.811 64.3149ZM103.935 64.6879C104.216 64.8123 104.216 64.8278 103.857 64.8278C103.639 64.8278 103.358 64.7657 103.234 64.6879C103.046 64.5636 103.046 64.5325 103.312 64.548C103.483 64.548 103.764 64.6102 103.935 64.6879ZM86.8595 64.8434C87.1402 65.0299 86.8906 65.0299 86.4696 64.8434C86.2669 64.7501 86.2357 64.7035 86.3916 64.7035C86.5164 64.7035 86.7347 64.7657 86.8595 64.8434ZM104.824 64.7967C104.668 64.8589 104.668 64.9211 104.809 65.0921C104.933 65.232 104.933 65.3097 104.824 65.3097C104.59 65.3097 104.434 65.0299 104.559 64.8434C104.606 64.7501 104.746 64.6879 104.84 64.7035C104.965 64.7035 104.965 64.7346 104.824 64.7967ZM109.627 65.2475C109.627 65.4652 109.58 65.4652 109.393 65.3097C109.269 65.2009 109.159 65.0921 109.159 65.061C109.159 65.0299 109.269 64.9988 109.393 64.9988C109.518 64.9988 109.627 65.1076 109.627 65.2475ZM110.36 65.2475C110.313 65.2942 110.173 65.3097 110.064 65.2631C109.939 65.2165 109.986 65.1698 110.157 65.1698C110.329 65.1543 110.423 65.2009 110.36 65.2475ZM107.756 65.4652C107.756 65.6672 107.584 65.6672 107.288 65.4652C107.101 65.3408 107.117 65.3097 107.413 65.3097C107.6 65.3097 107.756 65.3719 107.756 65.4652ZM111.732 65.4652C111.779 65.5429 111.748 65.6206 111.67 65.6206C111.577 65.6206 111.499 65.5429 111.499 65.4652C111.499 65.3719 111.53 65.3097 111.561 65.3097C111.608 65.3097 111.686 65.3719 111.732 65.4652ZM108.645 65.8693C108.598 65.9159 108.458 65.9315 108.349 65.8849C108.224 65.8382 108.271 65.7916 108.442 65.7916C108.614 65.7761 108.707 65.8227 108.645 65.8693ZM100.676 67.1129C100.941 67.3305 100.941 67.346 100.692 67.2683C100.536 67.2217 100.302 67.1751 100.177 67.1751C100.037 67.1751 99.9899 67.0973 100.037 67.0196C100.177 66.802 100.317 66.8175 100.676 67.1129ZM104.325 67.1751C104.325 67.2528 104.216 67.3305 104.091 67.3305C103.966 67.3305 103.857 67.2528 103.857 67.1751C103.857 67.0818 103.966 67.0196 104.091 67.0196C104.216 67.0196 104.325 67.0818 104.325 67.1751ZM102.345 67.4393C102.236 67.4704 102.048 67.4704 101.955 67.4393C101.846 67.3927 101.924 67.3616 102.142 67.3616C102.36 67.3616 102.438 67.3927 102.345 67.4393ZM49.0743 68.8228C49.0275 68.8694 48.8872 68.885 48.778 68.8383C48.6533 68.7917 48.7 68.7451 48.8716 68.7451C49.0431 68.7295 49.1367 68.7761 49.0743 68.8228ZM61.7993 69.1492C61.6901 69.1803 61.4718 69.1803 61.3315 69.1492C61.1755 69.1026 61.2691 69.0715 61.5186 69.0715C61.7837 69.0715 61.8929 69.1026 61.7993 69.1492ZM59.6005 69.3513C59.2418 69.5067 57.0274 69.7244 57.3081 69.5845C57.5109 69.4912 59.0859 69.2269 59.5693 69.2269C59.9592 69.2114 59.9592 69.2114 59.6005 69.3513ZM55.0937 70.0819C54.9846 70.113 54.7974 70.113 54.7039 70.0819C54.5947 70.0353 54.6727 70.0042 54.891 70.0042C55.1093 70.0042 55.1873 70.0353 55.0937 70.0819ZM83.6938 70.5327C83.647 70.5793 83.5067 70.5949 83.3975 70.5482C83.2728 70.5016 83.3195 70.455 83.4911 70.455C83.6626 70.4394 83.7562 70.486 83.6938 70.5327ZM46.9379 73.2996C46.9379 73.3307 46.8287 73.4084 46.6884 73.455C46.5636 73.5017 46.5012 73.4861 46.548 73.3929C46.6416 73.2374 46.9379 73.1752 46.9379 73.2996ZM69.6121 73.6882C69.7057 73.8281 68.0994 74.0146 66.6959 74.0146C66.1969 74.0146 65.3236 74.0924 64.7466 74.1701C64.1697 74.2634 63.0936 74.3255 62.3763 74.2944L61.0508 74.2478L62.8441 74.0457C64.5127 73.8437 67.3821 73.626 68.8792 73.5639C69.2378 73.5639 69.5653 73.6105 69.6121 73.6882ZM80.2786 73.8126C80.0291 73.8437 79.6549 73.8437 79.4209 73.8126C79.1714 73.7815 79.3742 73.7504 79.842 73.7504C80.3098 73.7504 80.5126 73.7815 80.2786 73.8126ZM49.5109 74.0146C49.4642 74.0924 49.3394 74.1701 49.2614 74.1701C49.1679 74.1701 49.1523 74.0924 49.1991 74.0146C49.2458 73.9214 49.3706 73.8592 49.4486 73.8592C49.5421 73.8592 49.5577 73.9214 49.5109 74.0146ZM60.0371 74.5898C59.8188 74.6209 59.3198 74.7608 58.9143 74.8851C58.2282 75.1028 57.121 75.1339 57.698 74.9162C58.2906 74.6986 59.2262 74.5276 59.8032 74.5276C60.1619 74.5276 60.2555 74.5432 60.0371 74.5898ZM69.6277 74.7919C69.5809 74.8696 69.425 74.9473 69.3002 74.9473C69.1754 74.9473 69.0819 74.8696 69.0819 74.7919C69.0819 74.6986 69.2222 74.6364 69.4094 74.6364C69.5809 74.6364 69.6745 74.6986 69.6277 74.7919ZM65.9006 74.9318C65.8071 75.0717 65.0273 75.2738 65.0273 75.1494C65.0273 75.0872 65.6511 74.823 65.8538 74.8074C65.9318 74.7919 65.9474 74.8541 65.9006 74.9318ZM64.4815 75.1028C64.5283 75.1805 64.4659 75.2582 64.3412 75.2582C64.2008 75.2582 64.0917 75.1805 64.0917 75.1028C64.0917 75.0095 64.1541 74.9473 64.232 74.9473C64.3256 74.9473 64.4348 75.0095 64.4815 75.1028ZM62.735 75.2116C62.6258 75.2427 62.4075 75.2427 62.2671 75.2116C62.1112 75.1649 62.2048 75.1339 62.4543 75.1339C62.7194 75.1339 62.8285 75.1649 62.735 75.2116ZM77.2377 75.367C77.1286 75.3981 76.9103 75.3981 76.7699 75.367C76.614 75.3204 76.7075 75.2893 76.957 75.2893C77.2221 75.2893 77.3313 75.3204 77.2377 75.367ZM59.9904 75.6624C59.9436 75.709 59.8032 75.7245 59.6941 75.6779C59.5693 75.6313 59.6161 75.5846 59.7876 75.5846C59.9592 75.5691 60.0527 75.6157 59.9904 75.6624ZM58.275 75.9733C58.2282 76.0199 58.0878 76.0354 57.9787 75.9888C57.8539 75.9422 57.9007 75.8955 58.0723 75.8955C58.2438 75.88 58.3374 75.9266 58.275 75.9733Z" fill="#6EB600"/>
</svg>
